<svg xmlns="http://www.w3.org/2000/svg" viewBox="0 0 1122 1122"><defs><style>.cls-1{fill:#edf7f7;}.cls-2{fill:#a44040;}.cls-3{fill:#272425;}</style></defs><g id="colour"><circle class="cls-1" cx="569.74" cy="558.73" r="547.54" transform="translate(-228.21 566.52) rotate(-45)"/><path class="cls-2" d="M574.76,725.23V299.83A10.73,10.73,0,0,0,564,289.1h-.21a10.73,10.73,0,0,0-10.74,10.73V725.66a68.57,68.57,0,1,0,21.69-.43Z"/></g><g id="OBJECT"><path class="cls-3" d="M499.63,392V688.67c-43.91,29.44-64.48,83-50.36,134.53,14,51,62.41,85.76,114.34,87.36,52.84,1.63,99.53-34.47,116.47-83.37,17.92-51.71-5-108.77-49.18-138.51v-380c0-17,1.64-35.07-1.48-51.87-9.49-51.11-85.82-58.06-116.07-23.49-15.84,18.1-13.72,41.11-13.72,63.23Zm18.46,301.54V304.93c0-19-3.22-41.33,7.77-57.89,12.53-18.88,47.64-20.83,66.5-11.23,14.48,7.38,20.09,22.59,20.09,37.85V693.71a8.52,8.52,0,0,0,2.89,6.7,10.13,10.13,0,0,0,1.68,1.27,103.43,103.43,0,0,1,18.8,162.21c-45.92,45.29-122.66,32.94-156.94-19.53-17.57-26.9-19.83-60.45-9.43-90.39,5.11-14.68,14.58-27.61,25.57-38.39C501.08,709.63,518.09,703.11,518.09,693.52Z"/><path class="cls-3" d="M386.11,359.68a97,97,0,0,0,97,97v-194A97,97,0,0,0,386.11,359.68Z"/><path class="cls-3" d="M325.07,215.24l61.62,49.48c8.66,7,21.05-5.27,12.31-12.3l-61.62-49.48C328.72,196,316.32,208.22,325.07,215.24Z"/><path class="cls-3" d="M441.3,217.78c5.09,10,20.09,1.2,15-8.78l-35.5-69.88c-5.09-10-20.1-1.2-15,8.78Z"/><path class="cls-3" d="M287.93,417.17,366,399.34c10.94-2.49,6.3-19.27-4.62-16.77l-78.08,17.82C272.37,402.89,277,419.66,287.93,417.17Z"/><path class="cls-3" d="M283.31,312.11l77.76,17.75c10.92,2.49,15.56-14.28,4.63-16.78l-77.77-17.75C277,292.84,272.37,309.62,283.31,312.11Z"/><path class="cls-3" d="M386.69,448.12l-61.62,49.14c-8.77,7,3.63,19.22,12.31,12.3L399,460.42C407.77,453.43,395.37,441.2,386.69,448.12Z"/><path class="cls-3" d="M420.82,573.38l35.5-70.27c5.05-10-10-18.8-15-8.78L405.79,564.6C400.75,574.59,415.76,583.4,420.82,573.38Z"/><path class="cls-3" d="M670.84,347.31H713c10.14,0,10.14-15.73,0-15.73H670.84C660.7,331.58,660.7,347.31,670.84,347.31Z"/><path class="cls-3" d="M670.84,441H713c10.14,0,10.14-15.72,0-15.72H670.84C660.7,425.24,660.7,441,670.84,441Z"/><path class="cls-3" d="M670.84,543H713c10.14,0,10.14-15.72,0-15.72H670.84C660.7,527.28,660.7,543,670.84,543Z"/></g></svg>