<svg xmlns="http://www.w3.org/2000/svg" viewBox="0 0 1122 1122"><defs><style>.cls-1{fill:#edf7f7;}.cls-2{fill:#65a7dd;}.cls-3{fill:#272425;}</style></defs><g id="OBJECT"><circle class="cls-1" cx="567.51" cy="559.69" r="554.49" transform="translate(-229.54 565.22) rotate(-45)"/><path class="cls-2" d="M613.5,700V269.23a10.87,10.87,0,0,0-10.87-10.87h-.22a10.87,10.87,0,0,0-10.87,10.87V700.46a69.43,69.43,0,1,0,22-.44Z"/><path class="cls-2" d="M276.19,216.62c-6.86,12.43-1.53,26.55,10.91,33.41s27.19,3.83,34.06-8.58c8.46-15.34,3.51-59.49,3.51-59.49S284.93,200.84,276.19,216.62Z"/><path class="cls-2" d="M415.63,216.62c-6.85,12.43-1.52,26.55,10.89,33.41s27.2,3.83,34.06-8.58c8.47-15.34,3.51-59.49,3.51-59.49S424.35,200.84,415.63,216.62Z"/><path class="cls-2" d="M335.45,307.25c-6.86,12.43-1.52,26.55,10.91,33.41s27.19,3.84,34.06-8.58c8.47-15.34,3.51-59.48,3.51-59.48S344.18,291.46,335.45,307.25Z"/><path class="cls-2" d="M474.89,307.25c-6.88,12.43-1.52,26.55,10.89,33.41s27.21,3.84,34.07-8.58c8.46-15.34,3.5-59.48,3.5-59.48S483.61,291.46,474.89,307.25Z"/><path class="cls-3" d="M537.42,362.55V663c-44.47,29.82-65.3,84-51,136.23,14.14,51.69,63.2,86.85,115.79,88.48,53.51,1.65,100.79-34.91,117.95-84.43,18.15-52.36-5-110.15-49.81-140.27V278.14c0-17.2,1.66-35.52-1.5-52.53-9.6-51.76-86.9-58.8-117.54-23.79-16,18.33-13.89,41.63-13.89,64Zm18.69,305.37V274.39c0-19.27-3.26-41.85,7.87-58.63,12.69-19.12,48.24-21.09,67.34-11.36,14.67,7.47,20.35,22.86,20.35,38.32V668.11a8.61,8.61,0,0,0,2.93,6.78,9.94,9.94,0,0,0,1.7,1.28,104.74,104.74,0,0,1,19,164.27c-46.5,45.87-124.21,33.36-158.92-19.77-17.8-27.25-20.09-61.22-9.55-91.54,5.17-14.87,14.76-28,25.89-38.88C538.89,684.23,556.11,677.62,556.11,667.92Z"/><path class="cls-3" d="M689.68,347.74h41.4c10,0,10-15.44,0-15.44h-41.4C679.73,332.3,679.73,347.74,689.68,347.74Z"/><path class="cls-3" d="M689.68,439.68h41.4c10,0,10-15.43,0-15.43h-41.4C679.73,424.25,679.73,439.68,689.68,439.68Z"/><path class="cls-3" d="M689.68,539.87h41.4c10,0,10-15.44,0-15.44h-41.4C679.73,524.43,679.73,539.87,689.68,539.87Z"/><path class="cls-3" d="M315.19,178.83c-.45-4.19-4.17-6.51-8.08-4.64-19.47,9.32-47.11,22.37-53.5,44.76-4.09,14.29,7.1,30.09,20.36,34.63,14.18,4.85,27.51.82,36-11.2A5.14,5.14,0,0,0,311,241a5.3,5.3,0,0,0,.69-1.56C319.64,221.38,317.27,197.88,315.19,178.83ZM301.68,235.6c-8.86,13.72-26.47,11.25-35.29-1.35-8.7-12.42,3.38-24,12.48-30.94a177.78,177.78,0,0,1,26.48-16.26C307,203,308.3,221.94,301.68,235.6Z"/><path class="cls-3" d="M449.43,242.37a5.39,5.39,0,0,0,.95-1.35,6,6,0,0,0,.68-1.55c8-18.07,5.64-41.58,3.56-60.64-.46-4.19-4.18-6.51-8.08-4.64-19.48,9.32-47.1,22.37-53.49,44.76-4.08,14.28,7.09,30.09,20.34,34.63C427.57,258.43,440.92,254.4,449.43,242.37Zm-43.6-8.12c-8.68-12.42,3.37-24,12.47-30.94a177.68,177.68,0,0,1,26.47-16.26c1.69,16,3,34.9-3.67,48.55C432.25,249.33,414.63,246.85,405.83,234.25Z"/><path class="cls-3" d="M333.23,344.21c14.18,4.85,27.52.82,36-11.2a8.76,8.76,0,0,0,1.62-2.91c8-18.07,5.65-41.58,3.56-60.64-.46-4.19-4.17-6.51-8.08-4.64-19.47,9.32-47.11,22.36-53.5,44.76C308.79,323.86,320,339.68,333.23,344.21Zm4.89-50.27a177.88,177.88,0,0,1,26.49-16.26c1.69,16,2.95,34.9-3.67,48.55-8.86,13.73-26.47,11.24-35.29-1.35C317,312.46,329,300.85,338.12,293.94Z"/><path class="cls-3" d="M472.65,344.21c14.18,4.85,27.54.83,36.05-11.2a5.65,5.65,0,0,0,.95-1.36,6.11,6.11,0,0,0,.68-1.55c8-18.08,5.63-41.58,3.54-60.64-.45-4.19-4.17-6.51-8.08-4.64-19.48,9.32-47.07,22.36-53.49,44.76C448.21,323.85,459.41,339.68,472.65,344.21Zm4.9-50.27A178.29,178.29,0,0,1,504,277.68c1.69,16,3,34.89-3.66,48.55-8.85,13.73-26.48,11.24-35.29-1.35C456.4,312.46,468.46,300.85,477.55,293.94Z"/></g></svg>