<svg xmlns="http://www.w3.org/2000/svg" viewBox="0 0 1122 1122"><defs><style>.cls-1{fill:#edf7f7;}.cls-2{fill:#a44040;}.cls-3{fill:#272425;}</style></defs><g id="OBJECT"><circle class="cls-1" cx="565.84" cy="558.73" r="547.54" transform="translate(-229.35 563.76) rotate(-45)"/><path class="cls-2" d="M722.75,214.48A155.11,155.11,0,1,1,418.8,217Z"/><path class="cls-3" d="M520.39,871.82c0,8.78-2.29,15.35-6.81,19.53s-11.08,6.39-19.27,6.39-14.65-2.15-19.18-6.38-6.74-10.75-6.74-19.54V792.54H446.7v79.28c0,14.65,4.57,26,13.59,33.82s20.31,11.59,33.93,11.59,25.06-3.9,34-11.58,13.68-19.18,13.68-33.83V792.54H520.39Z"/><polygon class="cls-3" points="655.82 887.7 621.02 792.54 598 792.54 645.59 916.04 666.38 916.04 713.96 792.54 690.95 792.54 655.82 887.7"/><path class="cls-3" d="M480.82,718l.28,0a7,7,0,0,0,5.76-1.32,7.89,7.89,0,0,0,.65-.49l.06-.05,29.58-27c7.16-6.55-3.49-17.15-10.62-10.62l-16.76,15.32V610.43c0-9.69-15-9.69-15,0v85.89l-19.5-17.83c-7.13-6.53-17.79,4.07-10.62,10.62l29.58,27A7.15,7.15,0,0,0,480.82,718Z"/><path class="cls-3" d="M654.8,716.16a7.15,7.15,0,0,0,6.61,1.84l.27,0a7.06,7.06,0,0,0,5.77-1.32,7.89,7.89,0,0,0,.65-.49l.06-.05,29.58-27c7.16-6.55-3.49-17.15-10.62-10.62l-16.76,15.32V610.43c0-9.69-15-9.69-15,0v85.89l-19.5-17.83c-7.13-6.53-17.79,4.07-10.62,10.62Z"/><path class="cls-3" d="M879,237.06,772,237c-14.6,0-14.6,22.62,0,22.63l107,.1C893.58,259.71,893.57,237.07,879,237.06Z"/><path class="cls-3" d="M854.22,371.88,763.33,328c-13.09-6.31-24.57,13.2-11.43,19.55l90.89,43.86C855.87,397.74,867.36,378.22,854.22,371.88Z"/><path class="cls-3" d="M514.14,550.49q11.63-50.79,23.27-101.57c3.26-14.21-18.57-20.25-21.83-6Q504,493.69,492.31,544.47C489.05,558.68,510.88,564.71,514.14,550.49Z"/><path class="cls-3" d="M439.62,395.58,372.15,480c-9,11.28,6.89,27.41,16,16l67.47-84.45C464.64,400.3,448.73,384.18,439.62,395.58Z"/><path class="cls-3" d="M650.82,544.59,627.72,443c-3.23-14.23-25.06-8.2-21.83,6L629,550.61C632.23,564.84,654.05,558.8,650.82,544.59Z"/><path class="cls-3" d="M706.78,399.58c-9.09-11.42-25,4.71-16,16q32.15,40.4,64.31,80.78c9.09,11.42,25-4.71,16-16Z"/><path class="cls-3" d="M385.18,325.28l-96,46.12c-13.15,6.32-1.66,25.83,11.43,19.54l96-46.11C409.75,338.5,398.27,319,385.18,325.28Z"/><path class="cls-3" d="M370.49,236.62l-105.82-.09c-14.59,0-14.59,22.62,0,22.63l105.82.09C385.09,259.27,385.09,236.63,370.49,236.62Z"/><path class="cls-3" d="M733.66,248.47a162.53,162.53,0,0,0-4.07-34.38c-5.16.34-10.15.45-15.33.4a141.8,141.8,0,0,1,4.37,34c-.69,60.9-37.83,115.66-94.76,137.9s-122.07,5-163-39.62c-32.52-35.44-44.25-84.15-34.08-129.91-5.26,0-9.79-.3-15-.28a173,173,0,0,0-2.76,17.59C403.27,290.37,429.89,345,474,378.94c48.82,37.6,116.78,41.28,171.19,14.28S733,308.44,733.66,248.47Z"/><path class="cls-3" d="M418.76,203H723.6c9.69,0,9.69-15,0-15H418.76C409.07,188,409.07,203,418.76,203Z"/></g></svg>