<svg xmlns="http://www.w3.org/2000/svg" xmlns:xlink="http://www.w3.org/1999/xlink" viewBox="0 0 200 200"><defs><style>.cls-1{isolation:isolate;}.cls-2{fill:none;}.cls-3{fill:#645339;}.cls-4{fill:url(#Áåçûìÿííûé_ãðàäèåíò_2);}.cls-5{fill:url(#Áåçûìÿííûé_ãðàäèåíò_4);}.cls-6{fill:#565656;}.cls-7{fill:url(#Áåçûìÿííûé_ãðàäèåíò_45);}.cls-8{fill:#c8c7c6;}.cls-9{fill:#f0efef;}.cls-10{fill:#67451a;}.cls-11{fill:#8f5c24;}.cls-12{fill:url(#Áåçûìÿííûé_ãðàäèåíò_51);}.cls-13{fill:#ad6d40;}.cls-14{fill:#c98759;}.cls-15{fill:#6b893a;}.cls-16{fill:#99c83c;}.cls-17{fill:#a8cf38;}.cls-18{fill:#68933e;}.cls-19{fill:#b4d443;}.cls-20{fill:#658339;}.cls-21{fill:#89ac3e;}.cls-22{fill:#435d2b;}.cls-23{fill:#91b93e;}.cls-24{fill:#a9cf3d;}.cls-25{fill:#80ac40;}.cls-26{fill:#b9d534;}.cls-27{fill:#c2d82e;}.cls-28{fill:#75a841;}.cls-29{fill:#546a30;}.cls-30{fill:#7eb141;}.cls-31,.cls-46{mix-blend-mode:multiply;}.cls-32{fill:#fff;}.cls-33{fill:#e7e5e5;}.cls-34{fill:#d5d3d3;}.cls-35{fill:#c5c3c2;}.cls-36{fill:#b6b4b3;}.cls-37{fill:#a8a5a5;}.cls-38{fill:#9b9898;}.cls-39{fill:#8d8b8b;}.cls-40{fill:#817f7f;}.cls-41{fill:#767474;}.cls-42{fill:#6b6a6a;}.cls-43{fill:#606161;}.cls-44{fill:#602e26;}.cls-45,.cls-46,.cls-47{fill:#bbac9a;}.cls-47{mix-blend-mode:screen;}</style><linearGradient id="Áåçûìÿííûé_ãðàäèåíò_2" x1="381.49" y1="270.27" x2="431.43" y2="270.27" gradientUnits="userSpaceOnUse"><stop offset="0" stop-color="#717171"/><stop offset="0.15" stop-color="#6b6c6c"/><stop offset="0.45" stop-color="#929191"/><stop offset="0.47" stop-color="#959494"/><stop offset="0.89" stop-color="#acacac"/></linearGradient><linearGradient id="Áåçûìÿííûé_ãðàäèåíò_4" x1="386.92" y1="285.14" x2="426.8" y2="285.14" gradientUnits="userSpaceOnUse"><stop offset="0" stop-color="#595a5a"/><stop offset="0.15" stop-color="#555554"/><stop offset="0.45" stop-color="#7b7b7b"/><stop offset="0.47" stop-color="#7e7e7e"/><stop offset="0.89" stop-color="#959494"/></linearGradient><linearGradient id="Áåçûìÿííûé_ãðàäèåíò_45" x1="379.18" y1="250.58" x2="435.09" y2="250.58" gradientUnits="userSpaceOnUse"><stop offset="0" stop-color="#9e9e9e"/><stop offset="0.15" stop-color="#989898"/><stop offset="0.45" stop-color="#bfbfbf"/><stop offset="0.47" stop-color="#c2c2c2"/><stop offset="0.89" stop-color="#d9d9d8"/></linearGradient><linearGradient id="Áåçûìÿííûé_ãðàäèåíò_51" x1="384.09" y1="236.6" x2="430.13" y2="236.6" gradientUnits="userSpaceOnUse"><stop offset="0" stop-color="#868686"/><stop offset="0.09" stop-color="#868686"/><stop offset="0.58" stop-color="#868686"/><stop offset="1" stop-color="#424242"/></linearGradient></defs><title>fertilizer_on</title><g class="cls-1"><g id="Layer_1" data-name="Layer 1"><rect class="cls-2" width="245.45" height="214"/><path class="cls-3" d="M410.21,215.72l4.12,3.62a7.29,7.29,0,0,0,1.91,1.2c.73.32,1.6.6,2.52,1a20.21,20.21,0,0,1,5.26,2.93,9.73,9.73,0,0,1,3.71,5.37,13.24,13.24,0,0,1-.68,6.18c-.26.93-.47,1.67-.65,2.59l-.6,2.73c-.82,3.65-2.16,7.54-4.83,10.57-2.58,2.82-5.26,5.28-7.5,8.07a20.43,20.43,0,0,0-2.74,4.45,26.45,26.45,0,0,0-1.62,5.06c-.21.87-.36,1.76-.52,2.65s-.33,1.87-.57,2.78a31.15,31.15,0,0,1-1.81,5.4,41.66,41.66,0,0,1-2.63,5c-.48.79-1,1.57-1.39,2.34a4.65,4.65,0,0,0-.72,2.17v.13l0,.11a20.74,20.74,0,0,0-.06,7.33,14,14,0,0,0,1.08,3.49,14.73,14.73,0,0,0,.87,1.61,4.86,4.86,0,0,1,.73,2.05,8.22,8.22,0,0,1-.74,4c-.5,1.22-1.1,2.36-1.67,3.5a21.19,21.19,0,0,0-2.52,7,9.38,9.38,0,0,0,.28,3.65,12.16,12.16,0,0,0,1.63,3.34l4.14,6.47a18.57,18.57,0,0,1,3,7.07,6.67,6.67,0,0,1-.66,3.78,10.68,10.68,0,0,1-2.36,3l-.05-.05a10.63,10.63,0,0,0,2.25-3,6.29,6.29,0,0,0,.55-3.67,18,18,0,0,0-3.12-6.86l-4.29-6.36a13,13,0,0,1-1.79-3.48,10.12,10.12,0,0,1-.4-3.94,21.93,21.93,0,0,1,2.43-7.4c.54-1.16,1.11-2.3,1.55-3.46a7.15,7.15,0,0,0,.59-3.46,3.79,3.79,0,0,0-.59-1.51,18.67,18.67,0,0,1-1-1.74,15.52,15.52,0,0,1-1.27-3.79,22,22,0,0,1-.11-7.92l0,.23a6.08,6.08,0,0,1,.83-3.07c.45-.86.92-1.65,1.37-2.45a39,39,0,0,0,2.41-4.84,28.71,28.71,0,0,0,1.58-5.13c.22-.87.32-1.75.48-2.65s.28-1.86.48-2.79a28.8,28.8,0,0,1,1.62-5.5,22.63,22.63,0,0,1,2.92-5c2.32-3,5-5.65,7.37-8.32a20.85,20.85,0,0,0,4-9.48l.52-2.69c.15-.9.41-1.94.63-2.8a10.56,10.56,0,0,0,.52-4.71,6.66,6.66,0,0,0-2.64-3.43,17,17,0,0,0-4.43-2.32c-.8-.29-1.7-.55-2.67-.94a10.91,10.91,0,0,1-2.81-1.66l-4.28-3.59Z" transform="translate(-316.39 -146.49)"/><path class="cls-3" d="M409.83,218.68c-.23,5.39-1.7,10.4-2.88,15.27a63.1,63.1,0,0,0-1.41,7.28,65.09,65.09,0,0,0-.34,7.41A70.5,70.5,0,0,0,407,263.45c.55,2.44,1.23,4.84,2,7.22s1.74,4.7,2.6,7.13a25,25,0,0,1,1.62,7.69,12.46,12.46,0,0,1-.59,4,19.29,19.29,0,0,1-1.77,3.52,6.24,6.24,0,0,0-1.1,3.17c.08,1,.76,2.33.8,3.7a16.09,16.09,0,0,1-1.21,7.7,16.54,16.54,0,0,1-4.68,6.15,52.26,52.26,0,0,0-5.57,5.11c-3.37,3.79-5,8.76-6.31,13.61l-.07,0a60.38,60.38,0,0,1,2.18-7.29,24.21,24.21,0,0,1,3.79-6.64,52.85,52.85,0,0,1,5.47-5.33,15.61,15.61,0,0,0,4.28-6,14.93,14.93,0,0,0,.91-7.21,7.35,7.35,0,0,0-.39-1.73,10.15,10.15,0,0,1-.52-2,3.43,3.43,0,0,1,0-1.15,7.59,7.59,0,0,1,.28-1,16.83,16.83,0,0,1,.84-1.82,18,18,0,0,0,1.54-3.3,10.29,10.29,0,0,0,.41-3.5,23.08,23.08,0,0,0-1.73-7.08c-.9-2.32-1.94-4.66-2.82-7.08a75.56,75.56,0,0,1-2.3-7.36,73.07,73.07,0,0,1-2.28-15.3,65.51,65.51,0,0,1,.13-7.79,66.62,66.62,0,0,1,1.24-7.69c1.07-5,2.3-9.86,2.35-14.64Z" transform="translate(-316.39 -146.49)"/><path class="cls-3" d="M405.11,242.16c.33-1.62.36-3.59.93-5.71a13.11,13.11,0,0,1,.58-1.61,3.82,3.82,0,0,1,1.88-1.79,12.42,12.42,0,0,1,3.21-.81,14.51,14.51,0,0,0,2.49-.55,15.84,15.84,0,0,0,2.36-1,8.45,8.45,0,0,0,3.52-3,3.17,3.17,0,0,0,.48-1.81,2.36,2.36,0,0,0-.62-1.58,7.82,7.82,0,0,0-4.21-1.74c-3.41-.59-7.06,0-10.75.58-6.86,1.37-16.59,2.39-14.08,11l.23,5.65a23.74,23.74,0,0,0,.67,5.35,31.17,31.17,0,0,0,2.12,5,45.13,45.13,0,0,1,2.21,5.32,41.59,41.59,0,0,1,1.48,5.6c.18.94.29,1.93.45,2.77a13.34,13.34,0,0,0,.79,2.54,20.44,20.44,0,0,0,1.25,2.41l.72,1.19a11.78,11.78,0,0,1,.75,1.31,29.73,29.73,0,0,1,1.64,5.55c.44,1.73,1.25,3.47,1.88,5.25a38.84,38.84,0,0,1,1.7,5.49,14.85,14.85,0,0,1,.21,5.83,10,10,0,0,1-.91,2.82c-.43.88-.93,1.68-1.37,2.49a7.27,7.27,0,0,0-.92,2.46,7.39,7.39,0,0,0,.53,2.59,14.68,14.68,0,0,1,.13,5.79,15.39,15.39,0,0,1-2,5.39,17.86,17.86,0,0,1-3.77,4.3c-1.42,1.26-2.9,2.42-4.23,3.74a23,23,0,0,0-3.43,4.42A42.08,42.08,0,0,0,387,338h0a42.18,42.18,0,0,1,3.8-10.65,23.11,23.11,0,0,1,3.39-4.55c1.32-1.37,2.79-2.57,4.17-3.84a17.39,17.39,0,0,0,3.57-4.24,14.8,14.8,0,0,0,1.81-5.19,14,14,0,0,0-.22-5.44,5.57,5.57,0,0,1,.36-5.74c.44-.85.92-1.66,1.3-2.48a9.47,9.47,0,0,0,.77-2.56,14,14,0,0,0-.31-5.39,39.39,39.39,0,0,0-1.76-5.28c-.66-1.75-1.5-3.43-2-5.35a29,29,0,0,0-1.66-5.24,11.27,11.27,0,0,0-.67-1.14l-.78-1.21a20.54,20.54,0,0,1-1.39-2.58,14.81,14.81,0,0,1-.95-2.84c-.22-1-.32-1.89-.52-2.79a39.22,39.22,0,0,0-1.52-5.31,43.75,43.75,0,0,0-2.22-5.07,33.17,33.17,0,0,1-2.36-5.33,25.48,25.48,0,0,1-.87-5.83l-.34-5.64-.16-2.85a9.16,9.16,0,0,1,.34-3.22,6.42,6.42,0,0,1,1.92-2.85,12.86,12.86,0,0,1,2.64-1.75,45.3,45.3,0,0,1,11.19-3.23c3.69-.68,7.63-1.43,11.71-.82a15.6,15.6,0,0,1,3.05.75,8,8,0,0,1,3,1.83,6.06,6.06,0,0,1,.69,7.13,11.62,11.62,0,0,1-4.79,4.42,18.29,18.29,0,0,1-2.84,1.25,18,18,0,0,1-3,.75,9.68,9.68,0,0,0-2.26.56c-.23.12-.19.15-.16.08a7.32,7.32,0,0,0-.35,1.06c-.4,1.53-.41,3.38-.76,5.46Z" transform="translate(-316.39 -146.49)"/><path class="cls-3" d="M405.63,223a7.62,7.62,0,0,0-2.78,2.53,3.61,3.61,0,0,0-.52,1.48,4.75,4.75,0,0,0,.22,1.72c.18.68.46,1.47.65,2.41a9.32,9.32,0,0,1,.07,2.87,20.76,20.76,0,0,0-.21,2.18,3.75,3.75,0,0,0,.35,1.65c.5,1.16,1.51,2.6,2.2,4.18a19.36,19.36,0,0,1,1.47,4.93,16.66,16.66,0,0,1,0,5.18,22.16,22.16,0,0,1-1.42,4.85,87.27,87.27,0,0,0-3.48,8.71,45.39,45.39,0,0,0-1.8,9l-.19,2.39a12.82,12.82,0,0,1-.6,2.51,16.76,16.76,0,0,0-.6,2.14,3.33,3.33,0,0,0,.25,1.76,27.71,27.71,0,0,0,2.28,4,18.07,18.07,0,0,1,1.59,4.73,18.67,18.67,0,0,0,1.39,4.32c.66,1.39,1.45,2.78,2.1,4.29a8.9,8.9,0,0,1,.9,5.07,12.49,12.49,0,0,1-2.31,4.47c-.94,1.31-2,2.52-2.85,3.78a19,19,0,0,0-1.23,1.93c-.36.7-.72,1.39-1,2.1a29.68,29.68,0,0,0-2.74,8.86,19.21,19.21,0,0,0,1,9.14,31.12,31.12,0,0,0,4.82,8c1.94,2.48,4,4.86,6,7.34a34.24,34.24,0,0,1,5,8l-.08,0a33.75,33.75,0,0,0-5.19-7.87c-2-2.44-4.17-4.75-6.18-7.21a31.63,31.63,0,0,1-5.11-8.07,20.06,20.06,0,0,1-1.25-9.52,31.27,31.27,0,0,1,2.62-9.26c.32-.73.67-1.45,1-2.17a19.27,19.27,0,0,1,1.26-2.11c.91-1.33,1.9-2.58,2.77-3.85a11.23,11.23,0,0,0,2-3.93,7.47,7.47,0,0,0-.9-4.1c-.63-1.38-1.44-2.73-2.17-4.18a20.13,20.13,0,0,1-1.63-4.65,16.42,16.42,0,0,0-1.51-4.2,29.16,29.16,0,0,1-2.51-4.19,5.66,5.66,0,0,1-.42-2.88,18.26,18.26,0,0,1,.61-2.45,11.49,11.49,0,0,0,.47-2.1l.13-2.34a48,48,0,0,1,1.66-9.58,88.89,88.89,0,0,1,3.34-9,20.06,20.06,0,0,0,1.15-4.25,13.9,13.9,0,0,0-.1-4.27,16.27,16.27,0,0,0-1.34-4.1c-.32-.66-.66-1.28-1.06-1.94a20.42,20.42,0,0,1-1.25-2.23,6.94,6.94,0,0,1-.69-2.94,25.11,25.11,0,0,1,.16-2.54,5.61,5.61,0,0,0-.07-1.86c-.13-.61-.39-1.31-.64-2.15a8.17,8.17,0,0,1-.4-3,7.18,7.18,0,0,1,.93-3,11.21,11.21,0,0,1,4-3.94Z" transform="translate(-316.39 -146.49)"/><path class="cls-3" d="M416.83,248.13c-1.88,1-3.36,2.7-3.33,4.31a14.26,14.26,0,0,0,.74,3.27,8,8,0,0,1,.27,2.32c0,.76-.12,1.43-.19,2a8.3,8.3,0,0,0-.1,1.58,3.94,3.94,0,0,0,.33,1.32c.39.95,1.12,2,1.73,3.24a18.87,18.87,0,0,1,2.1,7.88,17.07,17.07,0,0,1-.38,4.1,24.24,24.24,0,0,1-1.23,3.81c-1,2.42-2.11,4.63-2.92,6.95a43.62,43.62,0,0,0-1.92,7.13c-.22,1.21-.39,2.43-.52,3.66q-.09.93-.15,1.86a9.34,9.34,0,0,1-.34,2,26.4,26.4,0,0,0-1,3.48,5.75,5.75,0,0,0,1,3.07,36,36,0,0,1,2,3.34,20.09,20.09,0,0,1,1.14,3.75,17.43,17.43,0,0,0,2.72,6.79c1.3,2.13,2.85,4.22,3.65,6.76a10.17,10.17,0,0,1-.86,7.67,16.12,16.12,0,0,1-5.21,5.61,31.32,31.32,0,0,0-3.11,2.11,2.74,2.74,0,0,0-.84,1.53,8.69,8.69,0,0,0-.1,1.85l0,7.58h-.07l-.25-7.57a10.45,10.45,0,0,1,.05-1.93,3.13,3.13,0,0,1,.91-1.75A28.62,28.62,0,0,1,414,343.7a15.5,15.5,0,0,0,4.85-5.53,9.32,9.32,0,0,0,.6-7,31.21,31.21,0,0,0-3.74-6.41,23.78,23.78,0,0,1-1.92-3.39,24,24,0,0,1-1.18-3.7,18.14,18.14,0,0,0-1.15-3.45c-.48-1-1.3-2-2-3.14a7.31,7.31,0,0,1-1.34-4,26.15,26.15,0,0,1,.9-3.85,7.39,7.39,0,0,0,.23-1.68c0-.64.06-1.28.1-1.93.09-1.28.23-2.57.43-3.84a45.78,45.78,0,0,1,1.79-7.55c1.59-5,4.37-9.34,3.94-14a15.85,15.85,0,0,0-2-6.6c-.53-1-1.29-2-1.92-3.38a7,7,0,0,1-.64-2.33,11.2,11.2,0,0,1,0-2.19c.06-.65.12-1.23.12-1.73a4.88,4.88,0,0,0-.22-1.43,16.08,16.08,0,0,1-1-4.08,7.4,7.4,0,0,1,1.59-4.62,12.22,12.22,0,0,1,3.35-2.94Z" transform="translate(-316.39 -146.49)"/><path class="cls-3" d="M414.46,223.28c-1.86,1-3.09,3.23-4.62,5.72-.2.31-.42.62-.65.94l-.58.8c-.38.53-.72,1.07-1.05,1.63a20.54,20.54,0,0,0-1.6,3.47c-1.79,4.81-.69,10.15.44,15.56a87.36,87.36,0,0,1,1.72,16.72c0,2.79.16,5.5,0,8.39a17.72,17.72,0,0,1-.75,4.33,13.54,13.54,0,0,1-2,3.92,15.08,15.08,0,0,0-2.05,3.33,6.28,6.28,0,0,0-.21,3.6,17.65,17.65,0,0,0,3.89,6.84c1.74,2.11,3.63,4.09,5.59,6.07a10.41,10.41,0,0,1,2.48,3.6,2.4,2.4,0,0,1,.08,1.29,4.38,4.38,0,0,1-.46,1.06,2.52,2.52,0,0,0-.35,1.71,5,5,0,0,0,1.55,3.39c1.09.73,2.33,1.38,3.46,2.27a4.87,4.87,0,0,1,1.46,1.65,6,6,0,0,1,.46,2.13,12.12,12.12,0,0,1-.27,4.2,29.68,29.68,0,0,1-1.29,4c-.51,1.29-1,2.58-1.66,3.82a18.11,18.11,0,0,1-5.19,6.42,18,18,0,0,0,5-6.52c.59-1.25,1.07-2.54,1.54-3.84a29.22,29.22,0,0,0,1.16-3.95,11.49,11.49,0,0,0,.15-4.05,5.52,5.52,0,0,0-.45-1.9,4.42,4.42,0,0,0-1.32-1.38c-1.07-.8-2.31-1.4-3.53-2.18A4.42,4.42,0,0,1,414,314.5a10.2,10.2,0,0,1-.58-2.11,4.23,4.23,0,0,1,0-1.18,3.55,3.55,0,0,1,.4-1.11,3.88,3.88,0,0,0,.35-.84,1.47,1.47,0,0,0-.09-.75,9.41,9.41,0,0,0-2.32-3.09c-2-1.91-4-3.88-5.82-6a19.14,19.14,0,0,1-4.4-7.37,7.84,7.84,0,0,1,.15-4.57,16.4,16.4,0,0,1,2.16-3.79c3.22-4.27,2.07-10,2-15.51A83.58,83.58,0,0,0,403.67,252a67.47,67.47,0,0,1-1.6-8.33,21.28,21.28,0,0,1,.8-8.84,24.06,24.06,0,0,1,1.75-4.11c.36-.64.74-1.28,1.15-1.9l.61-.89c.17-.25.34-.51.5-.78.67-1.1,1.33-2.39,2.2-3.64a11.67,11.67,0,0,1,3.49-3.43Z" transform="translate(-316.39 -146.49)"/><path class="cls-3" d="M407.58,228.21c2.13,8.42,3.9,16.87,5.8,25.31l2.8,12.67a72.16,72.16,0,0,1,1.92,13,32.13,32.13,0,0,1-.41,6.64,40.43,40.43,0,0,1-1.76,6.37c-1.39,4.07-3,8.16-2.49,12.34a14.84,14.84,0,0,0,2.26,5.84,9.8,9.8,0,0,1,1.25,3.1,13.14,13.14,0,0,1,.07,3.31,20.4,20.4,0,0,0,3.06,12.28l-.07.05a20.66,20.66,0,0,1-3.53-12.36,13.14,13.14,0,0,0-.17-3.15,9.25,9.25,0,0,0-1.27-2.84,15.73,15.73,0,0,1-2.59-6.08,17.64,17.64,0,0,1,.33-6.64c.46-2.16,1.14-4.24,1.77-6.3a39.22,39.22,0,0,0,1.48-6.17,31.47,31.47,0,0,0,.17-6.29,70.21,70.21,0,0,0-2.32-12.56l-3.24-12.55c-2.18-8.36-4.26-16.78-6.66-25.05Z" transform="translate(-316.39 -146.49)"/><path class="cls-3" d="M406.18,218.51l-3.33,2.4c-1.1.81-2.24,1.59-3.2,2.38a6.82,6.82,0,0,0-2.09,2.47,3.69,3.69,0,0,0-.05,2.77,9.55,9.55,0,0,0,2.11,2.74,17.05,17.05,0,0,1,1.46,1.76,9.73,9.73,0,0,1,1.11,2.18,11.28,11.28,0,0,1,.5,4.67,41.37,41.37,0,0,1-.69,4.2,66.79,66.79,0,0,0-1.34,16,48.34,48.34,0,0,0,3.27,15.65,57.23,57.23,0,0,0,3.53,7.27,40.22,40.22,0,0,1,3.52,7.51l1.29,3.87c.23.56.59,1.15.91,1.79a3.87,3.87,0,0,1,.52,2.32,9.16,9.16,0,0,1-1.88,3.93,22.44,22.44,0,0,1-2.85,3.07,28.68,28.68,0,0,1-3.3,2.54,12.37,12.37,0,0,0-3.05,2.5,3.22,3.22,0,0,0-.11,3.52,11.29,11.29,0,0,0,2.5,3.08c2,1.83,4.3,3.37,6.17,5.41a10.65,10.65,0,0,1,3.1,7.44h-.07a10.46,10.46,0,0,0-3.24-7.24c-1.89-1.95-4.22-3.41-6.3-5.22a12,12,0,0,1-2.73-3.18,4.74,4.74,0,0,1-.6-2.11,3.61,3.61,0,0,1,.67-2.13,13,13,0,0,1,3.17-2.78,26.47,26.47,0,0,0,3.12-2.55,20.78,20.78,0,0,0,2.64-3,8,8,0,0,0,1.56-3.44,2.7,2.7,0,0,0-.45-1.58c-.3-.58-.68-1.15-1-1.85L409.64,291a38.66,38.66,0,0,0-3.63-7.21,59.16,59.16,0,0,1-3.83-7.38,50.63,50.63,0,0,1-3.87-16.22,70.2,70.2,0,0,1,.92-16.64c.48-2.72.93-5.27.11-7.33a7.88,7.88,0,0,0-2-2.8,12.07,12.07,0,0,1-2.86-3.71,7,7,0,0,1-.05-5.24,10,10,0,0,1,3-3.88c1.13-1,2.23-1.77,3.31-2.6l3.26-2.5Z" transform="translate(-316.39 -146.49)"/><path class="cls-3" d="M419.34,219.73a18.78,18.78,0,0,1,1.33,1.85,6.11,6.11,0,0,1,.94,2.71,5.37,5.37,0,0,1-.68,2.87,15,15,0,0,1-1.23,1.93L415,235.66a28.44,28.44,0,0,0-2.12,3.12,2.42,2.42,0,0,0-.31,1.19,3.39,3.39,0,0,0,.41,1.32c.5,1,1.35,2.09,2.08,3.4a14.16,14.16,0,0,1,1.6,4.18,12.5,12.5,0,0,1,.08,4.52,19.45,19.45,0,0,1-1.23,4.16c-.53,1.31-1.15,2.54-1.7,3.74s-1.08,2.43-1.57,3.67q-1.5,3.71-2.63,7.55c-.78,2.54-1.29,5.19-2.2,7.84a21.79,21.79,0,0,1-1.73,3.85c-.69,1.21-1.46,2.34-2.19,3.47-1.46,2.23-2.9,4.49-3.19,7A11.3,11.3,0,0,0,402,302a27.8,27.8,0,0,0,5.32,5.88A16.73,16.73,0,0,1,410,311a11.9,11.9,0,0,1,1.57,3.86,36,36,0,0,1,.54,8.15,42.61,42.61,0,0,1-3.78,15.72l0,0A42,42,0,0,0,411.63,323a34.75,34.75,0,0,0-.75-8,11.09,11.09,0,0,0-1.56-3.57,16.16,16.16,0,0,0-2.66-2.9c-1-.89-2-1.76-3-2.73a19.22,19.22,0,0,1-2.66-3.22,12.66,12.66,0,0,1-2.13-8.1c.27-2.94,1.81-5.44,3.21-7.73a28.66,28.66,0,0,0,3.53-7c.77-2.49,1.22-5.18,2-7.83s1.52-5.25,2.47-7.82c.48-1.29,1-2.56,1.52-3.82s1.1-2.48,1.54-3.69a12,12,0,0,0,.82-7.15,11.41,11.41,0,0,0-1.4-3.31c-.6-1.05-1.49-2.08-2.24-3.46a6.35,6.35,0,0,1-.8-2.51,5.52,5.52,0,0,1,.54-2.73,28.79,28.79,0,0,1,2.3-3.66l4.55-6.7c.73-1.05,1.3-2.15,1.17-2.53a6,6,0,0,0-1.54-2.45Z" transform="translate(-316.39 -146.49)"/><path class="cls-3" d="M408.09,220.81a38.47,38.47,0,0,0,3.59,6.74c.7,1,1.57,2,2.42,3.09a19.84,19.84,0,0,1,1.26,1.81,8.76,8.76,0,0,1,1,2.17,15.6,15.6,0,0,1-.09,8.76c-.72,2.73-1.74,5.18-2.52,7.68a26.92,26.92,0,0,1-3.5,7.61c-.84,1.17-1.75,2.17-2.56,3.17a10.05,10.05,0,0,0-1.84,3c-.68,2,.41,4.4,1.76,6.58s3,4.35,4.12,7a23.93,23.93,0,0,1,1.37,8.12c0,.6.17,1.25.22,2a5.26,5.26,0,0,1,0,1.18,3.37,3.37,0,0,1-.52,1.2c-.38.62-.8,1.14-1.09,1.64a1.65,1.65,0,0,0-.25.59,3.15,3.15,0,0,0,.22.66,64.88,64.88,0,0,1,2.48,7.68,28.53,28.53,0,0,1,.9,8.08,18,18,0,0,1-2.12,7.84l-3.49,7.19c-1.33,2.45-3.61,4-5.11,6.18s-1.92,4.91-2.18,7.54H402c.19-2.63.49-5.41,2-7.71s3.73-3.93,4.89-6.25l3.29-7.3a17.24,17.24,0,0,0,1.81-7.52,26.8,26.8,0,0,0-1.1-7.73,61.2,61.2,0,0,0-2.63-7.46l-.19-.46a1.69,1.69,0,0,1-.16-.78,2.93,2.93,0,0,1,.4-1.28c.37-.66.78-1.19,1.08-1.71.61-.71.13-2,0-3.42a23,23,0,0,0-1.46-7.53c-1-2.27-2.69-4.34-4.17-6.63a17.59,17.59,0,0,1-2-3.76,7.51,7.51,0,0,1-.26-4.63,12.5,12.5,0,0,1,2.16-3.86c.84-1.09,1.7-2.09,2.38-3.11a24.19,24.19,0,0,0,2.94-7c.73-2.61,1.69-5.13,2.25-7.58a12.44,12.44,0,0,0,0-7c-.61-2-2.63-3.73-4.36-6a41.56,41.56,0,0,1-4.14-7.23Z" transform="translate(-316.39 -146.49)"/><path class="cls-4" d="M431.43,247l-49.94-.15s6.55,35.82,6.55,36v.22h0c.2,2.68,2.05,5.33,5.59,7.37,7.48,4.32,19.56,4.34,27,.05,3.84-2.22,5.67-5.15,5.52-8.06h0Z" transform="translate(-316.39 -146.49)"/><path class="cls-5" d="M421,286.05c-7.63,4.41-19.91,4.13-27.73-.05-1.75-.94-5.26-3.17-6.38-9.39.14.79,1.12,6.2,1.12,6.22v.22h0c.2,2.68,2.05,5.33,5.59,7.37,7.48,4.32,19.56,4.34,27,.05,3.8-2.2,5.63-5.1,5.52-8-.15.35.75-4.62.63-4.24A12.91,12.91,0,0,1,421,286.05Z" transform="translate(-316.39 -146.49)"/><path class="cls-6" d="M393.3,287c7.82,4.18,20.1,4.45,27.73,0a12.68,12.68,0,0,0,5.49-7c.17-1,.32-1.93.27-1.76a12.91,12.91,0,0,1-5.76,7.81c-7.63,4.41-19.91,4.13-27.73-.05-1.75-.94-5.26-3.17-6.38-9.39l.61,3.37A11.66,11.66,0,0,0,393.3,287Z" transform="translate(-316.39 -146.49)"/><path class="cls-7" d="M435.09,242.43l-4.94,0a23,23,0,0,0-3.33-2.33c-10.95-6.32-28.65-6.35-39.54-.07a22.07,22.07,0,0,0-3.93,2.88l-4.17,0v7.22h0c.29,3.91,3,7.79,8.2,10.79,10.95,6.33,28.65,6.36,39.53.08,5.63-3.25,8.31-7.55,8.09-11.82h0Z" transform="translate(-316.39 -146.49)"/><ellipse class="cls-8" cx="407.11" cy="242.43" rx="16.14" ry="27.96" transform="translate(-153.92 501.73) rotate(-89.69)"/><path class="cls-9" d="M426.82,231.06a39.21,39.21,0,0,0-17.17-4.69,38.46,38.46,0,0,1,16.57,4.6c10.81,6.24,10.86,16.32.12,22.52s-28.21,6.17-39-.07c-6-3.46-8.67-8.1-8-12.61-.76,4.63,2,9.44,8.13,13,10.95,6.32,28.65,6.35,39.53.07S437.77,237.38,426.82,231.06Z" transform="translate(-316.39 -146.49)"/><path class="cls-10" d="M423.35,233.06c-9-5.21-23.61-5.24-32.58-.06s-8.92,13.6.1,18.81,23.61,5.23,32.58.06S432.37,238.27,423.35,233.06Z" transform="translate(-316.39 -146.49)"/><path class="cls-11" d="M425.93,248.84a5.07,5.07,0,0,0,1.93-4.1c-.05-.8-.89,0-1.41.2a8.29,8.29,0,0,1-2.72.67c-.86,0-1.73-.12-2.58,0a7.84,7.84,0,0,0-1.75.59l-5.74,2.49a13.29,13.29,0,0,1-3.85,1.22c-.94.1-1.88,0-2.82,0a4.32,4.32,0,0,0-2.62.85,1.36,1.36,0,0,1-.66.41c-.49.06-.78-.49-1-.93s-.67-.93-1.09-.68c-.16.72-.85,1.18-1.49,1.56-1,.61-2.1,1.1-3.06,1.77,1.71.13,3.38.51,5.07.78,6.27,1,13,1,18.74-1.8A21.29,21.29,0,0,0,425.93,248.84Z" transform="translate(-316.39 -146.49)"/><path class="cls-12" d="M390.77,236.13c9-5.17,23.56-5.15,32.58.06,3.83,2.22,6,5,6.63,7.89.79-3.92-1.41-8-6.63-11-9-5.21-23.61-5.24-32.58-.06-5.15,3-7.32,7-6.52,10.91C384.83,241.07,387,238.31,390.77,236.13Z" transform="translate(-316.39 -146.49)"/><path class="cls-13" d="M401.31,252.31c0,.5-.57.82-1.2.72a1.22,1.22,0,0,1-1.1-1.11,1,1,0,0,1,1.21-.72A1.21,1.21,0,0,1,401.31,252.31Z" transform="translate(-316.39 -146.49)"/><path class="cls-14" d="M401.15,252c0,.32-.42.52-.9.44s-.84-.41-.82-.73.42-.51.89-.43S401.17,251.72,401.15,252Z" transform="translate(-316.39 -146.49)"/><path class="cls-13" d="M395.34,250.7a1.64,1.64,0,0,1-.32-2c.34-.78,1-1.16,1.54-.84a1.61,1.61,0,0,1,.32,2C396.55,250.64,395.86,251,395.34,250.7Z" transform="translate(-316.39 -146.49)"/><path class="cls-14" d="M395.67,250.63c-.32-.2-.38-.84-.13-1.42s.73-.9,1-.7.39.84.13,1.42S396,250.83,395.67,250.63Z" transform="translate(-316.39 -146.49)"/><path class="cls-13" d="M400.39,248.79a1.35,1.35,0,0,1-.94,1.6,1.3,1.3,0,0,1-1.73-.61,1.35,1.35,0,0,1,.95-1.6A1.29,1.29,0,0,1,400.39,248.79Z" transform="translate(-316.39 -146.49)"/><path class="cls-14" d="M400.09,248.58c.13.39-.2.87-.76,1.07s-1.11.06-1.25-.33.21-.86.76-1.06S400,248.2,400.09,248.58Z" transform="translate(-316.39 -146.49)"/><path class="cls-13" d="M398.45,246.78c.08-.51.67-.77,1.31-.59a1.28,1.28,0,0,1,1,1.25c-.08.51-.67.77-1.32.59A1.27,1.27,0,0,1,398.45,246.78Z" transform="translate(-316.39 -146.49)"/><path class="cls-14" d="M398.59,247.06c.05-.32.49-.47,1-.33s.84.51.79.84-.49.47-1,.33S398.54,247.39,398.59,247.06Z" transform="translate(-316.39 -146.49)"/><path class="cls-13" d="M389.12,248.87a1.2,1.2,0,0,1,.52-1.52,1,1,0,0,1,1.48.17,1.2,1.2,0,0,1-.51,1.51A1,1,0,0,1,389.12,248.87Z" transform="translate(-316.39 -146.49)"/><path class="cls-14" d="M389.4,249c-.17-.29,0-.76.44-1s.89-.27,1.06,0,0,.76-.44,1S389.57,249.28,389.4,249Z" transform="translate(-316.39 -146.49)"/><path class="cls-13" d="M395.74,244.85c.44-.11.94.38,1.13,1.08s0,1.37-.46,1.48-.94-.38-1.13-1.08S395.3,245,395.74,244.85Z" transform="translate(-316.39 -146.49)"/><path class="cls-14" d="M395.59,245.1c.27-.07.61.3.75.83s0,1-.25,1.09-.62-.31-.76-.84S395.31,245.17,395.59,245.1Z" transform="translate(-316.39 -146.49)"/><path class="cls-13" d="M388.19,248.16c-.37.26-1,0-1.34-.64s-.37-1.33,0-1.59,1,0,1.34.64S388.55,247.9,388.19,248.16Z" transform="translate(-316.39 -146.49)"/><path class="cls-14" d="M388.26,247.87c-.24.16-.65-.08-.93-.54s-.31-1-.08-1.14.65.08.93.54S388.49,247.7,388.26,247.87Z" transform="translate(-316.39 -146.49)"/><path class="cls-13" d="M391.74,243.49c0,.46-.46.79-1,.75a1.06,1.06,0,0,1-1-.91c0-.46.45-.79,1-.75A1.07,1.07,0,0,1,391.74,243.49Z" transform="translate(-316.39 -146.49)"/><path class="cls-14" d="M391.58,243.27c0,.29-.35.5-.78.46s-.78-.3-.78-.59.35-.49.78-.46S391.57,243,391.58,243.27Z" transform="translate(-316.39 -146.49)"/><path class="cls-13" d="M388,241.22a1.54,1.54,0,0,1,.21,1.88c-.35.71-1,1-1.49.69a1.51,1.51,0,0,1-.21-1.87C386.89,241.21,387.56,240.9,388,241.22Z" transform="translate(-316.39 -146.49)"/><path class="cls-14" d="M387.71,241.27c.3.2.33.8.06,1.34s-.72.79-1,.59-.32-.81-.06-1.34S387.41,241.06,387.71,241.27Z" transform="translate(-316.39 -146.49)"/><path class="cls-13" d="M403.76,248.09c.45-.24,1.1.17,1.46.91s.27,1.53-.18,1.77-1.1-.16-1.45-.9S403.31,248.33,403.76,248.09Z" transform="translate(-316.39 -146.49)"/><path class="cls-14" d="M403.65,248.41c.29-.16.73.17,1,.73s.24,1.13,0,1.28-.73-.17-1-.73S403.37,248.56,403.65,248.41Z" transform="translate(-316.39 -146.49)"/><path class="cls-13" d="M394.12,249.56c-.3.43-1,.35-1.56-.17a1.43,1.43,0,0,1-.48-1.7c.29-.43,1-.35,1.55.17A1.44,1.44,0,0,1,394.12,249.56Z" transform="translate(-316.39 -146.49)"/><path class="cls-14" d="M394.1,249.22c-.19.27-.68.17-1.11-.21s-.61-.93-.42-1.2.68-.17,1.1.22S394.29,249,394.1,249.22Z" transform="translate(-316.39 -146.49)"/><path class="cls-13" d="M390,247.16a1.66,1.66,0,0,1-.61-1.95c.21-.85.84-1.37,1.39-1.14a1.66,1.66,0,0,1,.62,2C391.14,246.87,390.52,247.38,390,247.16Z" transform="translate(-316.39 -146.49)"/><path class="cls-14" d="M390.28,247c-.35-.14-.51-.78-.34-1.42s.57-1.05.93-.91.5.78.34,1.42S390.63,247.17,390.28,247Z" transform="translate(-316.39 -146.49)"/><path class="cls-13" d="M404.61,252.42a.9.9,0,0,1-1,.86,1.07,1.07,0,0,1-1.13-.86c0-.48.42-.86,1-.86A1.07,1.07,0,0,1,404.61,252.42Z" transform="translate(-316.39 -146.49)"/><path class="cls-14" d="M404.43,252.2c0,.3-.32.55-.77.54s-.82-.24-.84-.54.32-.55.77-.55S404.41,251.9,404.43,252.2Z" transform="translate(-316.39 -146.49)"/><path class="cls-13" d="M402.71,252.37c-.23.36-.8.32-1.28-.08a1.2,1.2,0,0,1-.45-1.4c.23-.36.81-.32,1.29.09A1.18,1.18,0,0,1,402.71,252.37Z" transform="translate(-316.39 -146.49)"/><path class="cls-14" d="M402.69,252.09c-.15.23-.56.17-.92-.14s-.53-.74-.38-1,.55-.17.91.14S402.84,251.86,402.69,252.09Z" transform="translate(-316.39 -146.49)"/><path class="cls-13" d="M394.36,245.18a1,1,0,0,1-1,1.1,1.14,1.14,0,0,1-1.34-.79,1,1,0,0,1,1-1.11A1.16,1.16,0,0,1,394.36,245.18Z" transform="translate(-316.39 -146.49)"/><path class="cls-14" d="M394.14,245c.05.33-.29.65-.78.72s-.93-.16-1-.49.29-.66.77-.72S394.08,244.63,394.14,245Z" transform="translate(-316.39 -146.49)"/><path class="cls-13" d="M405.87,252.74a1.26,1.26,0,0,1,.18,1.57c-.3.6-.87.86-1.26.58a1.26,1.26,0,0,1-.17-1.57C404.92,252.72,405.48,252.46,405.87,252.74Z" transform="translate(-316.39 -146.49)"/><path class="cls-14" d="M405.61,252.77c.25.18.27.68,0,1.13s-.61.67-.86.49-.27-.68,0-1.12S405.36,252.6,405.61,252.77Z" transform="translate(-316.39 -146.49)"/><path class="cls-13" d="M398.2,250a1.38,1.38,0,0,1,.47,1.64c-.2.71-.74,1.12-1.2.92a1.38,1.38,0,0,1-.47-1.64C397.2,250.23,397.74,249.82,398.2,250Z" transform="translate(-316.39 -146.49)"/><path class="cls-14" d="M397.93,250.12c.29.13.4.66.25,1.19s-.5.86-.8.73-.4-.66-.25-1.19S397.64,250,397.93,250.12Z" transform="translate(-316.39 -146.49)"/><path class="cls-13" d="M403.07,247.79a1.46,1.46,0,0,1-.51,1.84,1.19,1.19,0,0,1-1.76-.1,1.46,1.46,0,0,1,.51-1.84A1.19,1.19,0,0,1,403.07,247.79Z" transform="translate(-316.39 -146.49)"/><path class="cls-14" d="M402.74,247.67c.22.34,0,.91-.46,1.27s-1,.38-1.25,0,0-.9.46-1.27S402.52,247.33,402.74,247.67Z" transform="translate(-316.39 -146.49)"/><ellipse class="cls-13" cx="387.71" cy="244.49" rx="0.86" ry="1.4" transform="translate(-377.77 6.26) rotate(-20.69)"/><path class="cls-14" d="M387.07,243.47c.28-.12.68.22.89.76s.16,1.08-.12,1.2-.68-.23-.89-.77S386.79,243.59,387.07,243.47Z" transform="translate(-316.39 -146.49)"/><path class="cls-13" d="M424.43,247.88a1,1,0,0,1-.4,1.38,1.22,1.22,0,0,1-1.58-.07,1,1,0,0,1,.4-1.38A1.22,1.22,0,0,1,424.43,247.88Z" transform="translate(-316.39 -146.49)"/><path class="cls-14" d="M424.13,247.8c.21.25,0,.67-.37.94s-.92.29-1.12,0,0-.68.37-.95S423.92,247.54,424.13,247.8Z" transform="translate(-316.39 -146.49)"/><path class="cls-13" d="M418.84,250.82c-.6.12-1.32-.45-1.61-1.27s0-1.57.57-1.69,1.33.44,1.62,1.26S419.45,250.7,418.84,250.82Z" transform="translate(-316.39 -146.49)"/><path class="cls-14" d="M419.05,250.54c-.39.07-.87-.36-1.09-1s-.08-1.17.3-1.25.87.36,1.09,1S419.43,250.46,419.05,250.54Z" transform="translate(-316.39 -146.49)"/><path class="cls-13" d="M421.31,245.89a1.36,1.36,0,0,1,.39,1.85,1.33,1.33,0,0,1-1.71.74,1.37,1.37,0,0,1-.4-1.85A1.32,1.32,0,0,1,421.31,245.89Z" transform="translate(-316.39 -146.49)"/><path class="cls-14" d="M420.93,245.94a1,1,0,0,1,.18,1.33c-.27.53-.79.81-1.16.62a1,1,0,0,1-.18-1.33C420,246,420.56,245.75,420.93,245.94Z" transform="translate(-316.39 -146.49)"/><path class="cls-13" d="M418.46,245.72c-.3-.43,0-1,.57-1.35a1.31,1.31,0,0,1,1.64.23c.29.44,0,1-.58,1.35A1.29,1.29,0,0,1,418.46,245.72Z" transform="translate(-316.39 -146.49)"/><path class="cls-14" d="M418.76,245.84c-.19-.28,0-.69.5-.92s1-.2,1.16.08,0,.69-.49.92S418.94,246.12,418.76,245.84Z" transform="translate(-316.39 -146.49)"/><path class="cls-13" d="M412.91,253.76a1.24,1.24,0,0,1-.67-1.49,1.05,1.05,0,0,1,1.23-.91,1.25,1.25,0,0,1,.67,1.5A1,1,0,0,1,412.91,253.76Z" transform="translate(-316.39 -146.49)"/><path class="cls-14" d="M413.2,253.66a.89.89,0,0,1-.39-1.09c.11-.5.48-.82.81-.72s.5.59.39,1.09S413.53,253.76,413.2,253.66Z" transform="translate(-316.39 -146.49)"/><path class="cls-13" d="M415.09,246.16c.25-.38,1-.37,1.59,0s.93,1,.68,1.42-1,.38-1.59,0S414.83,246.55,415.09,246.16Z" transform="translate(-316.39 -146.49)"/><path class="cls-14" d="M415.14,246.45c.16-.24.67-.2,1.15.1s.72.75.56,1-.67.2-1.15-.1S415,246.69,415.14,246.45Z" transform="translate(-316.39 -146.49)"/><path class="cls-13" d="M411.72,253.88c-.1.45-.75.65-1.45.45s-1.2-.74-1.1-1.19.74-.66,1.44-.45S411.81,253.43,411.72,253.88Z" transform="translate(-316.39 -146.49)"/><path class="cls-14" d="M411.57,253.61c-.06.29-.54.4-1.07.24s-.91-.51-.85-.8.54-.39,1.07-.24S411.63,253.33,411.57,253.61Z" transform="translate(-316.39 -146.49)"/><path class="cls-13" d="M411.14,247.92a.87.87,0,0,1-.25,1.27,1.09,1.09,0,0,1-1.42,0,.88.88,0,0,1,.26-1.27A1.08,1.08,0,0,1,411.14,247.92Z" transform="translate(-316.39 -146.49)"/><path class="cls-14" d="M410.87,247.86c.2.22.08.61-.26.88a.78.78,0,0,1-1,.1c-.2-.21-.08-.61.26-.88A.8.8,0,0,1,410.87,247.86Z" transform="translate(-316.39 -146.49)"/><path class="cls-13" d="M406.79,248.79c.58-.08,1.23.48,1.45,1.26s-.05,1.47-.63,1.55-1.23-.48-1.46-1.26S406.21,248.87,406.79,248.79Z" transform="translate(-316.39 -146.49)"/><path class="cls-14" d="M406.58,249c.37,0,.8.38,1,1s0,1.1-.35,1.15-.81-.37-1-1S406.21,249.09,406.58,249Z" transform="translate(-316.39 -146.49)"/><path class="cls-13" d="M423.35,243c.17-.49.94-.64,1.72-.33s1.27,1,1.1,1.46-.94.64-1.72.33S423.18,243.51,423.35,243Z" transform="translate(-316.39 -146.49)"/><path class="cls-14" d="M423.48,243.34c.11-.32.67-.38,1.26-.15s1,.68.86,1-.67.38-1.25.15S423.38,243.65,423.48,243.34Z" transform="translate(-316.39 -146.49)"/><path class="cls-13" d="M417.14,250.82c.07.52-.51,1-1.29,1s-1.47-.42-1.54-.94.5-1,1.28-1S417.07,250.3,417.14,250.82Z" transform="translate(-316.39 -146.49)"/><path class="cls-14" d="M416.89,250.58c0,.33-.39.6-1,.6s-1.1-.27-1.15-.6.4-.6,1-.6S416.84,250.24,416.89,250.58Z" transform="translate(-316.39 -146.49)"/><path class="cls-13" d="M412.35,251.9c-.57.22-1.38-.25-1.81-1s-.32-1.6.25-1.82,1.39.24,1.82,1S412.92,251.68,412.35,251.9Z" transform="translate(-316.39 -146.49)"/><path class="cls-14" d="M412.5,251.58c-.36.14-.92-.23-1.24-.82s-.29-1.19.07-1.33.92.23,1.24.83S412.86,251.44,412.5,251.58Z" transform="translate(-316.39 -146.49)"/><path class="cls-13" d="M427,245.68a.93.93,0,0,1-.16,1.35,1.1,1.1,0,0,1-1.45.14.93.93,0,0,1,.16-1.35A1.1,1.1,0,0,1,427,245.68Z" transform="translate(-316.39 -146.49)"/><path class="cls-14" d="M426.7,245.64c.23.21.14.63-.2.94a.78.78,0,0,1-1,.17c-.22-.21-.14-.63.2-.94A.8.8,0,0,1,426.7,245.64Z" transform="translate(-316.39 -146.49)"/><path class="cls-13" d="M425.53,247c.08.43-.38.8-1,.83s-1.23-.3-1.31-.74.38-.8,1-.83S425.45,246.53,425.53,247Z" transform="translate(-316.39 -146.49)"/><path class="cls-14" d="M425.32,246.76c.05.28-.3.52-.79.54s-.91-.19-1-.46.3-.52.78-.54S425.27,246.49,425.32,246.76Z" transform="translate(-316.39 -146.49)"/><path class="cls-13" d="M414.28,247.37a1.06,1.06,0,0,1,0,1.52,1.18,1.18,0,0,1-1.56.33,1.06,1.06,0,0,1,0-1.53A1.18,1.18,0,0,1,414.28,247.37Z" transform="translate(-316.39 -146.49)"/><path class="cls-14" d="M414,247.35c.27.21.23.69-.09,1.08s-.8.53-1.07.32-.24-.7.08-1.08A.84.84,0,0,1,414,247.35Z" transform="translate(-316.39 -146.49)"/><path class="cls-13" d="M428.16,245c.48-.06,1,.41,1.22,1.07s-.06,1.23-.54,1.3-1-.41-1.23-1.06S427.67,245.11,428.16,245Z" transform="translate(-316.39 -146.49)"/><path class="cls-14" d="M428,245.25c.31,0,.67.32.81.82s0,.92-.3,1-.67-.32-.81-.81S427.67,245.3,428,245.25Z" transform="translate(-316.39 -146.49)"/><path class="cls-13" d="M420.51,248.33c.49-.17,1.16.24,1.5.91s.22,1.34-.26,1.51-1.16-.24-1.5-.9S420,248.5,420.51,248.33Z" transform="translate(-316.39 -146.49)"/><path class="cls-14" d="M420.38,248.59c.31-.1.77.22,1,.72s.22,1-.09,1.1-.76-.21-1-.71S420.07,248.7,420.38,248.59Z" transform="translate(-316.39 -146.49)"/><path class="cls-13" d="M422.62,243.27a1.49,1.49,0,0,1,.89,1.74c-.14.8-.76,1.31-1.38,1.15a1.48,1.48,0,0,1-.89-1.74A1.22,1.22,0,0,1,422.62,243.27Z" transform="translate(-316.39 -146.49)"/><path class="cls-14" d="M422.29,243.42c.4.1.64.67.53,1.27s-.5,1-.9.9-.64-.67-.54-1.27S421.89,243.31,422.29,243.42Z" transform="translate(-316.39 -146.49)"/><ellipse class="cls-13" cx="408.81" cy="251.46" rx="0.88" ry="1.43" transform="translate(-315.18 358.39) rotate(-63.47)"/><path class="cls-14" d="M407.63,251.14c.12-.28.66-.3,1.19,0s.87.7.74,1-.66.3-1.19.05S407.5,251.42,407.63,251.14Z" transform="translate(-316.39 -146.49)"/><path class="cls-15" d="M436.91,217c.24-2.15-6.84-7.8-9.06-9.32s-13.26,3-13.26,3-7.32,34.45-7.09,35.16a24.66,24.66,0,0,1,.06,3.59,21.87,21.87,0,0,0,3-.9l.07,0,.63-.23h0c.5-.56-.84-1.71,0-2.1l2.83-1.65,4.55-2.3s4.61-5,6.61-6.11,5.61-2.85,5.61-2.85l2.39-8.91S436.68,219.07,436.91,217Z" transform="translate(-316.39 -146.49)"/><path class="cls-16" d="M436.52,215.78c.24-2.15-6.83-7.8-9-9.32s-13.26,3-13.26,3-7.32,34.45-7.09,35.16a26.22,26.22,0,0,1,.06,3.59,23.82,23.82,0,0,0,3-.9l.06,0,.63-.23h.05c.49-.56-.84-1.71,0-2.11l2.83-1.64,4.55-2.3s4.6-5,6.6-6.11,5.61-2.86,5.61-2.86l2.4-8.91S436.29,217.87,436.52,215.78Z" transform="translate(-316.39 -146.49)"/><path class="cls-17" d="M431.33,211.33s-3.91-4.38-5.95-4.33-8.73,2.17-8.73,2.17,1.59,8.7,3.75,9.17,1.42-1.91,1.42-1.91S426.37,212.37,431.33,211.33Z" transform="translate(-316.39 -146.49)"/><path class="cls-18" d="M431.1,212a31.07,31.07,0,0,0-5,5.36c-1.41,2.3.23,1.72-1.66,4.25a24.75,24.75,0,0,0-2.63,4.21l-5.67,1.83,7.48-11.21S429.24,212.49,431.1,212Z" transform="translate(-316.39 -146.49)"/><path class="cls-19" d="M431.1,212s-5.56,4.17-6.14,6-6.09,6.65-6.16,8.26-.55,4.54-.55,4.54a27,27,0,0,1-.4-5.91c.24-2.43,3.73-7.81,4.35-8.15A27.77,27.77,0,0,1,431.1,212Z" transform="translate(-316.39 -146.49)"/><path class="cls-20" d="M406,245.89c.28-1-.41-2.66-.58-3.53-.51-2.65-1-5.28-1.59-7.91q-1.19-5.72-2.39-11.42c-.75-3.5-1.9-7.05-1.79-10.76a2.34,2.34,0,0,0-.38-1.7c-.66-.67-1.93-.14-2.86-.4s-1.49-1.46-2.47-1.85a4.23,4.23,0,0,0-2.88.33,12.35,12.35,0,0,0-5,2.85c-.68.73-1.21,1.58-1.89,2.31a40.7,40.7,0,0,1-3.21,2.62,9.79,9.79,0,0,0-3.49,8.56,3.93,3.93,0,0,0,.51,1.69,3.74,3.74,0,0,0,1.36,1.23c1.94,1,1.89,3.13,2.13,4.42.14.81,0,1.7.09,2.51.27,1.69,1.59,1.55,3,2.34l5,2.82a3.53,3.53,0,0,1,1.21.95,17.67,17.67,0,0,1,.8,2.15c.79,1.59,2.89,1.77,4.73,1.73a3.23,3.23,0,0,1,2,.36,2.81,2.81,0,0,1,.73,1c.53.92,1,2.48,1.94,3a7.44,7.44,0,0,0,2.62.7,9,9,0,0,0,2.84-.29A19.58,19.58,0,0,1,406,245.89Z" transform="translate(-316.39 -146.49)"/><path class="cls-21" d="M407,246.55c.27-1-.42-2.69-.59-3.58q-.78-4-1.61-8-1.2-5.81-2.43-11.6c-.75-3.56-1.92-7.19-1.8-10.89a2.5,2.5,0,0,0-.38-1.73c-.67-.73-2-.3-2.9-.62s-1.51-1.58-2.5-2a4.22,4.22,0,0,0-2.92.11,11.48,11.48,0,0,0-5,2.47c-.68.67-1.22,1.49-1.9,2.16a36.09,36.09,0,0,1-3.25,2.38,10.09,10.09,0,0,0-3.85,8.75,4.25,4.25,0,0,0,.52,1.73,5.5,5.5,0,0,0,1.38,1.34,5.29,5.29,0,0,1,2.28,3c.15.82,0,1.7.1,2.52.27,1.71,1.78,2.77,3.19,3.66l5,3.2a4,4,0,0,1,1.22,1,18.18,18.18,0,0,1,.81,2.21c.8,1.65,2.92,2,4.78,2.09a3.5,3.5,0,0,1,2,.51,3.15,3.15,0,0,1,.74,1c.54,1,1,2.56,2,3.19a8.24,8.24,0,0,0,2.65.9,8.86,8.86,0,0,0,2.87-.07A19.75,19.75,0,0,1,407,246.55Z" transform="translate(-316.39 -146.49)"/><path class="cls-20" d="M401.24,215.52a2.49,2.49,0,0,0-.14-.62,6.78,6.78,0,0,0-1.25-1.94c-.88-1.08-1.2-.57-2.58-.73a5.88,5.88,0,0,0-2.07.27c-1.81.46-4.51-.6-5.67.87a8.1,8.1,0,0,1-.7.85,4.21,4.21,0,0,1-1.13.65,17.15,17.15,0,0,0-3.64,2.32,4.94,4.94,0,0,0-1.57,1.92,7.49,7.49,0,0,0-.28,2.72,7.65,7.65,0,0,0,.09,2c.53,2.12,3.06,3,4.31,4.8,1.11,1.6,1.14,3.84,2.49,5.25a9.46,9.46,0,0,0,3.72,1.86c.45.17,1.12.28,1.43.69.43.57-.15.89-.53,1.29a5.46,5.46,0,0,1-3.7,1.93,1.77,1.77,0,0,1,1.18.51c.39.37.34.91.4,1.43a6.71,6.71,0,0,0,.33,1.54,1.53,1.53,0,0,0,.28.46,2.69,2.69,0,0,0,.33.26,4.82,4.82,0,0,0,1.92.53c.7.14,1.4.28,2.09.46a4.16,4.16,0,0,1,2.49,1.94c.54.87.89,2,1.83,2.52a3.9,3.9,0,0,0,1.1.39c.7.18,1.38.31,1.74-.39a8.12,8.12,0,0,0,.46-1.62c.23-.92.47-1.85.64-2.79a3.1,3.1,0,0,0-.33-2,7.74,7.74,0,0,1-.57-2.12c-.22-1.71-.43-3.42-.64-5.13q-.86-6.81-1.7-13.64c-.17-1.35-.4-2.71-.51-4.06C401,217.08,401.32,216.34,401.24,215.52Z" transform="translate(-316.39 -146.49)"/><path class="cls-22" d="M383.3,222.16a12.22,12.22,0,0,1,4.11.22,13.66,13.66,0,0,0,4.36.55,29.21,29.21,0,0,1,2.73,4.25c1,2.08,2.24,5.07,2.67,5.52s1.25-.49,1.25-.49L396,226.8l-4.23-5.35s-4.29-4-8.84-5.3c6.1,3.56,8.23,5.94,8.23,5.94s-2.65-.32-4.81-.49A7.56,7.56,0,0,0,383.3,222.16Z" transform="translate(-316.39 -146.49)"/><path class="cls-22" d="M391.42,214.55a7.07,7.07,0,0,0-.92,3.28,2.59,2.59,0,0,1-1,1.74l.86.64a7.65,7.65,0,0,0,.53-2.53A5.61,5.61,0,0,1,391.42,214.55Z" transform="translate(-316.39 -146.49)"/><path class="cls-22" d="M383.84,227.19a68.74,68.74,0,0,1,9.91,1,15.14,15.14,0,0,1,2.42.82l-.43-1.41s-3-.88-3.14-.88S384.65,227,383.84,227.19Z" transform="translate(-316.39 -146.49)"/><path class="cls-23" d="M382.9,216.15a37,37,0,0,1,5.21,2.77c.42.28.86.58,1.28.89a17.58,17.58,0,0,1,5.19,6.17c2.53,4.44,4,9.29,6.51,11.33a37.44,37.44,0,0,1,4.52,4.45s-6.55-11.58-7.19-12.62C395,223.51,390.39,217.48,382.9,216.15Z" transform="translate(-316.39 -146.49)"/><path class="cls-23" d="M391.45,214.51a9.3,9.3,0,0,0-1.28,2.92,3.18,3.18,0,0,1-1,1.74l.86.64a5,5,0,0,0,.61-2.26A6.42,6.42,0,0,1,391.45,214.51Z" transform="translate(-316.39 -146.49)"/><path class="cls-23" d="M395.72,227a33.5,33.5,0,0,0-3.49-.34c-1.63,0-8.83.54-8.83.54s8.39-.15,9.55.23a23.89,23.89,0,0,0,2.86.69s1,.13.83-.53A1.13,1.13,0,0,0,395.72,227Z" transform="translate(-316.39 -146.49)"/><path class="cls-23" d="M391.09,221.79a21.81,21.81,0,0,1-3.55-.26,8.16,8.16,0,0,0-4.24.63,8.47,8.47,0,0,1,3.78-.22,32.54,32.54,0,0,0,5.24.57l-.58-.57C391.65,221.84,391.09,221.79,391.09,221.79Z" transform="translate(-316.39 -146.49)"/><path class="cls-16" d="M408.88,212.38a11.07,11.07,0,0,0-4.27-3.24,5.93,5.93,0,0,0-3.1-.7,6.36,6.36,0,0,0-2.69,1.15c-.82.52-1.61,1.08-2.37,1.67a6.43,6.43,0,0,1-1.82,1.31c-1.25.37-2.4.16-3.63.85a7.41,7.41,0,0,0-3.71,6.79c.12,2.17-1.88,3.94-1.88,3.94s-3.63.79-3.22,4.23a17.92,17.92,0,0,0,1.25,5.78,6.79,6.79,0,0,0,5.3,4,5.89,5.89,0,0,1,2,.33c1.37.64,1.58,2.46,2.31,3.79,1.34,2.44,4.43,3.21,7.17,3.74,2.18.41,4.45,1.12,6.63,1.37s7.4-5.58,6.72-8.75c-.81-3.82-1.12-7.79-1.6-11.65-.34-2.69-.67-5.37-1-8.06a14,14,0,0,0-1.67-5.91C409.15,212.77,409,212.57,408.88,212.38Z" transform="translate(-316.39 -146.49)"/><path class="cls-19" d="M405,217a17.94,17.94,0,0,1,.48-1.79,23.18,23.18,0,0,0,.74-2.32,6.67,6.67,0,0,0-.12-3.2,2.1,2.1,0,0,0-.72-1.19,2.23,2.23,0,0,0-.77-.29,9.67,9.67,0,0,0-7.5,1.44,17.81,17.81,0,0,0-1.91,1.56l-2.38,2.13a2.21,2.21,0,0,1-1.14.7,9,9,0,0,0-1.26.35,6.88,6.88,0,0,0-2.14,1.49,14.81,14.81,0,0,0-4.32,8.78,9.79,9.79,0,0,0,0,2.86,14.47,14.47,0,0,0,1,3,18.12,18.12,0,0,0,2.32,4.34,13.27,13.27,0,0,0,1.81,1.63,10.51,10.51,0,0,1,1.71,2.34c.92,1.48,1.52,3.18,2.72,4.44,1.78,1.86,4.52,2.39,7.08,2.65,1.24.13,2.49.22,3.73.26a3.54,3.54,0,0,0,1.71-.22,2.52,2.52,0,0,0,1.25-1.77,7.71,7.71,0,0,0,0-2.25q-.4-4.65-.6-9.31a55.18,55.18,0,0,0-1-10,24,24,0,0,1-.92-3.57A7.74,7.74,0,0,1,405,217Z" transform="translate(-316.39 -146.49)"/><path class="cls-24" d="M400.48,246c-.25,0-.51-.05-.76-.09-2.25-.29-4.6-.88-6.2-2.54-1.19-1.27-1.79-3-2.72-4.45a9.88,9.88,0,0,0-1.7-2.34,21.31,21.31,0,0,0-1.68-1.49,9.09,9.09,0,0,1-1.89-1.33l-1.43-1.5a10.89,10.89,0,0,1-.78-.88,6.85,6.85,0,0,1-1.36-5.23,7.17,7.17,0,0,1,1-2.68c.5-.79,1.39-1.36,1.81-2.13.51-.94.82-1.95,1.41-2.86a13.41,13.41,0,0,1,2.08-2.55,7,7,0,0,1,2.14-1.49,10.15,10.15,0,0,1,1.26-.35,2.28,2.28,0,0,0,1.14-.7c.79-.72,1.59-1.42,2.38-2.13a22,22,0,0,1,1.91-1.56,5,5,0,0,1,.66-.4,9.43,9.43,0,0,1,3.33-1.15,6,6,0,0,0-.72.82,2,2,0,0,0-.1.52,3.23,3.23,0,0,1,0,.47,3.94,3.94,0,0,1-.21.69,5,5,0,0,1-.68,1.31,11.13,11.13,0,0,1-2.42,2.27,33.9,33.9,0,0,1-4.69,3.22,8.07,8.07,0,0,0-2.39,1.64,23.38,23.38,0,0,0-1.91,2.4,9.14,9.14,0,0,0-1.29,2.19,7.58,7.58,0,0,0-.27,3,7.83,7.83,0,0,0,.45,2.5,7.22,7.22,0,0,0,1.4,2.13,6,6,0,0,1,1,1.88c.72,1.58,1.83,3,2.58,4.52.59,1.22.95,2.55,1.58,3.75a4.93,4.93,0,0,0,2.93,2.65,6.1,6.1,0,0,0,1.54.14l2.39,0C401.31,244.31,400.36,245.29,400.48,246Z" transform="translate(-316.39 -146.49)"/><path class="cls-25" d="M400.45,210.4a2.92,2.92,0,0,1-.43.22,6.81,6.81,0,0,1-2.14.66,5.93,5.93,0,0,0-1.28.07c-.33.14-.66.64-.91.89a17.55,17.55,0,0,1-4.7,3.58c-1.54.68-3.42,1-4.36,2.45a4.69,4.69,0,0,0-.6,1.46,12.73,12.73,0,0,1-1.28,3.66c-.6.89-1.54,1.6-1.77,2.66a3.78,3.78,0,0,0,.09,1.53,9.77,9.77,0,0,0,3.82,5.71,29.43,29.43,0,0,1,3.21,2.15c2.08,1.85,2.71,4.94,4.77,6.84a11,11,0,0,0,3,2.41,4.31,4.31,0,0,1,1.89,1.19c-2.25-.29-4.6-.88-6.2-2.54-1.19-1.27-1.79-3-2.72-4.45a9.88,9.88,0,0,0-1.7-2.34,21.31,21.31,0,0,0-1.68-1.49,9.09,9.09,0,0,1-1.89-1.33l-1.43-1.5a10.89,10.89,0,0,1-.78-.88,6.85,6.85,0,0,1-1.36-5.23,7.17,7.17,0,0,1,1-2.68c.5-.79,1.39-1.36,1.81-2.13.51-.94.82-1.95,1.41-2.86a13.41,13.41,0,0,1,2.08-2.55,7,7,0,0,1,2.14-1.49,10.15,10.15,0,0,1,1.26-.35,2.28,2.28,0,0,0,1.14-.7c.79-.72,1.59-1.42,2.38-2.13a22,22,0,0,1,1.91-1.56,5,5,0,0,1,.66-.4.39.39,0,0,0,0,.18h2.62a.62.62,0,0,1,.4.1C401.09,209.78,400.76,210.22,400.45,210.4Z" transform="translate(-316.39 -146.49)"/><path class="cls-20" d="M393,217.48l-.09.17a3.41,3.41,0,0,0-.6,1.84,6.66,6.66,0,0,0,.39,1.22,8.59,8.59,0,0,1,.09,1.12,18.33,18.33,0,0,0,1,2.54,16.56,16.56,0,0,1,.92,5.79,1.24,1.24,0,0,0,.08.58,2.37,2.37,0,0,0,.32.39,1.87,1.87,0,0,1,.21,1.71c-.17.57-.48,1.09-.67,1.66a6.32,6.32,0,0,0,.24,4.13c.46,1.32,1.15,2.56,1.63,3.88a5.85,5.85,0,0,1,.36,1.41,7.47,7.47,0,0,0,.09.94c.38,1.54,2.06,1.87,3.35,2.17a36.53,36.53,0,0,0,6.18.68q-2.54-7.52-5-15.05a46.49,46.49,0,0,1-1.75-6.52c-.39-2.25-.45-4.55-.72-6.82a8.37,8.37,0,0,1-.34-1.88c.07-.67.31-1.32.34-2a21.37,21.37,0,0,1,.32-4.45,2,2,0,0,0,.06-1.59c-.65.9-1.09,1.93-1.75,2.83a12.36,12.36,0,0,1-2.89,2.65c-.39.27-1.23.62-1.46,1-.12.21-.05.57-.1.81A3.66,3.66,0,0,1,393,217.48Z" transform="translate(-316.39 -146.49)"/><path class="cls-17" d="M421.85,233c-.49,1.63-5,4.87-5,4.87s-3,6.22-4.79,7.48a9.2,9.2,0,0,0-2.32,3.61,12.66,12.66,0,0,1-5.26.73l-.94-.15c-.47-.48,1.32-1,.89-1.37a2.48,2.48,0,0,1-1.05-2c0-.66-2-1.18-2-1.82s-.6-1.49-1.16-2.12l-.47-.53c-.89-1.11-1.77-2.23-2.66-3.35a8.82,8.82,0,0,1-1.14-1.65,4.49,4.49,0,0,1,0-4c.65-1.3,2-2.42,1.89-3.86a4.39,4.39,0,0,0-1.07-2.22,23.66,23.66,0,0,1-2.72-4.42,8.18,8.18,0,0,1-.64-5,6.6,6.6,0,0,1,2.65-3.8,6.3,6.3,0,0,0,2-1.6c.59-1,.23-2.19.23-3.31a5.35,5.35,0,0,1,3.64-4.79,11.61,11.61,0,0,1,5.68-.08,21,21,0,0,1,5.49-.88c3.53-.17,9.26,9,9.35,10s-.28,4.39,1.88,7.27S422.36,231.37,421.85,233Z" transform="translate(-316.39 -146.49)"/><path class="cls-26" d="M403.87,203.92s.85-.11,1-.1.21,2.91.23,3.41c.12,3.45-1.16-2.66-1.19-2.6a12.1,12.1,0,0,0-1,4.1c.15,2.1-.19,2.36.75,5s1.6,2.64,1.66,5.61a24.57,24.57,0,0,1,0,3.18s-2-2.1-3.3-3.72a36.6,36.6,0,0,0-4.9-4.28,12,12,0,0,0,1.07,3.05c.57.82,3.41,4.43,3.41,4.43s-2-.83-3.15-1.42l-1.14-.58a5.07,5.07,0,0,0,1.89,2.56,13.32,13.32,0,0,0,4.07,1.71l2.81,2.49a24.92,24.92,0,0,1,1.08,4.48,21.13,21.13,0,0,1-.48,3.61,6.39,6.39,0,0,1-3-1.5,45.66,45.66,0,0,1-4.15-5s-.18,2.41.54,3.53a12.58,12.58,0,0,0,3.12,4.06,8.19,8.19,0,0,0,3.32,1.86,8,8,0,0,0-2.63,1.47c-.67.79-1.72,5.18-1.72,5.18a3.26,3.26,0,0,0-1.5-2.72c-1.51-.84-4.66-5.15-4.66-6.37a6,6,0,0,1,1.94-4.49c1.58-1.43-.09-3.86-1.59-5.53a9.93,9.93,0,0,1-2.54-7.3c.19-3.14,3.23-5.1,4.4-5.61s.62-3,.73-4.62S401.32,203.92,403.87,203.92Z" transform="translate(-316.39 -146.49)"/><path class="cls-27" d="M404.87,203.82l-1,.1.13.67a32,32,0,0,0,.87,4.4,27.06,27.06,0,0,0,1.52,3.76s3.5-5.33,4.69-6.06c0,1.15-3.18,9-3.18,9a15,15,0,0,1,.74,2.77c.12,1.09.24,4.33.24,4.33s5.06-6.84,6.78-10.89a35.09,35.09,0,0,1-2.61,8.32,25.28,25.28,0,0,1-2.86,4.82l-.6.83v1.78l.4,2,2.64-1.48s2.39-4,2.95-5,1.07-2.19,1.07-2.19.37-.41-.18,2.69a30.06,30.06,0,0,1-1.88,6.19c-.08.16-3.84,3.19-3.84,3.19s.8,3.54-.65,5.74,2.66.21,2.66.21,6.78-3.15,8.15-6.52,3-4.23,3.25-9.29-1.33-3.33-1.76-6.42-.2-4.47-2.9-8-4.7-5.91-6.78-5.52-3.28,1-4.91,1A11.73,11.73,0,0,1,404.87,203.82Z" transform="translate(-316.39 -146.49)"/><path class="cls-28" d="M403.84,204.94a13.66,13.66,0,0,0-.21,7.05c1,3.22,2.2,4.37,2.27,7.1.06,2.06-.54,4.58.16,6.31,1.39,3.41,1.65,5.7,1.43,7.31-.25,1.87-1,5.16-.76,6.48s1.77.9,1.77.9l.64-7.12S408.65,220,408,219.12s-2.9-6.73-3.37-7.57A19.08,19.08,0,0,1,403.84,204.94Z" transform="translate(-316.39 -146.49)"/><path class="cls-28" d="M408.22,236.63s-4-.56-6-2.86a15.82,15.82,0,0,1-2.38-4.06,11.79,11.79,0,0,0,3.81,6.31,15.28,15.28,0,0,0,4.86,2Z" transform="translate(-316.39 -146.49)"/><path class="cls-28" d="M416.65,221.41s-2.22,6.6-3.53,7.91a9,9,0,0,1-3.53,1.88V233a19.27,19.27,0,0,0,3.77-2.64C415.4,228.14,416.59,221.55,416.65,221.41Z" transform="translate(-316.39 -146.49)"/><path class="cls-28" d="M410.9,207.34s-1,2.37-2,4.47a24.7,24.7,0,0,0-1.49,4.62l-1-1.77,1.85-3.58Z" transform="translate(-316.39 -146.49)"/><path class="cls-28" d="M397.4,215.1s6.16,6.92,10.76,12.12c.8.89.24.89.24.89A40.18,40.18,0,0,1,397.4,215.1Z" transform="translate(-316.39 -146.49)"/><path class="cls-28" d="M398.16,221.15a13.31,13.31,0,0,0,3,1.47,9.24,9.24,0,0,0,3.37.48l.75.78a10.61,10.61,0,0,1-7.13-2.73Z" transform="translate(-316.39 -146.49)"/><path class="cls-28" d="M415.66,212.21s-3.64,8.6-7.48,12.5a1.22,1.22,0,0,0,0,1.74S412.94,222.79,415.66,212.21Z" transform="translate(-316.39 -146.49)"/><path class="cls-19" d="M403.84,204.94s-.89,5.64,1,8.74a11.9,11.9,0,0,1,1.76,7.73,26.16,26.16,0,0,0,1.17,7.4c.7,2.82,1.36,4.42-.66,10.77-1.19,3.69,3,6.42,2.72,6.66s.24-7.59.57-10.72-1.31-6.38-1.65-10.54c-.56-6.92-.49-7.92-2-10.56C404.85,211.16,404.06,210.69,403.84,204.94Z" transform="translate(-316.39 -146.49)"/><path class="cls-19" d="M416.65,221.41s-2.22,5.49-3.53,6.8a9,9,0,0,1-3.53,1.88v1.82a21.16,21.16,0,0,0,3.92-2.44C414.63,228.39,416.59,221.55,416.65,221.41Z" transform="translate(-316.39 -146.49)"/><path class="cls-19" d="M408.22,235.69s-4-.56-6-2.86a27.84,27.84,0,0,1-2.38-3.22,8.39,8.39,0,0,0,3.33,5.21,19.62,19.62,0,0,0,5.34,2.24Z" transform="translate(-316.39 -146.49)"/><path class="cls-20" d="M422.19,230.59c-.48.51-13.26,14.4-17.71,19.14l-.94-.15c-.47-.48,1.32-1,.89-1.37a2.48,2.48,0,0,1-1.05-2c0-.66-2-1.18-2-1.82s-.6-1.49-1.16-2.12c0,0,1.07-3.54,2.25-4.3s3.55-2.32,3.55-2.32,5.13-2.33,6.08-2.67S421.91,230.64,422.19,230.59Z" transform="translate(-316.39 -146.49)"/><path class="cls-19" d="M406.23,240.1s-1.35,3.08-1.14,4.65a28.39,28.39,0,0,1,0,4.07c0,.52-2-.3-2-.3l-1.65.58,2.79,1s.84.53,3.5.43a5.55,5.55,0,0,0,1.6-.3c.75-.25,2-.82,2.53-.59s.1-1.15.1-1.15v-1.64l5.46-5.7.84-3.36a35.71,35.71,0,0,1-2.72,3.94,37.45,37.45,0,0,0-4.23,4.39c-.15.41-1.41,1.41-1.41,1.41l-1.25-1.41Z" transform="translate(-316.39 -146.49)"/><path class="cls-29" d="M413.05,245.19a.28.28,0,0,0-.13,0c-1,.36-3.6,5.05-4.24,4.42-.47-.47-4.45,2.32-5.15.25a2.27,2.27,0,0,1,0-.76c.07.56.17.69.27.05,1-7.1,3.29-6.87,3.29-6.87Z" transform="translate(-316.39 -146.49)"/><path class="cls-30" d="M428.83,243.32a7.62,7.62,0,0,1-4.47,2.37c-4.54.91-10.06-.7-11.31-.5l-5.93-2.88s-2.25-.23-3.29,6.87c-.1.64-.2.51-.27-.05.26-1.79,1.4-5.92,1.31-6-.47-.55-1.11,1.28-1.05.7,0,0,0-.06,0-.1a14.5,14.5,0,0,1,.89-3.87c.44-1.13,3.47-3.2,4.08-3.55,2.53-1.52,2.78-.48,5.76-2.82s7.64-2.9,7.64-2.9,6.47,2.42,7,4.82-.71,3.33.24,4.74C430,240.89,429.81,242.16,428.83,243.32Z" transform="translate(-316.39 -146.49)"/><path class="cls-17" d="M414,234.1s.49-1,3.32-1.77,4.85-1.5,4.85-1.5,6.22,2.13,6.63,4.56-.4,2.9-.16,3.91,1.53,1.41,0,3.8L423.14,239l3.77-.74-4.64.34-4.89-3.25,6.81-1.05-8.53.39Z" transform="translate(-316.39 -146.49)"/><path class="cls-18" d="M412.13,235l-.11,0-.94.29s1.58,0,2.34.12a7.11,7.11,0,0,1,2.73,1,36.05,36.05,0,0,1,2.91,2.3,17.61,17.61,0,0,0,4.43,2.15c.88.33,5.18,2.23,5.18,2.23L423.1,240a22.68,22.68,0,0,1-3.09-2.05c-1-.87-2.11-2.63-3.93-2.93A15.36,15.36,0,0,0,412.13,235Z" transform="translate(-316.39 -146.49)"/><path class="cls-19" d="M413.75,234.08a9.47,9.47,0,0,1,3.11.8c2,.75,3.54,2.92,4.6,3.55s7.21,4.67,7.21,4.67-4.12-2.11-7.21-3.65c-2.58-1.3-3.23-2.86-6-4.06a10.46,10.46,0,0,0-3.3-.41C412.31,234.53,412.54,234,413.75,234.08Z" transform="translate(-316.39 -146.49)"/><path class="cls-15" d="M428.83,243.32c-.41,1.08-3.09,2.76-6,3s-8.44-.5-9.42-1a3,3,0,0,0-.36-.18l-5.93-2.88s-2.25-.23-3.29,6.87c-.1.64-.2.51-.27-.05a19.27,19.27,0,0,1,.26-5.32s0-.06,0-.1q.07-.32.15-.6c1.67-5.92,6.4-.16,7.6.19s5.69,1.92,9.57,2S424.91,245.07,428.83,243.32Z" transform="translate(-316.39 -146.49)"/><path class="cls-19" d="M410.9,207.34s-2.31,2-4.71,6.95c-.53,1.08.57,1,.57,1A57.1,57.1,0,0,1,410.9,207.34Z" transform="translate(-316.39 -146.49)"/><path class="cls-19" d="M415.66,212.21s-5.41,10.6-7.5,11.38c-1.12.42-.92,2-.13,1.76C410.26,224.72,414.7,215.74,415.66,212.21Z" transform="translate(-316.39 -146.49)"/><path class="cls-19" d="M397.4,215s8.52,9.58,10.74,10.39c1.13.42.64,2.44.64,2.44S399.57,218.51,397.4,215Z" transform="translate(-316.39 -146.49)"/><path class="cls-19" d="M397.89,221a19,19,0,0,0,2.72,1.11,9.39,9.39,0,0,0,3.37.49l.76.77a12.35,12.35,0,0,1-3.58-.61A12.07,12.07,0,0,1,397.89,221Z" transform="translate(-316.39 -146.49)"/><path class="cls-17" d="M411.52,235.39a12.1,12.1,0,0,0-3.3,1.24,19.48,19.48,0,0,0-3.36,3s3-.09,3.33.21,2.89,2,2.89,2,.81,1.46,5.57,2.32,5.07,1.06,11.39-1c-6.37-2.5-6.74-2.95-6.74-2.95l-2.71,2.59,1.28-3a25.81,25.81,0,0,0-3.42-2.73,2.67,2.67,0,0,1-1.16-.9L411.73,240l2.61-4.41A11.88,11.88,0,0,0,411.52,235.39Z" transform="translate(-316.39 -146.49)"/><path class="cls-17" d="M431.33,211.33l.32.88a23.25,23.25,0,0,0-3.29,3.41c-.68,1.15-1.78,1.84-2,3.17a21.41,21.41,0,0,1-2.16,4.37l-.53,7.41s2.58,1.41,3.47,1.82,3-1.82,3-1.82a76.89,76.89,0,0,1,2-8c.62-1.34,3.6-6.14,3.6-6.77s-3.55-5.58-8.27-7.94C427,207.59,431.84,211.57,431.33,211.33Z" transform="translate(-316.39 -146.49)"/><g class="cls-31"><path class="cls-32" d="M515.2,202.55a16.1,16.1,0,0,0-2.61-2.13l-.27-.16c.75-12.75-.49-26.12-3.8-40.81a20.47,20.47,0,0,0,2.1-5.12l0-.15a7.26,7.26,0,0,0,.39-4,1.92,1.92,0,0,0-1.93-1.5,5.53,5.53,0,0,0-2.46.82l-.06,0a9.25,9.25,0,0,0-2.57,2,46.44,46.44,0,0,0-11.69-1.36,97.37,97.37,0,0,0-13.85,1.18,91.54,91.54,0,0,0-15.42,3.5l-1,.32a30.73,30.73,0,0,0-5.05,1.94,8,8,0,0,0-3.47-1.11,3.45,3.45,0,0,0-.57.05,2.31,2.31,0,0,0-1.6.94,3.86,3.86,0,0,0-.27,2.95,9.63,9.63,0,0,0,3.55,5.76,108.22,108.22,0,0,0,.51,14.22c.09,1,.17,2,.24,3a83.75,83.75,0,0,0,4.38,21,17.63,17.63,0,0,0-3.68,6.45,2.19,2.19,0,0,0,.3,1.95,3.75,3.75,0,0,0,2.89,1.19h.11a13.46,13.46,0,0,0,4.9-1.08,26,26,0,0,0,8.55,1.22c2.64,0,5.3-.24,7.65-.45l.76-.07a101,101,0,0,0,25.15-5.07c.24,0,.53,0,.84,0s.65,0,1,0,.67,0,1,0a6.94,6.94,0,0,0,1.07-.07l.65-.09c1.47-.19,3.29-.42,4.54-1.76C517,204.71,515.66,203,515.2,202.55Z" transform="translate(-316.39 -146.49)"/><path class="cls-33" d="M515.1,202.44a15.59,15.59,0,0,0-2.61-2.13l-.27-.16c.75-12.76-.49-26.12-3.8-40.81a20.44,20.44,0,0,0,2.09-5.12l.05-.15a7.38,7.38,0,0,0,.39-4,1.91,1.91,0,0,0-1.94-1.49,5.53,5.53,0,0,0-2.45.82l-.06,0a9.48,9.48,0,0,0-2.57,2.06,46,46,0,0,0-11.69-1.36,99,99,0,0,0-13.85,1.17A92.51,92.51,0,0,0,463,154.84l-1,.32a31.61,31.61,0,0,0-5,1.93,8,8,0,0,0-3.47-1.1,3.48,3.48,0,0,0-.57,0,2.35,2.35,0,0,0-1.6.95,3.86,3.86,0,0,0-.27,3,9.66,9.66,0,0,0,3.55,5.76,108.29,108.29,0,0,0,.51,14.22c.09,1,.17,2,.24,3.05a83.84,83.84,0,0,0,4.38,20.95,17.63,17.63,0,0,0-3.68,6.45,2.19,2.19,0,0,0,.3,1.95,3.69,3.69,0,0,0,2.89,1.18h.11a13.67,13.67,0,0,0,4.9-1.08,26,26,0,0,0,8.55,1.22c2.64,0,5.3-.24,7.65-.45l.76-.07a101,101,0,0,0,25.15-5.07,7.61,7.61,0,0,0,.84,0l1,0c.33,0,.67,0,1,0a8.47,8.47,0,0,0,1.07-.07c.21,0,.43-.06.65-.09,1.47-.19,3.29-.42,4.54-1.76C516.94,204.6,515.56,202.91,515.1,202.44Z" transform="translate(-316.39 -146.49)"/><path class="cls-34" d="M515,202.32a16,16,0,0,0-2.61-2.12,1.91,1.91,0,0,0-.27-.16c.75-12.76-.49-26.12-3.8-40.81a20.35,20.35,0,0,0,2.09-5.13l0-.15a7.34,7.34,0,0,0,.39-4,1.91,1.91,0,0,0-1.94-1.49,5.41,5.41,0,0,0-2.45.82l-.06,0a9.63,9.63,0,0,0-2.57,2.05,46.45,46.45,0,0,0-11.69-1.35,97.49,97.49,0,0,0-13.85,1.17,91.52,91.52,0,0,0-15.42,3.51l-1,.32a30.68,30.68,0,0,0-5.05,1.93,8,8,0,0,0-3.47-1.1,3.48,3.48,0,0,0-.57,0,2.32,2.32,0,0,0-1.6,1,3.86,3.86,0,0,0-.27,2.95,9.66,9.66,0,0,0,3.55,5.76A108.29,108.29,0,0,0,455,179.8c.09,1,.17,2,.24,3a83.84,83.84,0,0,0,4.38,21,17.63,17.63,0,0,0-3.68,6.45,2.19,2.19,0,0,0,.3,1.95,3.72,3.72,0,0,0,2.89,1.18h.11a13.55,13.55,0,0,0,4.89-1.07,26.14,26.14,0,0,0,8.56,1.22c2.64,0,5.3-.24,7.65-.46l.76-.06a101.43,101.43,0,0,0,25.15-5.07,7.61,7.61,0,0,0,.84,0l1,0c.33,0,.67,0,1,0a6.94,6.94,0,0,0,1.07-.07l.65-.08c1.46-.19,3.29-.43,4.53-1.76C516.83,204.49,515.46,202.8,515,202.32Z" transform="translate(-316.39 -146.49)"/><path class="cls-35" d="M514.9,202.21a16,16,0,0,0-2.61-2.12l-.27-.17c.75-12.75-.49-26.11-3.8-40.8a20.35,20.35,0,0,0,2.09-5.13l.05-.15a7.34,7.34,0,0,0,.39-4,1.91,1.91,0,0,0-1.94-1.49,5.41,5.41,0,0,0-2.45.82l-.06,0a9.63,9.63,0,0,0-2.57,2A46.45,46.45,0,0,0,492,149.94a97.49,97.49,0,0,0-13.85,1.17,91.54,91.54,0,0,0-15.42,3.5l-1,.33a29.81,29.81,0,0,0-5.05,1.93,8,8,0,0,0-3.47-1.1,3.48,3.48,0,0,0-.57,0,2.32,2.32,0,0,0-1.6.95,3.86,3.86,0,0,0-.27,3,9.59,9.59,0,0,0,3.55,5.75,108.38,108.38,0,0,0,.51,14.23c.08,1,.17,2,.24,3a83.92,83.92,0,0,0,4.38,21,17.55,17.55,0,0,0-3.68,6.45,2.13,2.13,0,0,0,.3,1.94,3.7,3.7,0,0,0,2.89,1.19h.11A13.55,13.55,0,0,0,464,212.2a26.14,26.14,0,0,0,8.56,1.22c2.64,0,5.3-.25,7.65-.46l.76-.07a101.46,101.46,0,0,0,25.15-5.06c.24,0,.53,0,.84,0s.65,0,1,0,.67,0,1,0a6.94,6.94,0,0,0,1.07-.07l.65-.09c1.46-.18,3.29-.42,4.53-1.75C516.73,204.38,515.36,202.69,514.9,202.21Z" transform="translate(-316.39 -146.49)"/><path class="cls-36" d="M514.8,202.1a16.1,16.1,0,0,0-2.61-2.13l-.27-.16c.75-12.75-.49-26.12-3.8-40.8a20.5,20.5,0,0,0,2.09-5.13l.05-.15a7.35,7.35,0,0,0,.39-4,1.91,1.91,0,0,0-1.94-1.49,5.51,5.51,0,0,0-2.45.81l-.06,0a9.25,9.25,0,0,0-2.57,2.05,46.44,46.44,0,0,0-11.69-1.36A97.37,97.37,0,0,0,478.09,151a91.54,91.54,0,0,0-15.42,3.5l-1,.32a30.73,30.73,0,0,0-5.05,1.94,8,8,0,0,0-3.47-1.11,3.45,3.45,0,0,0-.57,0,2.31,2.31,0,0,0-1.6.94,3.89,3.89,0,0,0-.27,3,9.59,9.59,0,0,0,3.55,5.75,108.16,108.16,0,0,0,.51,14.22c.08,1,.17,2,.24,3.05a83.92,83.92,0,0,0,4.38,21A17.59,17.59,0,0,0,455.7,210,2.15,2.15,0,0,0,456,212a3.7,3.7,0,0,0,2.89,1.19H459a13.37,13.37,0,0,0,4.89-1.08,26.14,26.14,0,0,0,8.56,1.22c2.64,0,5.3-.24,7.65-.45l.76-.07A101,101,0,0,0,506,207.71c.24,0,.53,0,.84,0s.65,0,1,0,.67,0,1,0a6.94,6.94,0,0,0,1.07-.07l.65-.09c1.46-.19,3.28-.42,4.53-1.76C516.63,204.26,515.26,202.58,514.8,202.1Z" transform="translate(-316.39 -146.49)"/><path class="cls-37" d="M514.7,202a16.1,16.1,0,0,0-2.61-2.13l-.27-.16c.75-12.75-.49-26.12-3.8-40.81a20.44,20.44,0,0,0,2.09-5.12l.05-.15a7.38,7.38,0,0,0,.39-4,1.92,1.92,0,0,0-1.94-1.49,5.53,5.53,0,0,0-2.45.82l-.06,0a9.48,9.48,0,0,0-2.57,2.06,46.44,46.44,0,0,0-11.69-1.36A99,99,0,0,0,478,150.88a92.51,92.51,0,0,0-15.42,3.51l-1,.32a31.61,31.61,0,0,0-5.05,1.93,8,8,0,0,0-3.47-1.1,5.1,5.1,0,0,0-.57,0,2.35,2.35,0,0,0-1.6.95,3.86,3.86,0,0,0-.27,2.95,9.58,9.58,0,0,0,3.55,5.76,108.22,108.22,0,0,0,.51,14.22c.08,1,.17,2,.24,3a83.75,83.75,0,0,0,4.38,21,17.63,17.63,0,0,0-3.68,6.45,2.15,2.15,0,0,0,.3,2,3.74,3.74,0,0,0,2.89,1.19h.11a13.58,13.58,0,0,0,4.89-1.08,26.14,26.14,0,0,0,8.56,1.22c2.64,0,5.3-.24,7.65-.45l.76-.07a101,101,0,0,0,25.15-5.07,7.61,7.61,0,0,0,.84,0l1,0c.33,0,.67,0,1,0a8.47,8.47,0,0,0,1.07-.07c.21,0,.43-.06.65-.09,1.46-.19,3.28-.42,4.53-1.76C516.53,204.15,515.16,202.47,514.7,202Z" transform="translate(-316.39 -146.49)"/><path class="cls-38" d="M514.6,201.88a15.24,15.24,0,0,0-2.62-2.13,2.26,2.26,0,0,0-.26-.16c.75-12.76-.49-26.12-3.8-40.81a20.73,20.73,0,0,0,2.09-5.13l.05-.15a7.34,7.34,0,0,0,.39-4,1.92,1.92,0,0,0-1.94-1.49,5.41,5.41,0,0,0-2.45.82l-.06,0a9.63,9.63,0,0,0-2.57,2,46.45,46.45,0,0,0-11.69-1.35,98.85,98.85,0,0,0-13.85,1.17,91.3,91.3,0,0,0-15.42,3.51l-1,.32a31.25,31.25,0,0,0-5,1.93,8,8,0,0,0-3.48-1.1,3.43,3.43,0,0,0-.56,0,2.32,2.32,0,0,0-1.6.95,3.86,3.86,0,0,0-.27,3,9.61,9.61,0,0,0,3.55,5.76,108.29,108.29,0,0,0,.51,14.22c.08,1,.17,2,.24,3.05a83.84,83.84,0,0,0,4.38,20.95,17.63,17.63,0,0,0-3.68,6.45,2.15,2.15,0,0,0,.3,1.95,3.72,3.72,0,0,0,2.89,1.18h.11a13.55,13.55,0,0,0,4.89-1.07,26.12,26.12,0,0,0,8.55,1.22c2.65,0,5.31-.24,7.66-.46l.76-.06a101.43,101.43,0,0,0,25.15-5.07,7.46,7.46,0,0,0,.83,0l1,0c.33,0,.67,0,1,0a6.94,6.94,0,0,0,1.07-.07l.65-.08c1.46-.19,3.28-.42,4.53-1.76C516.43,204,515.06,202.35,514.6,201.88Z" transform="translate(-316.39 -146.49)"/><path class="cls-39" d="M514.5,201.76a15.63,15.63,0,0,0-2.62-2.12l-.26-.17c.75-12.75-.49-26.11-3.8-40.8a20.73,20.73,0,0,0,2.09-5.13l0-.15a7.34,7.34,0,0,0,.39-4,1.92,1.92,0,0,0-1.94-1.49,5.41,5.41,0,0,0-2.45.82l-.06,0a9.63,9.63,0,0,0-2.57,2.05,46.45,46.45,0,0,0-11.69-1.35,97.36,97.36,0,0,0-13.85,1.17,92.3,92.3,0,0,0-15.42,3.5l-1,.33a30.34,30.34,0,0,0-5.05,1.93,8,8,0,0,0-3.48-1.1,3.43,3.43,0,0,0-.56,0,2.32,2.32,0,0,0-1.6.95,3.91,3.91,0,0,0-.28,2.95A9.67,9.67,0,0,0,454,165a108.29,108.29,0,0,0,.51,14.22c.08,1,.17,2,.24,3a83.84,83.84,0,0,0,4.38,21,17.63,17.63,0,0,0-3.68,6.45,2.16,2.16,0,0,0,.3,1.95,3.72,3.72,0,0,0,2.89,1.18h.11a13.55,13.55,0,0,0,4.89-1.07,26.12,26.12,0,0,0,8.55,1.22c2.65,0,5.31-.25,7.66-.46l.76-.07a101.46,101.46,0,0,0,25.15-5.06c.24,0,.53,0,.83,0s.66,0,1,0,.67,0,1,0a6.94,6.94,0,0,0,1.07-.07l.65-.09c1.46-.18,3.28-.42,4.53-1.75C516.33,203.93,515,202.24,514.5,201.76Z" transform="translate(-316.39 -146.49)"/><path class="cls-40" d="M514.4,201.65a16.25,16.25,0,0,0-2.62-2.13,2.26,2.26,0,0,0-.26-.16c.75-12.75-.5-26.11-3.8-40.8a20.73,20.73,0,0,0,2.09-5.13l.05-.15a7.34,7.34,0,0,0,.39-4,1.92,1.92,0,0,0-1.94-1.49,5.51,5.51,0,0,0-2.45.81l-.06,0a9.44,9.44,0,0,0-2.57,2,46.44,46.44,0,0,0-11.69-1.36,97.24,97.24,0,0,0-13.85,1.18,91.32,91.32,0,0,0-15.42,3.5l-1,.32a30.39,30.39,0,0,0-5.05,1.94,8,8,0,0,0-3.48-1.11,3.43,3.43,0,0,0-.56.05,2.32,2.32,0,0,0-1.6.95,3.91,3.91,0,0,0-.28,3,9.65,9.65,0,0,0,3.56,5.75,108.16,108.16,0,0,0,.51,14.22c.08,1,.17,2,.24,3a83.92,83.92,0,0,0,4.38,21,17.59,17.59,0,0,0-3.68,6.44,2.15,2.15,0,0,0,.3,2,3.7,3.7,0,0,0,2.89,1.19h.11a13.41,13.41,0,0,0,4.89-1.08,26.12,26.12,0,0,0,8.55,1.22c2.65,0,5.31-.24,7.66-.45l.76-.07a101,101,0,0,0,25.15-5.07c.24,0,.52,0,.83,0s.66,0,1,0,.67,0,1,0a6.94,6.94,0,0,0,1.07-.07l.65-.09c1.46-.19,3.28-.42,4.53-1.75C516.23,203.81,514.86,202.13,514.4,201.65Z" transform="translate(-316.39 -146.49)"/><path class="cls-41" d="M514.3,201.54a15.73,15.73,0,0,0-2.62-2.13,2.26,2.26,0,0,0-.26-.16c.75-12.75-.5-26.12-3.8-40.81a20.82,20.82,0,0,0,2.09-5.12l.05-.15a7.36,7.36,0,0,0,.39-4,1.93,1.93,0,0,0-1.94-1.5,5.53,5.53,0,0,0-2.45.82l-.06,0a9.48,9.48,0,0,0-2.57,2.06,46.44,46.44,0,0,0-11.69-1.36,98.85,98.85,0,0,0-13.85,1.17,92.28,92.28,0,0,0-15.42,3.51l-1,.32a30.39,30.39,0,0,0-5.05,1.94,8,8,0,0,0-3.48-1.11,3.43,3.43,0,0,0-.56,0,2.31,2.31,0,0,0-1.6.94,3.92,3.92,0,0,0-.28,2.95,9.65,9.65,0,0,0,3.56,5.76,108.22,108.22,0,0,0,.51,14.22l.24,3.05A83.75,83.75,0,0,0,458.88,203a17.49,17.49,0,0,0-3.68,6.45,2.15,2.15,0,0,0,.3,1.95,3.74,3.74,0,0,0,2.89,1.19h.11a13.62,13.62,0,0,0,4.89-1.08,26.12,26.12,0,0,0,8.55,1.22c2.65,0,5.31-.24,7.66-.45l.76-.07a101,101,0,0,0,25.15-5.07c.24,0,.52,0,.83,0s.66,0,1,0,.66,0,1,0a8.47,8.47,0,0,0,1.07-.07l.65-.09c1.46-.19,3.28-.42,4.53-1.76C516.13,203.7,514.76,202,514.3,201.54Z" transform="translate(-316.39 -146.49)"/><path class="cls-42" d="M514.2,201.43a15.63,15.63,0,0,0-2.62-2.13,2.26,2.26,0,0,0-.26-.16c.75-12.76-.5-26.12-3.8-40.81a20.82,20.82,0,0,0,2.09-5.12l.05-.16a7.34,7.34,0,0,0,.39-4,1.93,1.93,0,0,0-1.94-1.49,5.41,5.41,0,0,0-2.45.82l-.06,0a9.48,9.48,0,0,0-2.57,2.06,46,46,0,0,0-11.69-1.36,98.85,98.85,0,0,0-13.85,1.17,91.3,91.3,0,0,0-15.42,3.51l-1,.32a31.25,31.25,0,0,0-5.05,1.93,8,8,0,0,0-3.48-1.1,3.43,3.43,0,0,0-.56,0,2.32,2.32,0,0,0-1.6.95,3.91,3.91,0,0,0-.28,2.95,9.67,9.67,0,0,0,3.56,5.76,108.29,108.29,0,0,0,.51,14.22l.24,3a83.84,83.84,0,0,0,4.38,21,17.49,17.49,0,0,0-3.68,6.45,2.18,2.18,0,0,0,.29,2,3.72,3.72,0,0,0,2.9,1.18h.11a13.59,13.59,0,0,0,4.89-1.07,26.12,26.12,0,0,0,8.55,1.22c2.65,0,5.31-.24,7.66-.45l.76-.07A101,101,0,0,0,505.41,207a7.42,7.42,0,0,0,.83,0l1,0c.33,0,.66,0,1,0a6.87,6.87,0,0,0,1.07-.08L510,207c1.46-.19,3.28-.42,4.53-1.76C516,203.59,514.66,201.9,514.2,201.43Z" transform="translate(-316.39 -146.49)"/><path class="cls-43" d="M514.1,201.31a16,16,0,0,0-2.62-2.12,1.4,1.4,0,0,0-.26-.16c.75-12.76-.5-26.12-3.8-40.81a20.73,20.73,0,0,0,2.09-5.13l.05-.15a7.34,7.34,0,0,0,.39-4,1.93,1.93,0,0,0-1.94-1.49,5.41,5.41,0,0,0-2.45.82l-.06,0a9.63,9.63,0,0,0-2.57,2A46.51,46.51,0,0,0,491.24,149a97.36,97.36,0,0,0-13.85,1.17,92.3,92.3,0,0,0-15.42,3.5l-1,.33a30.34,30.34,0,0,0-5,1.93,8,8,0,0,0-3.48-1.1,3.43,3.43,0,0,0-.56,0,2.32,2.32,0,0,0-1.6,1,3.91,3.91,0,0,0-.28,2.95,9.63,9.63,0,0,0,3.56,5.76,108.29,108.29,0,0,0,.51,14.22l.24,3.05a83.84,83.84,0,0,0,4.38,20.95,17.49,17.49,0,0,0-3.68,6.45,2.18,2.18,0,0,0,.29,1.95,3.76,3.76,0,0,0,2.9,1.18h.11a13.59,13.59,0,0,0,4.89-1.07,26.12,26.12,0,0,0,8.55,1.22c2.65,0,5.31-.24,7.66-.46l.75-.07a101,101,0,0,0,25.16-5.06c.24,0,.52,0,.83,0s.66,0,1,0,.66,0,1,0a6.94,6.94,0,0,0,1.07-.07l.65-.09c1.46-.18,3.28-.42,4.53-1.75C515.93,203.48,514.56,201.79,514.1,201.31Z" transform="translate(-316.39 -146.49)"/></g><path class="cls-32" d="M514.1,201.31a16,16,0,0,0-2.62-2.12,1.4,1.4,0,0,0-.26-.16c.75-12.76-.5-26.12-3.8-40.81a20.73,20.73,0,0,0,2.09-5.13l.05-.15a7.34,7.34,0,0,0,.39-4,1.93,1.93,0,0,0-1.94-1.49,5.41,5.41,0,0,0-2.45.82l-.06,0a9.63,9.63,0,0,0-2.57,2A46.51,46.51,0,0,0,491.24,149a97.36,97.36,0,0,0-13.85,1.17,92.3,92.3,0,0,0-15.42,3.5l-1,.33a30.34,30.34,0,0,0-5,1.93,8,8,0,0,0-3.48-1.1,3.43,3.43,0,0,0-.56,0,2.32,2.32,0,0,0-1.6,1,3.91,3.91,0,0,0-.28,2.95,9.63,9.63,0,0,0,3.56,5.76,108.29,108.29,0,0,0,.51,14.22l.24,3.05a83.84,83.84,0,0,0,4.38,20.95,17.49,17.49,0,0,0-3.68,6.45,2.18,2.18,0,0,0,.29,1.95,3.76,3.76,0,0,0,2.9,1.18h.11a13.59,13.59,0,0,0,4.89-1.07,26.12,26.12,0,0,0,8.55,1.22c2.65,0,5.31-.24,7.66-.46l.75-.07a101,101,0,0,0,25.16-5.06c.24,0,.52,0,.83,0s.66,0,1,0,.66,0,1,0a6.94,6.94,0,0,0,1.07-.07l.65-.09c1.46-.18,3.28-.42,4.53-1.75C515.93,203.48,514.56,201.79,514.1,201.31Z" transform="translate(-316.39 -146.49)"/><path class="cls-44" d="M510.82,200.16a3.24,3.24,0,0,0-.82-.38c.93-14.12-.71-28.05-3.84-41.78a18.29,18.29,0,0,0,2.23-5.24,6.54,6.54,0,0,0,.42-3.49c-.32-1.26-2.16-.22-2.75.1a8.87,8.87,0,0,0-2.72,2.35c-8.31-2.33-17.35-1.57-25.78-.35a90.27,90.27,0,0,0-15.23,3.46,33,33,0,0,0-6.4,2.47l-.07,0c-1.06-.55-2.56-1.4-3.81-1.2s-1.1,1.53-.91,2.51c.37,1.85,1.75,4.52,3.63,5.31-.41,6,.25,11.84.7,17.86A82.67,82.67,0,0,0,460,203.08a16.21,16.21,0,0,0-3.9,6.49c-.38,1.28,1.2,1.62,2.08,1.63a13,13,0,0,0,5-1.16c5.2,2,11.66,1.25,16.88.79a100.75,100.75,0,0,0,25.1-5.09,7.62,7.62,0,0,0,1,0,24.2,24.2,0,0,0,2.95,0c1.51-.22,3.37-.28,4.5-1.48.7-.75.29-1.53-.32-2.17A14.79,14.79,0,0,0,510.82,200.16Z" transform="translate(-316.39 -146.49)"/><path class="cls-45" d="M508.69,205.07c-.68,0-1.4.1-2.12.12a9.69,9.69,0,0,1-2.51.15s0,0,0,.06a3.64,3.64,0,0,0,.36.16,159.66,159.66,0,0,1-22.56,4.49c-5.38.62-12.13,1.42-17.73-.16a12.85,12.85,0,0,1-1.48-.38,12.71,12.71,0,0,1-1.33.3l-.38.12c-1.63.49-4.94,1-3.5-2a25.1,25.1,0,0,1,2.46-4l.25-.3v0l.27-.42-.06-.47a174.08,174.08,0,0,1-5-38.63,16.45,16.45,0,0,1-2.68-4.08,5.7,5.7,0,0,1-.39-.68c-.16-.31-1-2.39-.63-2.52a2.62,2.62,0,0,1,1.41.15,13.53,13.53,0,0,1,1.85.64,1.35,1.35,0,0,1,.8.19c.2-.08.4-.16.6-.22l-.09-.05a54.63,54.63,0,0,1,8.86-3,90.34,90.34,0,0,1,13.75-2.7,76.77,76.77,0,0,1,23.55.42h0a3.37,3.37,0,0,1,.83.1c.56-.61,1.26-1.13,1.85-1.67a.39.39,0,0,1,.3-.11c.71-.48,2.07-1.3,2.43-.63.26.5,0,1.34-.1,1.86a26.89,26.89,0,0,1-1.52,4.81c-.12.33-.25.66-.38,1s0,.73,0,1.1a195.27,195.27,0,0,1,2.91,19.36c.62,6.93.55,13.93.67,20.88a4.08,4.08,0,0,1,.14,1l.49.5.26.15a10.61,10.61,0,0,1,2.71,2.76C513.94,204.59,509.2,205,508.69,205.07Z" transform="translate(-316.39 -146.49)"/><path class="cls-46" d="M513.14,203.34a10.61,10.61,0,0,0-2.71-2.76l-.26-.15-.49-.5a4.08,4.08,0,0,0-.14-1c-.12-6.95-.05-13.95-.67-20.88A195.27,195.27,0,0,0,506,158.7c0-.37,0-.73,0-1.1s.26-.66.38-1a26.89,26.89,0,0,0,1.52-4.81c.1-.52.36-1.36.1-1.86-.36-.67-1.72.15-2.43.63a.39.39,0,0,0-.3.11c-.59.54-1.29,1.06-1.85,1.67a3.37,3.37,0,0,0-.83-.1h0a76.77,76.77,0,0,0-23.55-.42,90.34,90.34,0,0,0-13.75,2.7,54.63,54.63,0,0,0-8.86,3l.09.05c-.2.06-.4.14-.6.22a1.35,1.35,0,0,0-.8-.19,13.53,13.53,0,0,0-1.85-.64,2.62,2.62,0,0,0-1.41-.15c-.38.13.47,2.21.63,2.52a5.7,5.7,0,0,0,.39.68,16.45,16.45,0,0,0,2.68,4.08,174.08,174.08,0,0,0,5,38.63l.06.47-.27.42v0l-.25.3a25.1,25.1,0,0,0-2.46,4c-1.44,3,1.87,2.52,3.5,2l.38-.12a12.71,12.71,0,0,0,1.33-.3,12.85,12.85,0,0,0,1.48.38c5.6,1.58,12.35.78,17.73.16a159.66,159.66,0,0,0,22.56-4.49,3.64,3.64,0,0,1-.36-.16s0,0,0-.06a9.69,9.69,0,0,0,2.51-.15c.72,0,1.44-.08,2.12-.12C509.2,205,513.94,204.59,513.14,203.34Zm-6.64-4.2a.45.45,0,0,1-.66.27,29.23,29.23,0,0,0-3.6-2.53c.76,2.12.93,4-1.86,4.94-3.8,1.27-7.57,2.91-11.48,3.81-7.35,1.68-15.33,2.72-22.69.56a.45.45,0,0,1-.31-.55c1-2.81,3.05-5,4.86-7.29-1,.8-2,1.81-2.91,2.53-.75.56-2.24,1.85-3.32,1.46s-1.43-2.08-1.66-3.14c-.59-2.66-1.63-5.2-2.17-7.87a101.74,101.74,0,0,1-2.25-15.65,19.2,19.2,0,0,1,0-10.12c1-3.32,3.53-5.57,6.62-7a58.46,58.46,0,0,1,12-3.69,56.62,56.62,0,0,1,14.72-1.5c3.19.17,7.35.36,9.7,2.89,2.17,2.34,3.27,5.81,4.11,8.81,2.55,9.15,2.7,18.78,2,28.19A17.08,17.08,0,0,1,506.5,199.14Z" transform="translate(-316.39 -146.49)"/><path class="cls-47" d="M461.28,187s-4.38-20.43,1.46-24.7,21.55-8.75,34.91-6.85c0,0-31.36,1.95-34.8,9.43C459.64,171.87,461.28,187,461.28,187Z" transform="translate(-316.39 -146.49)"/><path class="cls-44" d="M462.59,207.33a.27.27,0,0,1-.18-.05,9.07,9.07,0,0,1-1.13-.82.35.35,0,0,1,0-.48.33.33,0,0,1,.47,0,8.44,8.44,0,0,0,1,.76.35.35,0,0,1,.1.47A.32.32,0,0,1,462.59,207.33Z" transform="translate(-316.39 -146.49)"/><path class="cls-44" d="M472.12,210h-.28a.35.35,0,0,1-.34-.34.37.37,0,0,1,.34-.34h.28c.68,0,1.48,0,2.37-.06a.36.36,0,0,1,.35.33.34.34,0,0,1-.32.35Q473.16,210,472.12,210Zm5.92-.29a.34.34,0,0,1,0-.67l2.64-.24a.34.34,0,1,1,.07.67l-2.66.24Zm-9.72-.07h-.07a18.47,18.47,0,0,1-2.6-.73.32.32,0,0,1-.2-.43.33.33,0,0,1,.43-.2,17.21,17.21,0,0,0,2.51.7.34.34,0,0,1-.07.67Zm15.9-.57a.35.35,0,0,1-.34-.3.34.34,0,0,1,.3-.37l2.63-.36a.34.34,0,0,1,.38.28.34.34,0,0,1-.29.39l-2.64.36Zm6.14-.92a.33.33,0,0,1-.33-.28.34.34,0,0,1,.27-.39q1.32-.23,2.61-.48a.34.34,0,0,1,.4.26.35.35,0,0,1-.27.4l-2.62.49Zm6.08-1.24a.34.34,0,0,1-.33-.26.33.33,0,0,1,.25-.4c.88-.22,1.74-.44,2.57-.67a.33.33,0,0,1,.41.23.34.34,0,0,1-.23.42c-.84.23-1.7.46-2.59.67Zm5.95-1.75a.34.34,0,0,1-.31-.22.34.34,0,0,1,.2-.44c.89-.32,1.7-.67,2.42-1a.34.34,0,0,1,.45.15.34.34,0,0,1-.16.45c-.73.36-1.57.71-2.48,1Z" transform="translate(-316.39 -146.49)"/><path class="cls-44" d="M507.79,202.19a.32.32,0,0,1-.24-.11.34.34,0,0,1,0-.48,4.29,4.29,0,0,0,.8-1,.33.33,0,0,1,.46-.11.34.34,0,0,1,.12.46,5.12,5.12,0,0,1-.92,1.1A.3.3,0,0,1,507.79,202.19Z" transform="translate(-316.39 -146.49)"/><path class="cls-13" d="M449.61,217.48a1.49,1.49,0,0,1-.19,2.11,1.66,1.66,0,0,1-2.16.45,1.48,1.48,0,0,1,.18-2.11A1.67,1.67,0,0,1,449.61,217.48Z" transform="translate(-316.39 -146.49)"/><path class="cls-14" d="M449.17,217.46c.35.29.24,1-.25,1.49s-1.17.72-1.51.43-.23-.95.25-1.48S448.83,217.17,449.17,217.46Z" transform="translate(-316.39 -146.49)"/><path class="cls-13" d="M442.81,223.61a2.12,2.12,0,0,1-2.51-1.24c-.61-1.07-.46-2.25.33-2.63a2.15,2.15,0,0,1,2.51,1.25C443.74,222.06,443.6,223.23,442.81,223.61Z" transform="translate(-316.39 -146.49)"/><path class="cls-14" d="M443,223.14c-.5.25-1.27-.21-1.72-1s-.42-1.65.08-1.89,1.27.21,1.72,1S443.51,222.9,443,223.14Z" transform="translate(-316.39 -146.49)"/><path class="cls-13" d="M444.85,215.72a2,2,0,0,1,1,2.5c-.3,1.15-1.25,1.89-2.12,1.65a2,2,0,0,1-1-2.5C443,216.22,444,215.48,444.85,215.72Z" transform="translate(-316.39 -146.49)"/><path class="cls-14" d="M444.36,215.92c.55.15.81,1,.59,1.83s-.86,1.44-1.42,1.29-.81-1-.58-1.83S443.81,215.77,444.36,215.92Z" transform="translate(-316.39 -146.49)"/><path class="cls-13" d="M441,216.47a1.51,1.51,0,0,1,.43-2.13,1.72,1.72,0,0,1,2.27-.24,1.51,1.51,0,0,1-.43,2.13A1.72,1.72,0,0,1,441,216.47Z" transform="translate(-316.39 -146.49)"/><path class="cls-14" d="M441.39,216.53c-.32-.33-.13-1,.43-1.49s1.28-.62,1.6-.29.13,1-.43,1.49S441.72,216.86,441.39,216.53Z" transform="translate(-316.39 -146.49)"/><path class="cls-13" d="M435.55,229.88a1.69,1.69,0,0,1-1.29-1.9c0-1,.67-1.77,1.43-1.72a1.69,1.69,0,0,1,1.29,1.9C436.94,229.16,436.3,229.93,435.55,229.88Z" transform="translate(-316.39 -146.49)"/><path class="cls-14" d="M435.91,229.63c-.47,0-.84-.67-.81-1.42s.44-1.33.91-1.3.84.67.81,1.42S436.39,229.66,435.91,229.63Z" transform="translate(-316.39 -146.49)"/><path class="cls-13" d="M436.5,218.26c.25-.63,1.22-.86,2.17-.51s1.54,1.16,1.29,1.8-1.21.87-2.16.51S436.26,218.9,436.5,218.26Z" transform="translate(-316.39 -146.49)"/><path class="cls-14" d="M436.65,218.66c.16-.41.86-.52,1.58-.25s1.18.81,1,1.21-.85.52-1.57.25S436.5,219.06,436.65,218.66Z" transform="translate(-316.39 -146.49)"/><path class="cls-13" d="M434,230.46c0,.68-.84,1.19-1.84,1.14s-1.81-.64-1.8-1.32.83-1.19,1.84-1.14S434,229.78,434,230.46Z" transform="translate(-316.39 -146.49)"/><path class="cls-14" d="M433.7,230.13c0,.43-.63.75-1.38.72S431,230.43,431,230s.62-.75,1.38-.72S433.7,229.7,433.7,230.13Z" transform="translate(-316.39 -146.49)"/><path class="cls-13" d="M431.63,222.14a1.35,1.35,0,0,1,0,1.91,1.47,1.47,0,0,1-1.9.54,1.33,1.33,0,0,1,0-1.9A1.47,1.47,0,0,1,431.63,222.14Z" transform="translate(-316.39 -146.49)"/><path class="cls-14" d="M431.24,222.15c.33.24.28.85-.12,1.36s-1,.72-1.32.49-.27-.85.12-1.36S430.91,221.92,431.24,222.15Z" transform="translate(-316.39 -146.49)"/><path class="cls-13" d="M426,224.89a2,2,0,0,1,2.3,1.3c.51,1,.3,2.12-.46,2.44s-1.79-.26-2.3-1.29S425.2,225.21,426,224.89Z" transform="translate(-316.39 -146.49)"/><path class="cls-14" d="M425.75,225.33c.48-.21,1.19.26,1.57,1s.3,1.57-.18,1.77-1.19-.26-1.57-1S425.27,225.53,425.75,225.33Z" transform="translate(-316.39 -146.49)"/><path class="cls-13" d="M446.87,210.91c.1-.76,1.1-1.24,2.23-1.06s2,.93,1.87,1.7-1.1,1.24-2.24,1.06S446.76,211.68,446.87,210.91Z" transform="translate(-316.39 -146.49)"/><path class="cls-14" d="M447.13,211.32c.06-.49.81-.77,1.66-.64s1.49.63,1.43,1.11-.81.77-1.66.64S447.07,211.8,447.13,211.32Z" transform="translate(-316.39 -146.49)"/><path class="cls-13" d="M440.5,224.21c.24.72-.43,1.53-1.49,1.8a1.88,1.88,0,0,1-2.34-.81c-.23-.72.44-1.53,1.49-1.8S440.27,223.48,440.5,224.21Z" transform="translate(-316.39 -146.49)"/><path class="cls-14" d="M440.1,224c.15.46-.37,1-1.17,1.2s-1.56,0-1.71-.46.38-1,1.18-1.2S440,223.49,440.1,224Z" transform="translate(-316.39 -146.49)"/><path class="cls-13" d="M434.31,227.41c-.71.51-1.93.13-2.72-.85s-.85-2.19-.14-2.7,1.94-.13,2.73.85S435,226.9,434.31,227.41Z" transform="translate(-316.39 -146.49)"/><path class="cls-14" d="M434.43,226.9c-.45.33-1.3,0-1.9-.75s-.7-1.59-.25-1.91,1.3,0,1.89.75S434.88,226.58,434.43,226.9Z" transform="translate(-316.39 -146.49)"/><path class="cls-13" d="M452.48,213.45a1.4,1.4,0,0,1,.14,2,1.5,1.5,0,0,1-1.92.7,1.4,1.4,0,0,1-.14-2A1.52,1.52,0,0,1,452.48,213.45Z" transform="translate(-316.39 -146.49)"/><path class="cls-14" d="M452.08,213.49c.37.23.36.86,0,1.41s-1,.83-1.32.6-.35-.85,0-1.41S451.72,213.27,452.08,213.49Z" transform="translate(-316.39 -146.49)"/><path class="cls-13" d="M450.85,215.78c.22.59-.31,1.28-1.17,1.54a1.57,1.57,0,0,1-2-.6c-.21-.59.31-1.28,1.17-1.54A1.57,1.57,0,0,1,450.85,215.78Z" transform="translate(-316.39 -146.49)"/><path class="cls-14" d="M450.51,215.58c.14.37-.28.84-.92,1s-1.29,0-1.43-.32.28-.84.93-1S450.37,215.2,450.51,215.58Z" transform="translate(-316.39 -146.49)"/><path class="cls-13" d="M435.72,220.27a1.56,1.56,0,0,1,.42,2.17,1.65,1.65,0,0,1-2,1,1.57,1.57,0,0,1-.41-2.18A1.63,1.63,0,0,1,435.72,220.27Z" transform="translate(-316.39 -146.49)"/><path class="cls-14" d="M435.29,220.36c.43.2.5.9.17,1.56s-.95,1-1.37.83-.51-.91-.17-1.57S434.86,220.15,435.29,220.36Z" transform="translate(-316.39 -146.49)"/><path class="cls-13" d="M453.9,212.13c.64-.26,1.5.23,1.93,1.1s.25,1.79-.39,2.05-1.51-.22-1.93-1.09S453.26,212.4,453.9,212.13Z" transform="translate(-316.39 -146.49)"/><path class="cls-14" d="M453.72,212.5c.4-.17,1,.22,1.31.88s.25,1.32-.16,1.48-1-.22-1.31-.88S453.31,212.66,453.72,212.5Z" transform="translate(-316.39 -146.49)"/><path class="cls-13" d="M444.42,219.48a1.82,1.82,0,0,1,2.26.78c.63.83.65,1.84,0,2.25a1.83,1.83,0,0,1-2.26-.77C443.83,220.9,443.81,219.89,444.42,219.48Z" transform="translate(-316.39 -146.49)"/><path class="cls-14" d="M444.31,219.9c.39-.26,1.09,0,1.57.67s.55,1.35.16,1.61-1.09,0-1.57-.67S443.92,220.16,444.31,219.9Z" transform="translate(-316.39 -146.49)"/><path class="cls-13" d="M445.94,211.52a2,2,0,0,1,1.66,2.18c0,1.19-.68,2.14-1.57,2.12s-1.63-1-1.66-2.17S445.05,211.51,445.94,211.52Z" transform="translate(-316.39 -146.49)"/><path class="cls-14" d="M445.53,211.84c.57,0,1,.74,1.06,1.63s-.42,1.61-1,1.6-1-.74-1.05-1.63S445,211.83,445.53,211.84Z" transform="translate(-316.39 -146.49)"/><ellipse class="cls-13" cx="429.4" cy="228.01" rx="1.31" ry="1.95" transform="translate(-208.41 446.3) rotate(-76.58)"/><path class="cls-14" d="M427.72,228c.09-.45.81-.67,1.6-.49s1.36.69,1.26,1.14-.82.67-1.61.48S427.62,228.41,427.72,228Z" transform="translate(-316.39 -146.49)"/></g></g></svg>