<svg xmlns="http://www.w3.org/2000/svg" xmlns:xlink="http://www.w3.org/1999/xlink" viewBox="0 0 200 200"><defs><style>.cls-1{isolation:isolate;}.cls-2{fill:none;}.cls-3{fill:#645339;}.cls-4{fill:url(#Áåçûìÿííûé_ãðàäèåíò_2);}.cls-5{fill:url(#Áåçûìÿííûé_ãðàäèåíò_4);}.cls-6{fill:#565656;}.cls-7{fill:url(#Áåçûìÿííûé_ãðàäèåíò_45);}.cls-8{fill:#c8c7c6;}.cls-9{fill:#f0efef;}.cls-10{fill:#67451a;}.cls-11{fill:#8f5c24;}.cls-12{fill:url(#Áåçûìÿííûé_ãðàäèåíò_51);}.cls-13{fill:#6b893a;}.cls-14{fill:#99c83c;}.cls-15{fill:#a8cf38;}.cls-16{fill:#68933e;}.cls-17{fill:#b4d443;}.cls-18{fill:#658339;}.cls-19{fill:#89ac3e;}.cls-20{fill:#435d2b;}.cls-21{fill:#91b93e;}.cls-22{fill:#a9cf3d;}.cls-23{fill:#80ac40;}.cls-24{fill:#b9d534;}.cls-25{fill:#c2d82e;}.cls-26{fill:#75a841;}.cls-27{fill:#546a30;}.cls-28{fill:#7eb141;}.cls-29,.cls-44{mix-blend-mode:multiply;}.cls-30{fill:#fff;}.cls-31{fill:#e7e5e5;}.cls-32{fill:#d5d3d3;}.cls-33{fill:#c5c3c2;}.cls-34{fill:#b6b4b3;}.cls-35{fill:#a8a5a5;}.cls-36{fill:#9b9898;}.cls-37{fill:#8d8b8b;}.cls-38{fill:#817f7f;}.cls-39{fill:#767474;}.cls-40{fill:#6b6a6a;}.cls-41{fill:#606161;}.cls-42{fill:#602e26;}.cls-43,.cls-44,.cls-45{fill:#bbac9a;}.cls-45{mix-blend-mode:screen;}</style><linearGradient id="Áåçûìÿííûé_ãðàäèåíò_2" x1="381.49" y1="270.27" x2="431.43" y2="270.27" gradientUnits="userSpaceOnUse"><stop offset="0" stop-color="#717171"/><stop offset="0.15" stop-color="#6b6c6c"/><stop offset="0.45" stop-color="#929191"/><stop offset="0.47" stop-color="#959494"/><stop offset="0.89" stop-color="#acacac"/></linearGradient><linearGradient id="Áåçûìÿííûé_ãðàäèåíò_4" x1="386.92" y1="285.14" x2="426.8" y2="285.14" gradientUnits="userSpaceOnUse"><stop offset="0" stop-color="#595a5a"/><stop offset="0.15" stop-color="#555554"/><stop offset="0.45" stop-color="#7b7b7b"/><stop offset="0.47" stop-color="#7e7e7e"/><stop offset="0.89" stop-color="#959494"/></linearGradient><linearGradient id="Áåçûìÿííûé_ãðàäèåíò_45" x1="379.18" y1="250.58" x2="435.09" y2="250.58" gradientUnits="userSpaceOnUse"><stop offset="0" stop-color="#9e9e9e"/><stop offset="0.15" stop-color="#989898"/><stop offset="0.45" stop-color="#bfbfbf"/><stop offset="0.47" stop-color="#c2c2c2"/><stop offset="0.89" stop-color="#d9d9d8"/></linearGradient><linearGradient id="Áåçûìÿííûé_ãðàäèåíò_51" x1="384.09" y1="236.6" x2="430.13" y2="236.6" gradientUnits="userSpaceOnUse"><stop offset="0" stop-color="#868686"/><stop offset="0.09" stop-color="#868686"/><stop offset="0.58" stop-color="#868686"/><stop offset="1" stop-color="#424242"/></linearGradient></defs><title>fertilizer_off</title><g class="cls-1"><g id="Layer_1" data-name="Layer 1"><rect class="cls-2" width="245.45" height="214"/><path class="cls-3" d="M410.21,215.72l4.12,3.62a7.29,7.29,0,0,0,1.91,1.2c.73.32,1.6.6,2.52,1a20.21,20.21,0,0,1,5.26,2.93,9.73,9.73,0,0,1,3.71,5.37,13.24,13.24,0,0,1-.68,6.18c-.26.93-.47,1.67-.65,2.59l-.6,2.73c-.82,3.65-2.16,7.54-4.83,10.57-2.58,2.82-5.26,5.28-7.5,8.07a20.43,20.43,0,0,0-2.74,4.45,26.45,26.45,0,0,0-1.62,5.06c-.21.87-.36,1.76-.52,2.65s-.33,1.87-.57,2.78a31.15,31.15,0,0,1-1.81,5.4,41.66,41.66,0,0,1-2.63,5c-.48.79-1,1.57-1.39,2.34a4.65,4.65,0,0,0-.72,2.17v.13l0,.11a20.74,20.74,0,0,0-.06,7.33,14,14,0,0,0,1.08,3.49,14.73,14.73,0,0,0,.87,1.61,4.86,4.86,0,0,1,.73,2.05,8.22,8.22,0,0,1-.74,4c-.5,1.22-1.1,2.36-1.67,3.5a21.19,21.19,0,0,0-2.52,7,9.38,9.38,0,0,0,.28,3.65,12.16,12.16,0,0,0,1.63,3.34l4.14,6.47a18.57,18.57,0,0,1,3,7.07,6.67,6.67,0,0,1-.66,3.78,10.68,10.68,0,0,1-2.36,3l-.05-.05a10.63,10.63,0,0,0,2.25-3,6.29,6.29,0,0,0,.55-3.67,18,18,0,0,0-3.12-6.86l-4.29-6.36a13,13,0,0,1-1.79-3.48,10.12,10.12,0,0,1-.4-3.94,21.93,21.93,0,0,1,2.43-7.4c.54-1.16,1.11-2.3,1.55-3.46a7.15,7.15,0,0,0,.59-3.46,3.79,3.79,0,0,0-.59-1.51,18.67,18.67,0,0,1-1-1.74,15.52,15.52,0,0,1-1.27-3.79,22,22,0,0,1-.11-7.92l0,.23a6.08,6.08,0,0,1,.83-3.07c.45-.86.92-1.65,1.37-2.45a39,39,0,0,0,2.41-4.84,28.71,28.71,0,0,0,1.58-5.13c.22-.87.32-1.75.48-2.65s.28-1.86.48-2.79a28.8,28.8,0,0,1,1.62-5.5,22.63,22.63,0,0,1,2.92-5c2.32-3,5-5.65,7.37-8.32a20.85,20.85,0,0,0,4-9.48l.52-2.69c.15-.9.41-1.94.63-2.8a10.56,10.56,0,0,0,.52-4.71,6.66,6.66,0,0,0-2.64-3.43,17,17,0,0,0-4.43-2.32c-.8-.29-1.7-.55-2.67-.94a10.91,10.91,0,0,1-2.81-1.66l-4.28-3.59Z" transform="translate(-316.39 -146.49)"/><path class="cls-3" d="M409.83,218.68c-.23,5.39-1.7,10.4-2.88,15.27a63.1,63.1,0,0,0-1.41,7.28,65.09,65.09,0,0,0-.34,7.41A70.5,70.5,0,0,0,407,263.45c.55,2.44,1.23,4.84,2,7.22s1.74,4.7,2.6,7.13a25,25,0,0,1,1.62,7.69,12.46,12.46,0,0,1-.59,4,19.29,19.29,0,0,1-1.77,3.52,6.24,6.24,0,0,0-1.1,3.17c.08,1,.76,2.33.8,3.7a16.09,16.09,0,0,1-1.21,7.7,16.54,16.54,0,0,1-4.68,6.15,52.26,52.26,0,0,0-5.57,5.11c-3.37,3.79-5,8.76-6.31,13.61l-.07,0a60.38,60.38,0,0,1,2.18-7.29,24.21,24.21,0,0,1,3.79-6.64,52.85,52.85,0,0,1,5.47-5.33,15.61,15.61,0,0,0,4.28-6,14.93,14.93,0,0,0,.91-7.21,7.35,7.35,0,0,0-.39-1.73,10.15,10.15,0,0,1-.52-2,3.43,3.43,0,0,1,0-1.15,7.59,7.59,0,0,1,.28-1,16.83,16.83,0,0,1,.84-1.82,18,18,0,0,0,1.54-3.3,10.29,10.29,0,0,0,.41-3.5,23.08,23.08,0,0,0-1.73-7.08c-.9-2.32-1.94-4.66-2.82-7.08a75.56,75.56,0,0,1-2.3-7.36,73.07,73.07,0,0,1-2.28-15.3,65.51,65.51,0,0,1,.13-7.79,66.62,66.62,0,0,1,1.24-7.69c1.07-5,2.3-9.86,2.35-14.64Z" transform="translate(-316.39 -146.49)"/><path class="cls-3" d="M405.11,242.16c.33-1.62.36-3.59.93-5.71a13.11,13.11,0,0,1,.58-1.61,3.82,3.82,0,0,1,1.88-1.79,12.42,12.42,0,0,1,3.21-.81,14.51,14.51,0,0,0,2.49-.55,15.84,15.84,0,0,0,2.36-1,8.45,8.45,0,0,0,3.52-3,3.17,3.17,0,0,0,.48-1.81,2.36,2.36,0,0,0-.62-1.58,7.82,7.82,0,0,0-4.21-1.74c-3.41-.59-7.06,0-10.75.58-6.86,1.37-16.59,2.39-14.08,11l.23,5.65a23.74,23.74,0,0,0,.67,5.35,31.17,31.17,0,0,0,2.12,5,45.13,45.13,0,0,1,2.21,5.32,41.59,41.59,0,0,1,1.48,5.6c.18.94.29,1.93.45,2.77a13.34,13.34,0,0,0,.79,2.54,20.44,20.44,0,0,0,1.25,2.41l.72,1.19a11.78,11.78,0,0,1,.75,1.31,29.73,29.73,0,0,1,1.64,5.55c.44,1.73,1.25,3.47,1.88,5.25a38.84,38.84,0,0,1,1.7,5.49,14.85,14.85,0,0,1,.21,5.83,10,10,0,0,1-.91,2.82c-.43.88-.93,1.68-1.37,2.49a7.27,7.27,0,0,0-.92,2.46,7.39,7.39,0,0,0,.53,2.59,14.68,14.68,0,0,1,.13,5.79,15.39,15.39,0,0,1-2,5.39,17.86,17.86,0,0,1-3.77,4.3c-1.42,1.26-2.9,2.42-4.23,3.74a23,23,0,0,0-3.43,4.42A42.08,42.08,0,0,0,387,338h0a42.18,42.18,0,0,1,3.8-10.65,23.11,23.11,0,0,1,3.39-4.55c1.32-1.37,2.79-2.57,4.17-3.84a17.39,17.39,0,0,0,3.57-4.24,14.8,14.8,0,0,0,1.81-5.19,14,14,0,0,0-.22-5.44,5.57,5.57,0,0,1,.36-5.74c.44-.85.92-1.66,1.3-2.48a9.47,9.47,0,0,0,.77-2.56,14,14,0,0,0-.31-5.39,39.39,39.39,0,0,0-1.76-5.28c-.66-1.75-1.5-3.43-2-5.35a29,29,0,0,0-1.66-5.24,11.27,11.27,0,0,0-.67-1.14l-.78-1.21a20.54,20.54,0,0,1-1.39-2.58,14.81,14.81,0,0,1-.95-2.84c-.22-1-.32-1.89-.52-2.79a39.22,39.22,0,0,0-1.52-5.31,43.75,43.75,0,0,0-2.22-5.07,33.17,33.17,0,0,1-2.36-5.33,25.48,25.48,0,0,1-.87-5.83l-.34-5.64-.16-2.85a9.16,9.16,0,0,1,.34-3.22,6.42,6.42,0,0,1,1.92-2.85,12.86,12.86,0,0,1,2.64-1.75,45.3,45.3,0,0,1,11.19-3.23c3.69-.68,7.63-1.43,11.71-.82a15.6,15.6,0,0,1,3.05.75,8,8,0,0,1,3,1.83,6.06,6.06,0,0,1,.69,7.13,11.62,11.62,0,0,1-4.79,4.42,18.29,18.29,0,0,1-2.84,1.25,18,18,0,0,1-3,.75,9.68,9.68,0,0,0-2.26.56c-.23.12-.19.15-.16.08a7.32,7.32,0,0,0-.35,1.06c-.4,1.53-.41,3.38-.76,5.46Z" transform="translate(-316.39 -146.49)"/><path class="cls-3" d="M405.63,223a7.62,7.62,0,0,0-2.78,2.53,3.61,3.61,0,0,0-.52,1.48,4.75,4.75,0,0,0,.22,1.72c.18.68.46,1.47.65,2.41a9.32,9.32,0,0,1,.07,2.87,20.76,20.76,0,0,0-.21,2.18,3.75,3.75,0,0,0,.35,1.65c.5,1.16,1.51,2.6,2.2,4.18a19.36,19.36,0,0,1,1.47,4.93,16.66,16.66,0,0,1,0,5.18,22.16,22.16,0,0,1-1.42,4.85,87.27,87.27,0,0,0-3.48,8.71,45.39,45.39,0,0,0-1.8,9l-.19,2.39a12.82,12.82,0,0,1-.6,2.51,16.76,16.76,0,0,0-.6,2.14,3.33,3.33,0,0,0,.25,1.76,27.71,27.71,0,0,0,2.28,4,18.07,18.07,0,0,1,1.59,4.73,18.67,18.67,0,0,0,1.39,4.32c.66,1.39,1.45,2.78,2.1,4.29a8.9,8.9,0,0,1,.9,5.07,12.49,12.49,0,0,1-2.31,4.47c-.94,1.31-2,2.52-2.85,3.78a19,19,0,0,0-1.23,1.93c-.36.7-.72,1.39-1,2.1a29.68,29.68,0,0,0-2.74,8.86,19.21,19.21,0,0,0,1,9.14,31.12,31.12,0,0,0,4.82,8c1.94,2.48,4,4.86,6,7.34a34.24,34.24,0,0,1,5,8l-.08,0a33.75,33.75,0,0,0-5.19-7.87c-2-2.44-4.17-4.75-6.18-7.21a31.63,31.63,0,0,1-5.11-8.07,20.06,20.06,0,0,1-1.25-9.52,31.27,31.27,0,0,1,2.62-9.26c.32-.73.67-1.45,1-2.17a19.27,19.27,0,0,1,1.26-2.11c.91-1.33,1.9-2.58,2.77-3.85a11.23,11.23,0,0,0,2-3.93,7.47,7.47,0,0,0-.9-4.1c-.63-1.38-1.44-2.73-2.17-4.18a20.13,20.13,0,0,1-1.63-4.65,16.42,16.42,0,0,0-1.51-4.2,29.16,29.16,0,0,1-2.51-4.19,5.66,5.66,0,0,1-.42-2.88,18.26,18.26,0,0,1,.61-2.45,11.49,11.49,0,0,0,.47-2.1l.13-2.34a48,48,0,0,1,1.66-9.58,88.89,88.89,0,0,1,3.34-9,20.06,20.06,0,0,0,1.15-4.25,13.9,13.9,0,0,0-.1-4.27,16.27,16.27,0,0,0-1.34-4.1c-.32-.66-.66-1.28-1.06-1.94a20.42,20.42,0,0,1-1.25-2.23,6.94,6.94,0,0,1-.69-2.94,25.11,25.11,0,0,1,.16-2.54,5.61,5.61,0,0,0-.07-1.86c-.13-.61-.39-1.31-.64-2.15a8.17,8.17,0,0,1-.4-3,7.18,7.18,0,0,1,.93-3,11.21,11.21,0,0,1,4-3.94Z" transform="translate(-316.39 -146.49)"/><path class="cls-3" d="M416.83,248.13c-1.88,1-3.36,2.7-3.33,4.31a14.26,14.26,0,0,0,.74,3.27,8,8,0,0,1,.27,2.32c0,.76-.12,1.43-.19,2a8.3,8.3,0,0,0-.1,1.58,3.94,3.94,0,0,0,.33,1.32c.39.95,1.12,2,1.73,3.24a18.87,18.87,0,0,1,2.1,7.88,17.07,17.07,0,0,1-.38,4.1,24.24,24.24,0,0,1-1.23,3.81c-1,2.42-2.11,4.63-2.92,6.95a43.62,43.62,0,0,0-1.92,7.13c-.22,1.21-.39,2.43-.52,3.66q-.09.93-.15,1.86a9.34,9.34,0,0,1-.34,2,26.4,26.4,0,0,0-1,3.48,5.75,5.75,0,0,0,1,3.07,36,36,0,0,1,2,3.34,20.09,20.09,0,0,1,1.14,3.75,17.43,17.43,0,0,0,2.72,6.79c1.3,2.13,2.85,4.22,3.65,6.76a10.17,10.17,0,0,1-.86,7.67,16.12,16.12,0,0,1-5.21,5.61,31.32,31.32,0,0,0-3.11,2.11,2.74,2.74,0,0,0-.84,1.53,8.69,8.69,0,0,0-.1,1.85l0,7.58h-.07l-.25-7.57a10.45,10.45,0,0,1,.05-1.93,3.13,3.13,0,0,1,.91-1.75A28.62,28.62,0,0,1,414,343.7a15.5,15.5,0,0,0,4.85-5.53,9.32,9.32,0,0,0,.6-7,31.21,31.21,0,0,0-3.74-6.41,23.78,23.78,0,0,1-1.92-3.39,24,24,0,0,1-1.18-3.7,18.14,18.14,0,0,0-1.15-3.45c-.48-1-1.3-2-2-3.14a7.31,7.31,0,0,1-1.34-4,26.15,26.15,0,0,1,.9-3.85,7.39,7.39,0,0,0,.23-1.68c0-.64.06-1.28.1-1.93.09-1.28.23-2.57.43-3.84a45.78,45.78,0,0,1,1.79-7.55c1.59-5,4.37-9.34,3.94-14a15.85,15.85,0,0,0-2-6.6c-.53-1-1.29-2-1.92-3.38a7,7,0,0,1-.64-2.33,11.2,11.2,0,0,1,0-2.19c.06-.65.12-1.23.12-1.73a4.88,4.88,0,0,0-.22-1.43,16.08,16.08,0,0,1-1-4.08,7.4,7.4,0,0,1,1.59-4.62,12.22,12.22,0,0,1,3.35-2.94Z" transform="translate(-316.39 -146.49)"/><path class="cls-3" d="M414.46,223.28c-1.86,1-3.09,3.23-4.62,5.72-.2.31-.42.62-.65.94l-.58.8c-.38.53-.72,1.07-1.05,1.63a20.54,20.54,0,0,0-1.6,3.47c-1.79,4.81-.69,10.15.44,15.56a87.36,87.36,0,0,1,1.72,16.72c0,2.79.16,5.5,0,8.39a17.72,17.72,0,0,1-.75,4.33,13.54,13.54,0,0,1-2,3.92,15.08,15.08,0,0,0-2.05,3.33,6.28,6.28,0,0,0-.21,3.6,17.65,17.65,0,0,0,3.89,6.84c1.74,2.11,3.63,4.09,5.59,6.07a10.41,10.41,0,0,1,2.48,3.6,2.4,2.4,0,0,1,.08,1.29,4.38,4.38,0,0,1-.46,1.06,2.52,2.52,0,0,0-.35,1.71,5,5,0,0,0,1.55,3.39c1.09.73,2.33,1.38,3.46,2.27a4.87,4.87,0,0,1,1.46,1.65,6,6,0,0,1,.46,2.13,12.12,12.12,0,0,1-.27,4.2,29.68,29.68,0,0,1-1.29,4c-.51,1.29-1,2.58-1.66,3.82a18.11,18.11,0,0,1-5.19,6.42,18,18,0,0,0,5-6.52c.59-1.25,1.07-2.54,1.54-3.84a29.22,29.22,0,0,0,1.16-3.95,11.49,11.49,0,0,0,.15-4.05,5.52,5.52,0,0,0-.45-1.9,4.42,4.42,0,0,0-1.32-1.38c-1.07-.8-2.31-1.4-3.53-2.18A4.42,4.42,0,0,1,414,314.5a10.2,10.2,0,0,1-.58-2.11,4.23,4.23,0,0,1,0-1.18,3.55,3.55,0,0,1,.4-1.11,3.88,3.88,0,0,0,.35-.84,1.47,1.47,0,0,0-.09-.75,9.41,9.41,0,0,0-2.32-3.09c-2-1.91-4-3.88-5.82-6a19.14,19.14,0,0,1-4.4-7.37,7.84,7.84,0,0,1,.15-4.57,16.4,16.4,0,0,1,2.16-3.79c3.22-4.27,2.07-10,2-15.51A83.58,83.58,0,0,0,403.67,252a67.47,67.47,0,0,1-1.6-8.33,21.28,21.28,0,0,1,.8-8.84,24.06,24.06,0,0,1,1.75-4.11c.36-.64.74-1.28,1.15-1.9l.61-.89c.17-.25.34-.51.5-.78.67-1.1,1.33-2.39,2.2-3.64a11.67,11.67,0,0,1,3.49-3.43Z" transform="translate(-316.39 -146.49)"/><path class="cls-3" d="M407.58,228.21c2.13,8.42,3.9,16.87,5.8,25.31l2.8,12.67a72.16,72.16,0,0,1,1.92,13,32.13,32.13,0,0,1-.41,6.64,40.43,40.43,0,0,1-1.76,6.37c-1.39,4.07-3,8.16-2.49,12.34a14.84,14.84,0,0,0,2.26,5.84,9.8,9.8,0,0,1,1.25,3.1,13.14,13.14,0,0,1,.07,3.31,20.4,20.4,0,0,0,3.06,12.28l-.07.05a20.66,20.66,0,0,1-3.53-12.36,13.14,13.14,0,0,0-.17-3.15,9.25,9.25,0,0,0-1.27-2.84,15.73,15.73,0,0,1-2.59-6.08,17.64,17.64,0,0,1,.33-6.64c.46-2.16,1.14-4.24,1.77-6.3a39.22,39.22,0,0,0,1.48-6.17,31.47,31.47,0,0,0,.17-6.29,70.21,70.21,0,0,0-2.32-12.56l-3.24-12.55c-2.18-8.36-4.26-16.78-6.66-25.05Z" transform="translate(-316.39 -146.49)"/><path class="cls-3" d="M406.18,218.51l-3.33,2.4c-1.1.81-2.24,1.59-3.2,2.38a6.82,6.82,0,0,0-2.09,2.47,3.69,3.69,0,0,0-.05,2.77,9.55,9.55,0,0,0,2.11,2.74,17.05,17.05,0,0,1,1.46,1.76,9.73,9.73,0,0,1,1.11,2.18,11.28,11.28,0,0,1,.5,4.67,41.37,41.37,0,0,1-.69,4.2,66.79,66.79,0,0,0-1.34,16,48.34,48.34,0,0,0,3.27,15.65,57.23,57.23,0,0,0,3.53,7.27,40.22,40.22,0,0,1,3.52,7.51l1.29,3.87c.23.56.59,1.15.91,1.79a3.87,3.87,0,0,1,.52,2.32,9.16,9.16,0,0,1-1.88,3.93,22.44,22.44,0,0,1-2.85,3.07,28.68,28.68,0,0,1-3.3,2.54,12.37,12.37,0,0,0-3.05,2.5,3.22,3.22,0,0,0-.11,3.52,11.29,11.29,0,0,0,2.5,3.08c2,1.83,4.3,3.37,6.17,5.41a10.65,10.65,0,0,1,3.1,7.44h-.07a10.46,10.46,0,0,0-3.24-7.24c-1.89-1.95-4.22-3.41-6.3-5.22a12,12,0,0,1-2.73-3.18,4.74,4.74,0,0,1-.6-2.11,3.61,3.61,0,0,1,.67-2.13,13,13,0,0,1,3.17-2.78,26.47,26.47,0,0,0,3.12-2.55,20.78,20.78,0,0,0,2.64-3,8,8,0,0,0,1.56-3.44,2.7,2.7,0,0,0-.45-1.58c-.3-.58-.68-1.15-1-1.85L409.64,291a38.66,38.66,0,0,0-3.63-7.21,59.16,59.16,0,0,1-3.83-7.38,50.63,50.63,0,0,1-3.87-16.22,70.2,70.2,0,0,1,.92-16.64c.48-2.72.93-5.27.11-7.33a7.88,7.88,0,0,0-2-2.8,12.07,12.07,0,0,1-2.86-3.71,7,7,0,0,1-.05-5.24,10,10,0,0,1,3-3.88c1.13-1,2.23-1.77,3.31-2.6l3.26-2.5Z" transform="translate(-316.39 -146.49)"/><path class="cls-3" d="M419.34,219.73a18.78,18.78,0,0,1,1.33,1.85,6.11,6.11,0,0,1,.94,2.71,5.37,5.37,0,0,1-.68,2.87,15,15,0,0,1-1.23,1.93L415,235.66a28.44,28.44,0,0,0-2.12,3.12,2.42,2.42,0,0,0-.31,1.19,3.39,3.39,0,0,0,.41,1.32c.5,1,1.35,2.09,2.08,3.4a14.16,14.16,0,0,1,1.6,4.18,12.5,12.5,0,0,1,.08,4.52,19.45,19.45,0,0,1-1.23,4.16c-.53,1.31-1.15,2.54-1.7,3.74s-1.08,2.43-1.57,3.67q-1.5,3.71-2.63,7.55c-.78,2.54-1.29,5.19-2.2,7.84a21.79,21.79,0,0,1-1.73,3.85c-.69,1.21-1.46,2.34-2.19,3.47-1.46,2.23-2.9,4.49-3.19,7A11.3,11.3,0,0,0,402,302a27.8,27.8,0,0,0,5.32,5.88A16.73,16.73,0,0,1,410,311a11.9,11.9,0,0,1,1.57,3.86,36,36,0,0,1,.54,8.15,42.61,42.61,0,0,1-3.78,15.72l0,0A42,42,0,0,0,411.63,323a34.75,34.75,0,0,0-.75-8,11.09,11.09,0,0,0-1.56-3.57,16.16,16.16,0,0,0-2.66-2.9c-1-.89-2-1.76-3-2.73a19.22,19.22,0,0,1-2.66-3.22,12.66,12.66,0,0,1-2.13-8.1c.27-2.94,1.81-5.44,3.21-7.73a28.66,28.66,0,0,0,3.53-7c.77-2.49,1.22-5.18,2-7.83s1.52-5.25,2.47-7.82c.48-1.29,1-2.56,1.52-3.82s1.1-2.48,1.54-3.69a12,12,0,0,0,.82-7.15,11.41,11.41,0,0,0-1.4-3.31c-.6-1.05-1.49-2.08-2.24-3.46a6.35,6.35,0,0,1-.8-2.51,5.52,5.52,0,0,1,.54-2.73,28.79,28.79,0,0,1,2.3-3.66l4.55-6.7c.73-1.05,1.3-2.15,1.17-2.53a6,6,0,0,0-1.54-2.45Z" transform="translate(-316.39 -146.49)"/><path class="cls-3" d="M408.09,220.81a38.47,38.47,0,0,0,3.59,6.74c.7,1,1.57,2,2.42,3.09a19.84,19.84,0,0,1,1.26,1.81,8.76,8.76,0,0,1,1,2.17,15.6,15.6,0,0,1-.09,8.76c-.72,2.73-1.74,5.18-2.52,7.68a26.92,26.92,0,0,1-3.5,7.61c-.84,1.17-1.75,2.17-2.56,3.17a10.05,10.05,0,0,0-1.84,3c-.68,2,.41,4.4,1.76,6.58s3,4.35,4.12,7a23.93,23.93,0,0,1,1.37,8.12c0,.6.17,1.25.22,2a5.26,5.26,0,0,1,0,1.18,3.37,3.37,0,0,1-.52,1.2c-.38.62-.8,1.14-1.09,1.64a1.65,1.65,0,0,0-.25.59,3.15,3.15,0,0,0,.22.66,64.88,64.88,0,0,1,2.48,7.68,28.53,28.53,0,0,1,.9,8.08,18,18,0,0,1-2.12,7.84l-3.49,7.19c-1.33,2.45-3.61,4-5.11,6.18s-1.92,4.91-2.18,7.54H402c.19-2.63.49-5.41,2-7.71s3.73-3.93,4.89-6.25l3.29-7.3a17.24,17.24,0,0,0,1.81-7.52,26.8,26.8,0,0,0-1.1-7.73,61.2,61.2,0,0,0-2.63-7.46l-.19-.46a1.69,1.69,0,0,1-.16-.78,2.93,2.93,0,0,1,.4-1.28c.37-.66.78-1.19,1.08-1.71.61-.71.13-2,0-3.42a23,23,0,0,0-1.46-7.53c-1-2.27-2.69-4.34-4.17-6.63a17.59,17.59,0,0,1-2-3.76,7.51,7.51,0,0,1-.26-4.63,12.5,12.5,0,0,1,2.16-3.86c.84-1.09,1.7-2.09,2.38-3.11a24.19,24.19,0,0,0,2.94-7c.73-2.61,1.69-5.13,2.25-7.58a12.44,12.44,0,0,0,0-7c-.61-2-2.63-3.73-4.36-6a41.56,41.56,0,0,1-4.14-7.23Z" transform="translate(-316.39 -146.49)"/><path class="cls-4" d="M431.43,247l-49.94-.15s6.55,35.82,6.55,36v.22h0c.2,2.68,2.05,5.33,5.59,7.37,7.48,4.32,19.56,4.34,27,.05,3.84-2.22,5.67-5.15,5.52-8.06h0Z" transform="translate(-316.39 -146.49)"/><path class="cls-5" d="M421,286.05c-7.63,4.41-19.91,4.13-27.73-.05-1.75-.94-5.26-3.17-6.38-9.39.14.79,1.12,6.2,1.12,6.22v.22h0c.2,2.68,2.05,5.33,5.59,7.37,7.48,4.32,19.56,4.34,27,.05,3.8-2.2,5.63-5.1,5.52-8-.15.35.75-4.62.63-4.24A12.91,12.91,0,0,1,421,286.05Z" transform="translate(-316.39 -146.49)"/><path class="cls-6" d="M393.3,287c7.82,4.18,20.1,4.45,27.73,0a12.68,12.68,0,0,0,5.49-7c.17-1,.32-1.93.27-1.76a12.91,12.91,0,0,1-5.76,7.81c-7.63,4.41-19.91,4.13-27.73-.05-1.75-.94-5.26-3.17-6.38-9.39l.61,3.37A11.66,11.66,0,0,0,393.3,287Z" transform="translate(-316.39 -146.49)"/><path class="cls-7" d="M435.09,242.43l-4.94,0a23,23,0,0,0-3.33-2.33c-10.95-6.32-28.65-6.35-39.54-.07a22.07,22.07,0,0,0-3.93,2.88l-4.17,0v7.22h0c.29,3.91,3,7.79,8.2,10.79,10.95,6.33,28.65,6.36,39.53.08,5.63-3.25,8.31-7.55,8.09-11.82h0Z" transform="translate(-316.39 -146.49)"/><ellipse class="cls-8" cx="407.11" cy="242.43" rx="16.14" ry="27.96" transform="translate(-153.92 501.73) rotate(-89.69)"/><path class="cls-9" d="M426.82,231.06a39.21,39.21,0,0,0-17.17-4.69,38.46,38.46,0,0,1,16.57,4.6c10.81,6.24,10.86,16.32.12,22.52s-28.21,6.17-39-.07c-6-3.46-8.67-8.1-8-12.61-.76,4.63,2,9.44,8.13,13,10.95,6.32,28.65,6.35,39.53.07S437.77,237.38,426.82,231.06Z" transform="translate(-316.39 -146.49)"/><path class="cls-10" d="M423.35,233.06c-9-5.21-23.61-5.24-32.58-.06s-8.92,13.6.1,18.81,23.61,5.23,32.58.06S432.37,238.27,423.35,233.06Z" transform="translate(-316.39 -146.49)"/><path class="cls-11" d="M425.93,248.84a5.07,5.07,0,0,0,1.93-4.1c-.05-.8-.89,0-1.41.2a8.29,8.29,0,0,1-2.72.67c-.86,0-1.73-.12-2.58,0a7.84,7.84,0,0,0-1.75.59l-5.74,2.49a13.29,13.29,0,0,1-3.85,1.22c-.94.1-1.88,0-2.82,0a4.32,4.32,0,0,0-2.62.85,1.36,1.36,0,0,1-.66.41c-.49.06-.78-.49-1-.93s-.67-.93-1.09-.68c-.16.72-.85,1.18-1.49,1.56-1,.61-2.1,1.1-3.06,1.77,1.71.13,3.38.51,5.07.78,6.27,1,13,1,18.74-1.8A21.29,21.29,0,0,0,425.93,248.84Z" transform="translate(-316.39 -146.49)"/><path class="cls-12" d="M390.77,236.13c9-5.17,23.56-5.15,32.58.06,3.83,2.22,6,5,6.63,7.89.79-3.92-1.41-8-6.63-11-9-5.21-23.61-5.24-32.58-.06-5.15,3-7.32,7-6.52,10.91C384.83,241.07,387,238.31,390.77,236.13Z" transform="translate(-316.39 -146.49)"/><path class="cls-13" d="M436.91,217c.24-2.15-6.84-7.8-9.06-9.32s-13.26,3-13.26,3-7.32,34.45-7.09,35.16a24.66,24.66,0,0,1,.06,3.59,21.87,21.87,0,0,0,3-.9l.07,0,.63-.23h0c.5-.56-.84-1.71,0-2.1l2.83-1.65,4.55-2.3s4.61-5,6.61-6.11,5.61-2.85,5.61-2.85l2.39-8.91S436.68,219.07,436.91,217Z" transform="translate(-316.39 -146.49)"/><path class="cls-14" d="M436.52,215.78c.24-2.15-6.83-7.8-9-9.32s-13.26,3-13.26,3-7.32,34.45-7.09,35.16a26.22,26.22,0,0,1,.06,3.59,23.82,23.82,0,0,0,3-.9l.06,0,.63-.23h.05c.49-.56-.84-1.71,0-2.11l2.83-1.64,4.55-2.3s4.6-5,6.6-6.11,5.61-2.86,5.61-2.86l2.4-8.91S436.29,217.87,436.52,215.78Z" transform="translate(-316.39 -146.49)"/><path class="cls-15" d="M431.33,211.33s-3.91-4.38-5.95-4.33-8.73,2.17-8.73,2.17,1.59,8.7,3.75,9.17,1.42-1.91,1.42-1.91S426.37,212.37,431.33,211.33Z" transform="translate(-316.39 -146.49)"/><path class="cls-16" d="M431.1,212a31.07,31.07,0,0,0-5,5.36c-1.41,2.3.23,1.72-1.66,4.25a24.75,24.75,0,0,0-2.63,4.21l-5.67,1.83,7.48-11.21S429.24,212.49,431.1,212Z" transform="translate(-316.39 -146.49)"/><path class="cls-17" d="M431.1,212s-5.56,4.17-6.14,6-6.09,6.65-6.16,8.26-.55,4.54-.55,4.54a27,27,0,0,1-.4-5.91c.24-2.43,3.73-7.81,4.35-8.15A27.77,27.77,0,0,1,431.1,212Z" transform="translate(-316.39 -146.49)"/><path class="cls-18" d="M406,245.89c.28-1-.41-2.66-.58-3.53-.51-2.65-1-5.28-1.59-7.91q-1.19-5.72-2.39-11.42c-.75-3.5-1.9-7.05-1.79-10.76a2.34,2.34,0,0,0-.38-1.7c-.66-.67-1.93-.14-2.86-.4s-1.49-1.46-2.47-1.85a4.23,4.23,0,0,0-2.88.33,12.35,12.35,0,0,0-5,2.85c-.68.73-1.21,1.58-1.89,2.31a40.7,40.7,0,0,1-3.21,2.62,9.79,9.79,0,0,0-3.49,8.56,3.93,3.93,0,0,0,.51,1.69,3.74,3.74,0,0,0,1.36,1.23c1.94,1,1.89,3.13,2.13,4.42.14.81,0,1.7.09,2.51.27,1.69,1.59,1.55,3,2.34l5,2.82a3.53,3.53,0,0,1,1.21.95,17.67,17.67,0,0,1,.8,2.15c.79,1.59,2.89,1.77,4.73,1.73a3.23,3.23,0,0,1,2,.36,2.81,2.81,0,0,1,.73,1c.53.92,1,2.48,1.94,3a7.44,7.44,0,0,0,2.62.7,9,9,0,0,0,2.84-.29A19.58,19.58,0,0,1,406,245.89Z" transform="translate(-316.39 -146.49)"/><path class="cls-19" d="M407,246.55c.27-1-.42-2.69-.59-3.58q-.78-4-1.61-8-1.2-5.81-2.43-11.6c-.75-3.56-1.92-7.19-1.8-10.89a2.5,2.5,0,0,0-.38-1.73c-.67-.73-2-.3-2.9-.62s-1.51-1.58-2.5-2a4.22,4.22,0,0,0-2.92.11,11.48,11.48,0,0,0-5,2.47c-.68.67-1.22,1.49-1.9,2.16a36.09,36.09,0,0,1-3.25,2.38,10.09,10.09,0,0,0-3.85,8.75,4.25,4.25,0,0,0,.52,1.73,5.5,5.5,0,0,0,1.38,1.34,5.29,5.29,0,0,1,2.28,3c.15.82,0,1.7.1,2.52.27,1.71,1.78,2.77,3.19,3.66l5,3.2a4,4,0,0,1,1.22,1,18.18,18.18,0,0,1,.81,2.21c.8,1.65,2.92,2,4.78,2.09a3.5,3.5,0,0,1,2,.51,3.15,3.15,0,0,1,.74,1c.54,1,1,2.56,2,3.19a8.24,8.24,0,0,0,2.65.9,8.86,8.86,0,0,0,2.87-.07A19.75,19.75,0,0,1,407,246.55Z" transform="translate(-316.39 -146.49)"/><path class="cls-18" d="M401.24,215.52a2.49,2.49,0,0,0-.14-.62,6.78,6.78,0,0,0-1.25-1.94c-.88-1.08-1.2-.57-2.58-.73a5.88,5.88,0,0,0-2.07.27c-1.81.46-4.51-.6-5.67.87a8.1,8.1,0,0,1-.7.85,4.21,4.21,0,0,1-1.13.65,17.15,17.15,0,0,0-3.64,2.32,4.94,4.94,0,0,0-1.57,1.92,7.49,7.49,0,0,0-.28,2.72,7.65,7.65,0,0,0,.09,2c.53,2.12,3.06,3,4.31,4.8,1.11,1.6,1.14,3.84,2.49,5.25a9.46,9.46,0,0,0,3.72,1.86c.45.17,1.12.28,1.43.69.43.57-.15.89-.53,1.29a5.46,5.46,0,0,1-3.7,1.93,1.77,1.77,0,0,1,1.18.51c.39.37.34.91.4,1.43a6.71,6.71,0,0,0,.33,1.54,1.53,1.53,0,0,0,.28.46,2.69,2.69,0,0,0,.33.26,4.82,4.82,0,0,0,1.92.53c.7.14,1.4.28,2.09.46a4.16,4.16,0,0,1,2.49,1.94c.54.87.89,2,1.83,2.52a3.9,3.9,0,0,0,1.1.39c.7.18,1.38.31,1.74-.39a8.12,8.12,0,0,0,.46-1.62c.23-.92.47-1.85.64-2.79a3.1,3.1,0,0,0-.33-2,7.74,7.74,0,0,1-.57-2.12c-.22-1.71-.43-3.42-.64-5.13q-.86-6.81-1.7-13.64c-.17-1.35-.4-2.71-.51-4.06C401,217.08,401.32,216.34,401.24,215.52Z" transform="translate(-316.39 -146.49)"/><path class="cls-20" d="M383.3,222.16a12.22,12.22,0,0,1,4.11.22,13.66,13.66,0,0,0,4.36.55,29.21,29.21,0,0,1,2.73,4.25c1,2.08,2.24,5.07,2.67,5.52s1.25-.49,1.25-.49L396,226.8l-4.23-5.35s-4.29-4-8.84-5.3c6.1,3.56,8.23,5.94,8.23,5.94s-2.65-.32-4.81-.49A7.56,7.56,0,0,0,383.3,222.16Z" transform="translate(-316.39 -146.49)"/><path class="cls-20" d="M391.42,214.55a7.07,7.07,0,0,0-.92,3.28,2.59,2.59,0,0,1-1,1.74l.86.64a7.65,7.65,0,0,0,.53-2.53A5.61,5.61,0,0,1,391.42,214.55Z" transform="translate(-316.39 -146.49)"/><path class="cls-20" d="M383.84,227.19a68.74,68.74,0,0,1,9.91,1,15.14,15.14,0,0,1,2.42.82l-.43-1.41s-3-.88-3.14-.88S384.65,227,383.84,227.19Z" transform="translate(-316.39 -146.49)"/><path class="cls-21" d="M382.9,216.15a37,37,0,0,1,5.21,2.77c.42.28.86.58,1.28.89a17.58,17.58,0,0,1,5.19,6.17c2.53,4.44,4,9.29,6.51,11.33a37.44,37.44,0,0,1,4.52,4.45s-6.55-11.58-7.19-12.62C395,223.51,390.39,217.48,382.9,216.15Z" transform="translate(-316.39 -146.49)"/><path class="cls-21" d="M391.45,214.51a9.3,9.3,0,0,0-1.28,2.92,3.18,3.18,0,0,1-1,1.74l.86.64a5,5,0,0,0,.61-2.26A6.42,6.42,0,0,1,391.45,214.51Z" transform="translate(-316.39 -146.49)"/><path class="cls-21" d="M395.72,227a33.5,33.5,0,0,0-3.49-.34c-1.63,0-8.83.54-8.83.54s8.39-.15,9.55.23a23.89,23.89,0,0,0,2.86.69s1,.13.83-.53A1.13,1.13,0,0,0,395.72,227Z" transform="translate(-316.39 -146.49)"/><path class="cls-21" d="M391.09,221.79a21.81,21.81,0,0,1-3.55-.26,8.16,8.16,0,0,0-4.24.63,8.47,8.47,0,0,1,3.78-.22,32.54,32.54,0,0,0,5.24.57l-.58-.57C391.65,221.84,391.09,221.79,391.09,221.79Z" transform="translate(-316.39 -146.49)"/><path class="cls-14" d="M408.88,212.38a11.07,11.07,0,0,0-4.27-3.24,5.93,5.93,0,0,0-3.1-.7,6.36,6.36,0,0,0-2.69,1.15c-.82.52-1.61,1.08-2.37,1.67a6.43,6.43,0,0,1-1.82,1.31c-1.25.37-2.4.16-3.63.85a7.41,7.41,0,0,0-3.71,6.79c.12,2.17-1.88,3.94-1.88,3.94s-3.63.79-3.22,4.23a17.92,17.92,0,0,0,1.25,5.78,6.79,6.79,0,0,0,5.3,4,5.89,5.89,0,0,1,2,.33c1.37.64,1.58,2.46,2.31,3.79,1.34,2.44,4.43,3.21,7.17,3.74,2.18.41,4.45,1.12,6.63,1.37s7.4-5.58,6.72-8.75c-.81-3.82-1.12-7.79-1.6-11.65-.34-2.69-.67-5.37-1-8.06a14,14,0,0,0-1.67-5.91C409.15,212.77,409,212.57,408.88,212.38Z" transform="translate(-316.39 -146.49)"/><path class="cls-17" d="M405,217a17.94,17.94,0,0,1,.48-1.79,23.18,23.18,0,0,0,.74-2.32,6.67,6.67,0,0,0-.12-3.2,2.1,2.1,0,0,0-.72-1.19,2.23,2.23,0,0,0-.77-.29,9.67,9.67,0,0,0-7.5,1.44,17.81,17.81,0,0,0-1.91,1.56l-2.38,2.13a2.21,2.21,0,0,1-1.14.7,9,9,0,0,0-1.26.35,6.88,6.88,0,0,0-2.14,1.49,14.81,14.81,0,0,0-4.32,8.78,9.79,9.79,0,0,0,0,2.86,14.47,14.47,0,0,0,1,3,18.12,18.12,0,0,0,2.32,4.34,13.27,13.27,0,0,0,1.81,1.63,10.51,10.51,0,0,1,1.71,2.34c.92,1.48,1.52,3.18,2.72,4.44,1.78,1.86,4.52,2.39,7.08,2.65,1.24.13,2.49.22,3.73.26a3.54,3.54,0,0,0,1.71-.22,2.52,2.52,0,0,0,1.25-1.77,7.71,7.71,0,0,0,0-2.25q-.4-4.65-.6-9.31a55.18,55.18,0,0,0-1-10,24,24,0,0,1-.92-3.57A7.74,7.74,0,0,1,405,217Z" transform="translate(-316.39 -146.49)"/><path class="cls-22" d="M400.48,246c-.25,0-.51-.05-.76-.09-2.25-.29-4.6-.88-6.2-2.54-1.19-1.27-1.79-3-2.72-4.45a9.88,9.88,0,0,0-1.7-2.34,21.31,21.31,0,0,0-1.68-1.49,9.09,9.09,0,0,1-1.89-1.33l-1.43-1.5a10.89,10.89,0,0,1-.78-.88,6.85,6.85,0,0,1-1.36-5.23,7.17,7.17,0,0,1,1-2.68c.5-.79,1.39-1.36,1.81-2.13.51-.94.82-1.95,1.41-2.86a13.41,13.41,0,0,1,2.08-2.55,7,7,0,0,1,2.14-1.49,10.15,10.15,0,0,1,1.26-.35,2.28,2.28,0,0,0,1.14-.7c.79-.72,1.59-1.42,2.38-2.13a22,22,0,0,1,1.91-1.56,5,5,0,0,1,.66-.4,9.43,9.43,0,0,1,3.33-1.15,6,6,0,0,0-.72.82,2,2,0,0,0-.1.52,3.23,3.23,0,0,1,0,.47,3.94,3.94,0,0,1-.21.69,5,5,0,0,1-.68,1.31,11.13,11.13,0,0,1-2.42,2.27,33.9,33.9,0,0,1-4.69,3.22,8.07,8.07,0,0,0-2.39,1.64,23.38,23.38,0,0,0-1.91,2.4,9.14,9.14,0,0,0-1.29,2.19,7.58,7.58,0,0,0-.27,3,7.83,7.83,0,0,0,.45,2.5,7.22,7.22,0,0,0,1.4,2.13,6,6,0,0,1,1,1.88c.72,1.58,1.83,3,2.58,4.52.59,1.22.95,2.55,1.58,3.75a4.93,4.93,0,0,0,2.93,2.65,6.1,6.1,0,0,0,1.54.14l2.39,0C401.31,244.31,400.36,245.29,400.48,246Z" transform="translate(-316.39 -146.49)"/><path class="cls-23" d="M400.45,210.4a2.92,2.92,0,0,1-.43.22,6.81,6.81,0,0,1-2.14.66,5.93,5.93,0,0,0-1.28.07c-.33.14-.66.64-.91.89a17.55,17.55,0,0,1-4.7,3.58c-1.54.68-3.42,1-4.36,2.45a4.69,4.69,0,0,0-.6,1.46,12.73,12.73,0,0,1-1.28,3.66c-.6.89-1.54,1.6-1.77,2.66a3.78,3.78,0,0,0,.09,1.53,9.77,9.77,0,0,0,3.82,5.71,29.43,29.43,0,0,1,3.21,2.15c2.08,1.85,2.71,4.94,4.77,6.84a11,11,0,0,0,3,2.41,4.31,4.31,0,0,1,1.89,1.19c-2.25-.29-4.6-.88-6.2-2.54-1.19-1.27-1.79-3-2.72-4.45a9.88,9.88,0,0,0-1.7-2.34,21.31,21.31,0,0,0-1.68-1.49,9.09,9.09,0,0,1-1.89-1.33l-1.43-1.5a10.89,10.89,0,0,1-.78-.88,6.85,6.85,0,0,1-1.36-5.23,7.17,7.17,0,0,1,1-2.68c.5-.79,1.39-1.36,1.81-2.13.51-.94.82-1.95,1.41-2.86a13.41,13.41,0,0,1,2.08-2.55,7,7,0,0,1,2.14-1.49,10.15,10.15,0,0,1,1.26-.35,2.28,2.28,0,0,0,1.14-.7c.79-.72,1.59-1.42,2.38-2.13a22,22,0,0,1,1.91-1.56,5,5,0,0,1,.66-.4.39.39,0,0,0,0,.18h2.62a.62.62,0,0,1,.4.1C401.09,209.78,400.76,210.22,400.45,210.4Z" transform="translate(-316.39 -146.49)"/><path class="cls-18" d="M393,217.48l-.09.17a3.41,3.41,0,0,0-.6,1.84,6.66,6.66,0,0,0,.39,1.22,8.59,8.59,0,0,1,.09,1.12,18.33,18.33,0,0,0,1,2.54,16.56,16.56,0,0,1,.92,5.79,1.24,1.24,0,0,0,.08.58,2.37,2.37,0,0,0,.32.39,1.87,1.87,0,0,1,.21,1.71c-.17.57-.48,1.09-.67,1.66a6.32,6.32,0,0,0,.24,4.13c.46,1.32,1.15,2.56,1.63,3.88a5.85,5.85,0,0,1,.36,1.41,7.47,7.47,0,0,0,.09.94c.38,1.54,2.06,1.87,3.35,2.17a36.53,36.53,0,0,0,6.18.68q-2.54-7.52-5-15.05a46.49,46.49,0,0,1-1.75-6.52c-.39-2.25-.45-4.55-.72-6.82a8.37,8.37,0,0,1-.34-1.88c.07-.67.31-1.32.34-2a21.37,21.37,0,0,1,.32-4.45,2,2,0,0,0,.06-1.59c-.65.9-1.09,1.93-1.75,2.83a12.36,12.36,0,0,1-2.89,2.65c-.39.27-1.23.62-1.46,1-.12.21-.05.57-.1.81A3.66,3.66,0,0,1,393,217.48Z" transform="translate(-316.39 -146.49)"/><path class="cls-15" d="M421.85,233c-.49,1.63-5,4.87-5,4.87s-3,6.22-4.79,7.48a9.2,9.2,0,0,0-2.32,3.61,12.66,12.66,0,0,1-5.26.73l-.94-.15c-.47-.48,1.32-1,.89-1.37a2.48,2.48,0,0,1-1.05-2c0-.66-2-1.18-2-1.82s-.6-1.49-1.16-2.12l-.47-.53c-.89-1.11-1.77-2.23-2.66-3.35a8.82,8.82,0,0,1-1.14-1.65,4.49,4.49,0,0,1,0-4c.65-1.3,2-2.42,1.89-3.86a4.39,4.39,0,0,0-1.07-2.22,23.66,23.66,0,0,1-2.72-4.42,8.18,8.18,0,0,1-.64-5,6.6,6.6,0,0,1,2.65-3.8,6.3,6.3,0,0,0,2-1.6c.59-1,.23-2.19.23-3.31a5.35,5.35,0,0,1,3.64-4.79,11.61,11.61,0,0,1,5.68-.08,21,21,0,0,1,5.49-.88c3.53-.17,9.26,9,9.35,10s-.28,4.39,1.88,7.27S422.36,231.37,421.85,233Z" transform="translate(-316.39 -146.49)"/><path class="cls-24" d="M403.87,203.92s.85-.11,1-.1.21,2.91.23,3.41c.12,3.45-1.16-2.66-1.19-2.6a12.1,12.1,0,0,0-1,4.1c.15,2.1-.19,2.36.75,5s1.6,2.64,1.66,5.61a24.57,24.57,0,0,1,0,3.18s-2-2.1-3.3-3.72a36.6,36.6,0,0,0-4.9-4.28,12,12,0,0,0,1.07,3.05c.57.82,3.41,4.43,3.41,4.43s-2-.83-3.15-1.42l-1.14-.58a5.07,5.07,0,0,0,1.89,2.56,13.32,13.32,0,0,0,4.07,1.71l2.81,2.49a24.92,24.92,0,0,1,1.08,4.48,21.13,21.13,0,0,1-.48,3.61,6.39,6.39,0,0,1-3-1.5,45.66,45.66,0,0,1-4.15-5s-.18,2.41.54,3.53a12.58,12.58,0,0,0,3.12,4.06,8.19,8.19,0,0,0,3.32,1.86,8,8,0,0,0-2.63,1.47c-.67.79-1.72,5.18-1.72,5.18a3.26,3.26,0,0,0-1.5-2.72c-1.51-.84-4.66-5.15-4.66-6.37a6,6,0,0,1,1.94-4.49c1.58-1.43-.09-3.86-1.59-5.53a9.93,9.93,0,0,1-2.54-7.3c.19-3.14,3.23-5.1,4.4-5.61s.62-3,.73-4.62S401.32,203.92,403.87,203.92Z" transform="translate(-316.39 -146.49)"/><path class="cls-25" d="M404.87,203.82l-1,.1.13.67a32,32,0,0,0,.87,4.4,27.06,27.06,0,0,0,1.52,3.76s3.5-5.33,4.69-6.06c0,1.15-3.18,9-3.18,9a15,15,0,0,1,.74,2.77c.12,1.09.24,4.33.24,4.33s5.06-6.84,6.78-10.89a35.09,35.09,0,0,1-2.61,8.32,25.28,25.28,0,0,1-2.86,4.82l-.6.83v1.78l.4,2,2.64-1.48s2.39-4,2.95-5,1.07-2.19,1.07-2.19.37-.41-.18,2.69a30.06,30.06,0,0,1-1.88,6.19c-.08.16-3.84,3.19-3.84,3.19s.8,3.54-.65,5.74,2.66.21,2.66.21,6.78-3.15,8.15-6.52,3-4.23,3.25-9.29-1.33-3.33-1.76-6.42-.2-4.47-2.9-8-4.7-5.91-6.78-5.52-3.28,1-4.91,1A11.73,11.73,0,0,1,404.87,203.82Z" transform="translate(-316.39 -146.49)"/><path class="cls-26" d="M403.84,204.94a13.66,13.66,0,0,0-.21,7.05c1,3.22,2.2,4.37,2.27,7.1.06,2.06-.54,4.58.16,6.31,1.39,3.41,1.65,5.7,1.43,7.31-.25,1.87-1,5.16-.76,6.48s1.77.9,1.77.9l.64-7.12S408.65,220,408,219.12s-2.9-6.73-3.37-7.57A19.08,19.08,0,0,1,403.84,204.94Z" transform="translate(-316.39 -146.49)"/><path class="cls-26" d="M408.22,236.63s-4-.56-6-2.86a15.82,15.82,0,0,1-2.38-4.06,11.79,11.79,0,0,0,3.81,6.31,15.28,15.28,0,0,0,4.86,2Z" transform="translate(-316.39 -146.49)"/><path class="cls-26" d="M416.65,221.41s-2.22,6.6-3.53,7.91a9,9,0,0,1-3.53,1.88V233a19.27,19.27,0,0,0,3.77-2.64C415.4,228.14,416.59,221.55,416.65,221.41Z" transform="translate(-316.39 -146.49)"/><path class="cls-26" d="M410.9,207.34s-1,2.37-2,4.47a24.7,24.7,0,0,0-1.49,4.62l-1-1.77,1.85-3.58Z" transform="translate(-316.39 -146.49)"/><path class="cls-26" d="M397.4,215.1s6.16,6.92,10.76,12.12c.8.89.24.89.24.89A40.18,40.18,0,0,1,397.4,215.1Z" transform="translate(-316.39 -146.49)"/><path class="cls-26" d="M398.16,221.15a13.31,13.31,0,0,0,3,1.47,9.24,9.24,0,0,0,3.37.48l.75.78a10.61,10.61,0,0,1-7.13-2.73Z" transform="translate(-316.39 -146.49)"/><path class="cls-26" d="M415.66,212.21s-3.64,8.6-7.48,12.5a1.22,1.22,0,0,0,0,1.74S412.94,222.79,415.66,212.21Z" transform="translate(-316.39 -146.49)"/><path class="cls-17" d="M403.84,204.94s-.89,5.64,1,8.74a11.9,11.9,0,0,1,1.76,7.73,26.16,26.16,0,0,0,1.17,7.4c.7,2.82,1.36,4.42-.66,10.77-1.19,3.69,3,6.42,2.72,6.66s.24-7.59.57-10.72-1.31-6.38-1.65-10.54c-.56-6.92-.49-7.92-2-10.56C404.85,211.16,404.06,210.69,403.84,204.94Z" transform="translate(-316.39 -146.49)"/><path class="cls-17" d="M416.65,221.41s-2.22,5.49-3.53,6.8a9,9,0,0,1-3.53,1.88v1.82a21.16,21.16,0,0,0,3.92-2.44C414.63,228.39,416.59,221.55,416.65,221.41Z" transform="translate(-316.39 -146.49)"/><path class="cls-17" d="M408.22,235.69s-4-.56-6-2.86a27.84,27.84,0,0,1-2.38-3.22,8.39,8.39,0,0,0,3.33,5.21,19.62,19.62,0,0,0,5.34,2.24Z" transform="translate(-316.39 -146.49)"/><path class="cls-18" d="M422.19,230.59c-.48.51-13.26,14.4-17.71,19.14l-.94-.15c-.47-.48,1.32-1,.89-1.37a2.48,2.48,0,0,1-1.05-2c0-.66-2-1.18-2-1.82s-.6-1.49-1.16-2.12c0,0,1.07-3.54,2.25-4.3s3.55-2.32,3.55-2.32,5.13-2.33,6.08-2.67S421.91,230.64,422.19,230.59Z" transform="translate(-316.39 -146.49)"/><path class="cls-17" d="M406.23,240.1s-1.35,3.08-1.14,4.65a28.39,28.39,0,0,1,0,4.07c0,.52-2-.3-2-.3l-1.65.58,2.79,1s.84.53,3.5.43a5.55,5.55,0,0,0,1.6-.3c.75-.25,2-.82,2.53-.59s.1-1.15.1-1.15v-1.64l5.46-5.7.84-3.36a35.71,35.71,0,0,1-2.72,3.94,37.45,37.45,0,0,0-4.23,4.39c-.15.41-1.41,1.41-1.41,1.41l-1.25-1.41Z" transform="translate(-316.39 -146.49)"/><path class="cls-27" d="M413.05,245.19a.28.28,0,0,0-.13,0c-1,.36-3.6,5.05-4.24,4.42-.47-.47-4.45,2.32-5.15.25a2.27,2.27,0,0,1,0-.76c.07.56.17.69.27.05,1-7.1,3.29-6.87,3.29-6.87Z" transform="translate(-316.39 -146.49)"/><path class="cls-28" d="M428.83,243.32a7.62,7.62,0,0,1-4.47,2.37c-4.54.91-10.06-.7-11.31-.5l-5.93-2.88s-2.25-.23-3.29,6.87c-.1.64-.2.51-.27-.05.26-1.79,1.4-5.92,1.31-6-.47-.55-1.11,1.28-1.05.7,0,0,0-.06,0-.1a14.5,14.5,0,0,1,.89-3.87c.44-1.13,3.47-3.2,4.08-3.55,2.53-1.52,2.78-.48,5.76-2.82s7.64-2.9,7.64-2.9,6.47,2.42,7,4.82-.71,3.33.24,4.74C430,240.89,429.81,242.16,428.83,243.32Z" transform="translate(-316.39 -146.49)"/><path class="cls-15" d="M414,234.1s.49-1,3.32-1.77,4.85-1.5,4.85-1.5,6.22,2.13,6.63,4.56-.4,2.9-.16,3.91,1.53,1.41,0,3.8L423.14,239l3.77-.74-4.64.34-4.89-3.25,6.81-1.05-8.53.39Z" transform="translate(-316.39 -146.49)"/><path class="cls-16" d="M412.13,235l-.11,0-.94.29s1.58,0,2.34.12a7.11,7.11,0,0,1,2.73,1,36.05,36.05,0,0,1,2.91,2.3,17.61,17.61,0,0,0,4.43,2.15c.88.33,5.18,2.23,5.18,2.23L423.1,240a22.68,22.68,0,0,1-3.09-2.05c-1-.87-2.11-2.63-3.93-2.93A15.36,15.36,0,0,0,412.13,235Z" transform="translate(-316.39 -146.49)"/><path class="cls-17" d="M413.75,234.08a9.47,9.47,0,0,1,3.11.8c2,.75,3.54,2.92,4.6,3.55s7.21,4.67,7.21,4.67-4.12-2.11-7.21-3.65c-2.58-1.3-3.23-2.86-6-4.06a10.46,10.46,0,0,0-3.3-.41C412.31,234.53,412.54,234,413.75,234.08Z" transform="translate(-316.39 -146.49)"/><path class="cls-13" d="M428.83,243.32c-.41,1.08-3.09,2.76-6,3s-8.44-.5-9.42-1a3,3,0,0,0-.36-.18l-5.93-2.88s-2.25-.23-3.29,6.87c-.1.64-.2.51-.27-.05a19.27,19.27,0,0,1,.26-5.32s0-.06,0-.1q.07-.32.15-.6c1.67-5.92,6.4-.16,7.6.19s5.69,1.92,9.57,2S424.91,245.07,428.83,243.32Z" transform="translate(-316.39 -146.49)"/><path class="cls-17" d="M410.9,207.34s-2.31,2-4.71,6.95c-.53,1.08.57,1,.57,1A57.1,57.1,0,0,1,410.9,207.34Z" transform="translate(-316.39 -146.49)"/><path class="cls-17" d="M415.66,212.21s-5.41,10.6-7.5,11.38c-1.12.42-.92,2-.13,1.76C410.26,224.72,414.7,215.74,415.66,212.21Z" transform="translate(-316.39 -146.49)"/><path class="cls-17" d="M397.4,215s8.52,9.58,10.74,10.39c1.13.42.64,2.44.64,2.44S399.57,218.51,397.4,215Z" transform="translate(-316.39 -146.49)"/><path class="cls-17" d="M397.89,221a19,19,0,0,0,2.72,1.11,9.39,9.39,0,0,0,3.37.49l.76.77a12.35,12.35,0,0,1-3.58-.61A12.07,12.07,0,0,1,397.89,221Z" transform="translate(-316.39 -146.49)"/><path class="cls-15" d="M411.52,235.39a12.1,12.1,0,0,0-3.3,1.24,19.48,19.48,0,0,0-3.36,3s3-.09,3.33.21,2.89,2,2.89,2,.81,1.46,5.57,2.32,5.07,1.06,11.39-1c-6.37-2.5-6.74-2.95-6.74-2.95l-2.71,2.59,1.28-3a25.81,25.81,0,0,0-3.42-2.73,2.67,2.67,0,0,1-1.16-.9L411.73,240l2.61-4.41A11.88,11.88,0,0,0,411.52,235.39Z" transform="translate(-316.39 -146.49)"/><path class="cls-15" d="M431.33,211.33l.32.88a23.25,23.25,0,0,0-3.29,3.41c-.68,1.15-1.78,1.84-2,3.17a21.41,21.41,0,0,1-2.16,4.37l-.53,7.41s2.58,1.41,3.47,1.82,3-1.82,3-1.82a76.89,76.89,0,0,1,2-8c.62-1.34,3.6-6.14,3.6-6.77s-3.55-5.58-8.27-7.94C427,207.59,431.84,211.57,431.33,211.33Z" transform="translate(-316.39 -146.49)"/><g class="cls-29"><path class="cls-30" d="M518.69,278a15.73,15.73,0,0,0-2.62-2.13,2.26,2.26,0,0,0-.26-.16c.75-12.75-.5-26.12-3.8-40.8a20.89,20.89,0,0,0,2.09-5.13l0-.15a7.35,7.35,0,0,0,.39-4,1.92,1.92,0,0,0-1.94-1.49,5.51,5.51,0,0,0-2.45.81l-.06,0a9.25,9.25,0,0,0-2.57,2.05,46.44,46.44,0,0,0-11.69-1.36A97.24,97.24,0,0,0,482,226.85a91.32,91.32,0,0,0-15.42,3.5l-1,.32a30.39,30.39,0,0,0-5.05,1.94A8,8,0,0,0,457,231.5a3.43,3.43,0,0,0-.56.05,2.31,2.31,0,0,0-1.6.94,3.94,3.94,0,0,0-.28,3,9.65,9.65,0,0,0,3.56,5.75,108.16,108.16,0,0,0,.51,14.22c.08,1,.17,2,.24,3.05a83.92,83.92,0,0,0,4.38,21,17.45,17.45,0,0,0-3.68,6.44,2.15,2.15,0,0,0,.3,1.95,3.7,3.7,0,0,0,2.89,1.19h.11a13.41,13.41,0,0,0,4.89-1.08,26.12,26.12,0,0,0,8.55,1.22c2.65,0,5.31-.24,7.66-.45l.76-.07a101,101,0,0,0,25.15-5.07c.24,0,.52,0,.83,0s.66,0,1,0,.67,0,1,0a6.94,6.94,0,0,0,1.07-.07l.65-.09c1.46-.19,3.28-.42,4.53-1.76C520.52,280.11,519.15,278.43,518.69,278Z" transform="translate(-316.39 -146.49)"/><path class="cls-31" d="M518.59,277.84a15.73,15.73,0,0,0-2.62-2.13,2.26,2.26,0,0,0-.26-.16c.75-12.75-.5-26.12-3.8-40.81a20.82,20.82,0,0,0,2.09-5.12l0-.15a7.38,7.38,0,0,0,.39-4A1.92,1.92,0,0,0,512.5,224a5.53,5.53,0,0,0-2.45.82l-.06,0a9.48,9.48,0,0,0-2.57,2.06,46.49,46.49,0,0,0-11.69-1.36,98.85,98.85,0,0,0-13.85,1.17,92.28,92.28,0,0,0-15.42,3.51l-1,.32a31.25,31.25,0,0,0-5.05,1.93,8,8,0,0,0-3.48-1.1,5.09,5.09,0,0,0-.56,0,2.35,2.35,0,0,0-1.6.95,3.92,3.92,0,0,0-.28,3,9.65,9.65,0,0,0,3.56,5.76,108.22,108.22,0,0,0,.51,14.22l.24,3.05a83.75,83.75,0,0,0,4.38,20.95,17.49,17.49,0,0,0-3.68,6.45,2.15,2.15,0,0,0,.3,1.95,3.74,3.74,0,0,0,2.89,1.19h.11a13.62,13.62,0,0,0,4.89-1.08,26.12,26.12,0,0,0,8.55,1.22c2.65,0,5.31-.24,7.66-.45l.76-.07a101,101,0,0,0,25.15-5.07,7.42,7.42,0,0,0,.83,0l1,0c.33,0,.66,0,1,0a8.47,8.47,0,0,0,1.07-.07c.21,0,.43-.06.65-.09,1.46-.19,3.28-.42,4.53-1.76C520.42,280,519.05,278.32,518.59,277.84Z" transform="translate(-316.39 -146.49)"/><path class="cls-32" d="M518.49,277.73a15.63,15.63,0,0,0-2.62-2.13,2.26,2.26,0,0,0-.26-.16c.75-12.76-.5-26.12-3.8-40.81a20.73,20.73,0,0,0,2.09-5.13l.05-.15a7.34,7.34,0,0,0,.39-4,1.93,1.93,0,0,0-1.94-1.49,5.41,5.41,0,0,0-2.45.82l-.06,0a9.63,9.63,0,0,0-2.57,2.05,46.51,46.51,0,0,0-11.69-1.35,98.85,98.85,0,0,0-13.85,1.17,91.3,91.3,0,0,0-15.42,3.51l-1,.32a31.25,31.25,0,0,0-5.05,1.93,8,8,0,0,0-3.48-1.1,3.43,3.43,0,0,0-.56,0,2.32,2.32,0,0,0-1.6,1,3.91,3.91,0,0,0-.28,2.95,9.63,9.63,0,0,0,3.56,5.76,108.29,108.29,0,0,0,.51,14.22l.24,3.05a83.84,83.84,0,0,0,4.38,20.95,17.49,17.49,0,0,0-3.68,6.45,2.18,2.18,0,0,0,.29,2,3.76,3.76,0,0,0,2.9,1.18h.11a13.59,13.59,0,0,0,4.89-1.07,26.12,26.12,0,0,0,8.55,1.22c2.65,0,5.31-.24,7.66-.46l.76-.06a101.43,101.43,0,0,0,25.15-5.07,7.42,7.42,0,0,0,.83,0l1,0c.33,0,.66,0,1,0a6.94,6.94,0,0,0,1.07-.07l.65-.08c1.46-.19,3.28-.42,4.53-1.76C520.32,279.89,519,278.2,518.49,277.73Z" transform="translate(-316.39 -146.49)"/><path class="cls-33" d="M518.39,277.61a16,16,0,0,0-2.62-2.12l-.26-.17c.75-12.75-.5-26.11-3.8-40.8a20.73,20.73,0,0,0,2.09-5.13l.05-.15a7.34,7.34,0,0,0,.39-4,1.93,1.93,0,0,0-1.94-1.49,5.41,5.41,0,0,0-2.45.82l-.06,0a9.63,9.63,0,0,0-2.57,2.05,46.51,46.51,0,0,0-11.69-1.35,97.36,97.36,0,0,0-13.85,1.17,92.3,92.3,0,0,0-15.42,3.5l-1,.33a30.34,30.34,0,0,0-5.05,1.93,8,8,0,0,0-3.48-1.1,3.43,3.43,0,0,0-.56,0,2.32,2.32,0,0,0-1.6.95,3.91,3.91,0,0,0-.28,3,9.63,9.63,0,0,0,3.56,5.76,108.29,108.29,0,0,0,.51,14.22l.24,3A83.84,83.84,0,0,0,463,279.09a17.49,17.49,0,0,0-3.68,6.45,2.19,2.19,0,0,0,.29,1.95,3.76,3.76,0,0,0,2.9,1.18h.11a13.59,13.59,0,0,0,4.89-1.07,26.12,26.12,0,0,0,8.55,1.22c2.65,0,5.31-.25,7.66-.46l.75-.07a101.27,101.27,0,0,0,25.15-5.06c.25,0,.53,0,.84,0s.66,0,1,0,.66,0,1,0a6.94,6.94,0,0,0,1.07-.07l.65-.09c1.46-.18,3.28-.42,4.53-1.75C520.22,279.78,518.85,278.09,518.39,277.61Z" transform="translate(-316.39 -146.49)"/><path class="cls-34" d="M518.29,277.5a16.69,16.69,0,0,0-2.62-2.13,2.26,2.26,0,0,0-.26-.16c.75-12.75-.5-26.11-3.8-40.8a20.73,20.73,0,0,0,2.09-5.13l0-.15a7.34,7.34,0,0,0,.39-4,1.93,1.93,0,0,0-1.94-1.49,5.47,5.47,0,0,0-2.45.81l-.06,0a9.44,9.44,0,0,0-2.57,2.05,46.49,46.49,0,0,0-11.69-1.36,97.11,97.11,0,0,0-13.85,1.18,91.32,91.32,0,0,0-15.42,3.5l-1,.32a30.39,30.39,0,0,0-5,1.94,8,8,0,0,0-3.48-1.11,3.43,3.43,0,0,0-.56,0,2.32,2.32,0,0,0-1.6,1,3.91,3.91,0,0,0-.28,2.95,9.61,9.61,0,0,0,3.56,5.75,106.46,106.46,0,0,0,.51,14.22l.24,3a83.92,83.92,0,0,0,4.38,21,17.45,17.45,0,0,0-3.68,6.44,2.18,2.18,0,0,0,.29,1.95,3.73,3.73,0,0,0,2.9,1.19h.11a13.41,13.41,0,0,0,4.89-1.08,26.08,26.08,0,0,0,8.55,1.22c2.65,0,5.31-.24,7.66-.45l.75-.07a100.79,100.79,0,0,0,25.15-5.07c.25,0,.53,0,.84,0s.66,0,1,0,.66,0,1,0a7,7,0,0,0,1.07-.07l.65-.09c1.46-.19,3.28-.42,4.53-1.75C520.12,279.66,518.75,278,518.29,277.5Z" transform="translate(-316.39 -146.49)"/><path class="cls-35" d="M518.19,277.39a16.14,16.14,0,0,0-2.62-2.13,2.26,2.26,0,0,0-.26-.16c.75-12.75-.5-26.12-3.81-40.81a20.47,20.47,0,0,0,2.1-5.12l0-.15a7.36,7.36,0,0,0,.39-4,1.93,1.93,0,0,0-1.94-1.5,5.49,5.49,0,0,0-2.45.82l-.06,0a9.48,9.48,0,0,0-2.57,2.06,46.52,46.52,0,0,0-11.7-1.36,98.7,98.7,0,0,0-13.84,1.17,92.28,92.28,0,0,0-15.42,3.51l-1,.32a30.63,30.63,0,0,0-5,1.94,8,8,0,0,0-3.48-1.11,3.66,3.66,0,0,0-.57.05,2.31,2.31,0,0,0-1.59.94,3.87,3.87,0,0,0-.28,2.95,9.6,9.6,0,0,0,3.56,5.76,106.52,106.52,0,0,0,.51,14.22l.24,3.05a83.75,83.75,0,0,0,4.38,20.95,17.35,17.35,0,0,0-3.68,6.45,2.18,2.18,0,0,0,.29,1.95,3.77,3.77,0,0,0,2.9,1.19h.11a13.62,13.62,0,0,0,4.89-1.08,26.08,26.08,0,0,0,8.55,1.22c2.65,0,5.31-.24,7.66-.45l.75-.07A100.79,100.79,0,0,0,509.39,283c.25,0,.53,0,.84,0s.66,0,1,0,.66,0,1,0a8.61,8.61,0,0,0,1.07-.07l.65-.09c1.46-.19,3.28-.42,4.53-1.76C520,279.55,518.65,277.87,518.19,277.39Z" transform="translate(-316.39 -146.49)"/><path class="cls-36" d="M518.09,277.28a15.63,15.63,0,0,0-2.62-2.13,2.26,2.26,0,0,0-.26-.16c.75-12.76-.5-26.12-3.81-40.81a20.47,20.47,0,0,0,2.1-5.12l0-.16a7.34,7.34,0,0,0,.39-4,1.93,1.93,0,0,0-1.94-1.49,5.33,5.33,0,0,0-2.45.82l-.06,0a9.48,9.48,0,0,0-2.57,2.06,46.06,46.06,0,0,0-11.7-1.36,98.7,98.7,0,0,0-13.84,1.17A91.3,91.3,0,0,0,466,229.68l-1,.32a31.5,31.5,0,0,0-5,1.93,8,8,0,0,0-3.48-1.1,3.64,3.64,0,0,0-.57,0,2.32,2.32,0,0,0-1.59.95,3.87,3.87,0,0,0-.28,3,9.63,9.63,0,0,0,3.56,5.76,106.58,106.58,0,0,0,.51,14.22l.24,3.05a83.84,83.84,0,0,0,4.38,20.95A17.35,17.35,0,0,0,459,285.2a2.18,2.18,0,0,0,.29,1.95,3.72,3.72,0,0,0,2.9,1.18h.11a13.59,13.59,0,0,0,4.89-1.07,26.08,26.08,0,0,0,8.55,1.22c2.65,0,5.31-.24,7.66-.45l.75-.07a100.79,100.79,0,0,0,25.15-5.07,7.64,7.64,0,0,0,.84,0l1,0c.33,0,.66,0,1,0a7.06,7.06,0,0,0,1.07-.08l.65-.08c1.46-.19,3.28-.42,4.53-1.76C519.92,279.44,518.55,277.75,518.09,277.28Z" transform="translate(-316.39 -146.49)"/><path class="cls-37" d="M518,277.16a16,16,0,0,0-2.62-2.12,1.83,1.83,0,0,0-.26-.16c.75-12.76-.5-26.12-3.81-40.81a20.38,20.38,0,0,0,2.1-5.13l.05-.15a7.34,7.34,0,0,0,.39-4,1.93,1.93,0,0,0-1.94-1.49,5.33,5.33,0,0,0-2.45.82l-.06,0a9.63,9.63,0,0,0-2.57,2.05,46.53,46.53,0,0,0-11.7-1.35,97.21,97.21,0,0,0-13.84,1.17,92.3,92.3,0,0,0-15.42,3.5l-1,.33a30.58,30.58,0,0,0-5,1.93,8.06,8.06,0,0,0-3.48-1.1,3.64,3.64,0,0,0-.57,0,2.32,2.32,0,0,0-1.59,1,3.87,3.87,0,0,0-.28,2.95,9.63,9.63,0,0,0,3.56,5.76,106.58,106.58,0,0,0,.51,14.22l.24,3.05a83.84,83.84,0,0,0,4.38,20.95,17.35,17.35,0,0,0-3.68,6.45,2.18,2.18,0,0,0,.29,2,3.76,3.76,0,0,0,2.9,1.18h.11a13.59,13.59,0,0,0,4.89-1.07,26.08,26.08,0,0,0,8.55,1.22c2.65,0,5.31-.24,7.66-.46l.75-.07a100.82,100.82,0,0,0,25.15-5.06c.25,0,.53,0,.84,0s.66,0,1,0,.66,0,1,0a7.12,7.12,0,0,0,1.07-.07l.65-.09c1.46-.18,3.28-.42,4.53-1.75C519.82,279.33,518.45,277.64,518,277.16Z" transform="translate(-316.39 -146.49)"/><path class="cls-38" d="M517.89,277.05a17.16,17.16,0,0,0-2.62-2.13l-.26-.16c.75-12.75-.5-26.11-3.81-40.8a20.38,20.38,0,0,0,2.1-5.13l.05-.15a7.34,7.34,0,0,0,.39-4,1.93,1.93,0,0,0-1.94-1.49,5.33,5.33,0,0,0-2.45.82l-.06,0a9.44,9.44,0,0,0-2.57,2,46.53,46.53,0,0,0-11.7-1.35A97.21,97.21,0,0,0,481.18,226a91.32,91.32,0,0,0-15.42,3.5l-1,.33a29.71,29.71,0,0,0-5,1.93,8.11,8.11,0,0,0-3.48-1.11,3.66,3.66,0,0,0-.57.05,2.32,2.32,0,0,0-1.59.95,3.87,3.87,0,0,0-.28,3,9.61,9.61,0,0,0,3.56,5.75,106.46,106.46,0,0,0,.51,14.22l.24,3a83.92,83.92,0,0,0,4.38,21,17.31,17.31,0,0,0-3.68,6.44,2.18,2.18,0,0,0,.29,1.95,3.73,3.73,0,0,0,2.9,1.19h.11A13.41,13.41,0,0,0,467,287a26.08,26.08,0,0,0,8.55,1.22c2.65,0,5.31-.24,7.66-.45l.75-.07a101.27,101.27,0,0,0,25.15-5.06c.25,0,.53,0,.84,0s.66,0,1,0,.66,0,1,0a7.12,7.12,0,0,0,1.07-.07l.65-.09c1.46-.19,3.28-.42,4.53-1.75C519.72,279.21,518.35,277.53,517.89,277.05Z" transform="translate(-316.39 -146.49)"/><path class="cls-39" d="M517.79,276.94a16.58,16.58,0,0,0-2.62-2.13l-.26-.16c.75-12.75-.5-26.12-3.81-40.81a20.47,20.47,0,0,0,2.1-5.12l0-.15a7.36,7.36,0,0,0,.39-4,1.93,1.93,0,0,0-1.94-1.5,5.45,5.45,0,0,0-2.45.82l-.06,0a9.25,9.25,0,0,0-2.57,2.05,46.52,46.52,0,0,0-11.7-1.36,97.09,97.09,0,0,0-13.84,1.18,91.32,91.32,0,0,0-15.42,3.5l-1,.32a30.63,30.63,0,0,0-5,1.94,8.11,8.11,0,0,0-3.48-1.11,3.66,3.66,0,0,0-.57,0,2.31,2.31,0,0,0-1.59.94,3.87,3.87,0,0,0-.28,3,9.6,9.6,0,0,0,3.56,5.76,106.52,106.52,0,0,0,.51,14.22l.24,3a83.75,83.75,0,0,0,4.38,21,17.35,17.35,0,0,0-3.68,6.45,2.18,2.18,0,0,0,.29,1.95,3.77,3.77,0,0,0,2.9,1.19H462a13.41,13.41,0,0,0,4.89-1.08,26.08,26.08,0,0,0,8.55,1.22c2.65,0,5.31-.24,7.66-.45l.75-.07A100.79,100.79,0,0,0,509,282.55c.25,0,.53,0,.84,0s.66,0,1,0,.66,0,1,0a7.12,7.12,0,0,0,1.07-.07l.65-.09c1.46-.19,3.28-.42,4.53-1.76C519.62,279.1,518.25,277.42,517.79,276.94Z" transform="translate(-316.39 -146.49)"/><path class="cls-40" d="M517.69,276.83a16,16,0,0,0-2.62-2.13l-.26-.16c.75-12.76-.5-26.12-3.81-40.81a20.47,20.47,0,0,0,2.1-5.12l0-.15a7.29,7.29,0,0,0,.4-4A1.93,1.93,0,0,0,511.6,223a5.45,5.45,0,0,0-2.45.82l-.06,0a9.48,9.48,0,0,0-2.57,2.06,46.06,46.06,0,0,0-11.7-1.36A98.7,98.7,0,0,0,481,225.72a92.28,92.28,0,0,0-15.42,3.51l-1,.32a31.5,31.5,0,0,0-5,1.93,8.1,8.1,0,0,0-3.48-1.1,5.46,5.46,0,0,0-.57,0,2.33,2.33,0,0,0-1.59,1,3.87,3.87,0,0,0-.28,2.95,9.63,9.63,0,0,0,3.56,5.76,106.58,106.58,0,0,0,.51,14.22l.24,3.05a83.84,83.84,0,0,0,4.38,20.95,17.35,17.35,0,0,0-3.68,6.45,2.18,2.18,0,0,0,.29,1.95,3.77,3.77,0,0,0,2.9,1.19h.11a13.62,13.62,0,0,0,4.89-1.08,26.08,26.08,0,0,0,8.55,1.22c2.65,0,5.31-.24,7.66-.45l.75-.07a100.79,100.79,0,0,0,25.15-5.07,7.64,7.64,0,0,0,.84,0l1,0c.32,0,.66,0,1,0a8.74,8.74,0,0,0,1.07-.07c.21,0,.42-.06.65-.09,1.46-.19,3.28-.42,4.53-1.76C519.52,279,518.14,277.3,517.69,276.83Z" transform="translate(-316.39 -146.49)"/><path class="cls-41" d="M517.59,276.72a16,16,0,0,0-2.62-2.13,1.83,1.83,0,0,0-.26-.16c.75-12.76-.5-26.12-3.81-40.81a20.38,20.38,0,0,0,2.1-5.13l0-.15a7.15,7.15,0,0,0,.39-4,1.91,1.91,0,0,0-1.93-1.49,5.33,5.33,0,0,0-2.45.82l-.06,0a9.63,9.63,0,0,0-2.57,2,46.53,46.53,0,0,0-11.7-1.35,98.7,98.7,0,0,0-13.84,1.17,91.3,91.3,0,0,0-15.42,3.51l-1,.32a30.58,30.58,0,0,0-5,1.93,8.1,8.1,0,0,0-3.48-1.1,3.64,3.64,0,0,0-.57,0,2.29,2.29,0,0,0-1.59.95,3.87,3.87,0,0,0-.28,3A9.63,9.63,0,0,0,457,240a106.58,106.58,0,0,0,.51,14.22l.24,3.05a83.84,83.84,0,0,0,4.38,20.95,17.35,17.35,0,0,0-3.68,6.45,2.18,2.18,0,0,0,.29,1.95,3.76,3.76,0,0,0,2.9,1.18h.11a13.59,13.59,0,0,0,4.89-1.07,26.08,26.08,0,0,0,8.55,1.22c2.65,0,5.31-.24,7.66-.46l.75-.06a101.24,101.24,0,0,0,25.15-5.07,7.64,7.64,0,0,0,.84,0l1,0c.32,0,.66,0,1,0a7.12,7.12,0,0,0,1.07-.07l.65-.08c1.46-.19,3.28-.43,4.53-1.76C519.42,278.88,518,277.19,517.59,276.72Z" transform="translate(-316.39 -146.49)"/></g><path class="cls-30" d="M517.59,276.72a16,16,0,0,0-2.62-2.13,1.83,1.83,0,0,0-.26-.16c.75-12.76-.5-26.12-3.81-40.81a20.38,20.38,0,0,0,2.1-5.13l0-.15a7.15,7.15,0,0,0,.39-4,1.91,1.91,0,0,0-1.93-1.49,5.33,5.33,0,0,0-2.45.82l-.06,0a9.63,9.63,0,0,0-2.57,2,46.53,46.53,0,0,0-11.7-1.35,98.7,98.7,0,0,0-13.84,1.17,91.3,91.3,0,0,0-15.42,3.51l-1,.32a30.58,30.58,0,0,0-5,1.93,8.1,8.1,0,0,0-3.48-1.1,3.64,3.64,0,0,0-.57,0,2.29,2.29,0,0,0-1.59.95,3.87,3.87,0,0,0-.28,3A9.63,9.63,0,0,0,457,240a106.58,106.58,0,0,0,.51,14.22l.24,3.05a83.84,83.84,0,0,0,4.38,20.95,17.35,17.35,0,0,0-3.68,6.45,2.18,2.18,0,0,0,.29,1.95,3.76,3.76,0,0,0,2.9,1.18h.11a13.59,13.59,0,0,0,4.89-1.07,26.08,26.08,0,0,0,8.55,1.22c2.65,0,5.31-.24,7.66-.46l.75-.06a101.24,101.24,0,0,0,25.15-5.07,7.64,7.64,0,0,0,.84,0l1,0c.32,0,.66,0,1,0a7.12,7.12,0,0,0,1.07-.07l.65-.08c1.46-.19,3.28-.43,4.53-1.76C519.42,278.88,518,277.19,517.59,276.72Z" transform="translate(-316.39 -146.49)"/><path class="cls-42" d="M514.31,275.56a3.15,3.15,0,0,0-.83-.38c.93-14.12-.7-28.05-3.83-41.78a18.29,18.29,0,0,0,2.23-5.24,6.64,6.64,0,0,0,.42-3.49c-.32-1.26-2.16-.22-2.76.1a8.83,8.83,0,0,0-2.71,2.35c-8.31-2.33-17.35-1.57-25.78-.35a90.27,90.27,0,0,0-15.23,3.46,33.28,33.28,0,0,0-6.41,2.47l-.06,0c-1.06-.55-2.57-1.4-3.81-1.2s-1.11,1.53-.91,2.51c.37,1.85,1.75,4.52,3.62,5.31-.4,6,.26,11.85.71,17.86a82.26,82.26,0,0,0,4.55,21.33,16.21,16.21,0,0,0-3.9,6.49c-.38,1.29,1.2,1.62,2.08,1.63a13,13,0,0,0,5-1.16c5.19,2,11.65,1.25,16.88.79a100.75,100.75,0,0,0,25.1-5.09,7.62,7.62,0,0,0,1,0,22.19,22.19,0,0,0,2.94,0c1.52-.22,3.38-.28,4.5-1.48.71-.75.3-1.53-.31-2.17A14.79,14.79,0,0,0,514.31,275.56Z" transform="translate(-316.39 -146.49)"/><path class="cls-43" d="M512.18,280.47c-.68,0-1.4.1-2.12.12a9.69,9.69,0,0,1-2.51.15s0,0,0,.06a2.83,2.83,0,0,0,.36.16,159.66,159.66,0,0,1-22.56,4.49c-5.39.62-12.14,1.42-17.73-.16a11.09,11.09,0,0,1-1.48-.38,12.34,12.34,0,0,1-1.34.3l-.38.12c-1.63.49-4.94,1-3.49-2a24.4,24.4,0,0,1,2.46-4l.25-.3v0l.27-.42-.06-.47A174.08,174.08,0,0,1,459,239.48a16,16,0,0,1-2.68-4.08,7.58,7.58,0,0,1-.4-.68c-.15-.31-1-2.39-.62-2.52a2.62,2.62,0,0,1,1.41.15,13.41,13.41,0,0,1,1.84.64,1.38,1.38,0,0,1,.81.19c.19-.08.39-.15.6-.22l-.1-.05a54.74,54.74,0,0,1,8.87-3,90.34,90.34,0,0,1,13.75-2.7,76.77,76.77,0,0,1,23.55.42h0a3.39,3.39,0,0,1,.84.1c.56-.61,1.26-1.13,1.85-1.67a.34.34,0,0,1,.3-.1c.71-.49,2.07-1.31,2.43-.64a3.21,3.21,0,0,1-.11,1.86,26.1,26.1,0,0,1-1.52,4.81c-.11.33-.24.66-.37,1l0,1.1a195.06,195.06,0,0,1,2.92,19.37c.61,6.92.55,13.92.67,20.87a4.08,4.08,0,0,1,.14,1l.48.5.26.15a10.69,10.69,0,0,1,2.72,2.77C517.43,280,512.69,280.43,512.18,280.47Z" transform="translate(-316.39 -146.49)"/><path class="cls-44" d="M516.63,278.75a10.69,10.69,0,0,0-2.72-2.77l-.26-.15-.48-.5a4.08,4.08,0,0,0-.14-1c-.12-6.95-.06-13.95-.67-20.87a195.06,195.06,0,0,0-2.92-19.37l0-1.1c.13-.33.26-.66.37-1a26.1,26.1,0,0,0,1.52-4.81,3.21,3.21,0,0,0,.11-1.86c-.36-.67-1.72.15-2.43.64a.34.34,0,0,0-.3.1c-.59.54-1.29,1.06-1.85,1.67a3.39,3.39,0,0,0-.84-.1h0a76.77,76.77,0,0,0-23.55-.42,90.34,90.34,0,0,0-13.75,2.7,54.74,54.74,0,0,0-8.87,3l.1.05c-.21.07-.41.14-.6.22a1.38,1.38,0,0,0-.81-.19,13.41,13.41,0,0,0-1.84-.64,2.62,2.62,0,0,0-1.41-.15c-.38.13.47,2.21.62,2.52a7.58,7.58,0,0,0,.4.68,16,16,0,0,0,2.68,4.08,174.08,174.08,0,0,0,4.95,38.63l.06.47-.27.42v0l-.25.3a24.4,24.4,0,0,0-2.46,4c-1.45,3,1.86,2.52,3.49,2l.38-.12a12.34,12.34,0,0,0,1.34-.3,11.09,11.09,0,0,0,1.48.38c5.59,1.58,12.34.78,17.73.16A159.66,159.66,0,0,0,508,281a2.83,2.83,0,0,1-.36-.16s0,0,0-.06a9.69,9.69,0,0,0,2.51-.15c.72,0,1.44-.08,2.12-.12C512.69,280.43,517.43,280,516.63,278.75ZM510,274.54a.46.46,0,0,1-.66.27,30,30,0,0,0-3.6-2.53c.76,2.12.93,4-1.86,4.94-3.8,1.28-7.57,2.92-11.48,3.81-7.35,1.68-15.34,2.72-22.69.56a.46.46,0,0,1-.32-.55c1-2.8,3.06-5,4.87-7.29-1,.8-2,1.81-2.91,2.53-.75.56-2.24,1.85-3.33,1.46s-1.42-2.08-1.66-3.14c-.58-2.66-1.62-5.19-2.16-7.87a101.74,101.74,0,0,1-2.25-15.65A19.3,19.3,0,0,1,462,241a11.38,11.38,0,0,1,6.63-7,57.87,57.87,0,0,1,12-3.7,56.57,56.57,0,0,1,14.72-1.5c3.19.17,7.35.37,9.7,2.89,2.17,2.34,3.26,5.81,4.1,8.81,2.56,9.15,2.71,18.78,2,28.19A17.08,17.08,0,0,1,510,274.54Z" transform="translate(-316.39 -146.49)"/><path class="cls-45" d="M464.76,262.41s-4.38-20.43,1.46-24.7,21.56-8.75,34.91-6.84c0,0-31.35,1.94-34.79,9.43C463.12,247.27,464.76,262.41,464.76,262.41Z" transform="translate(-316.39 -146.49)"/><path class="cls-42" d="M466.07,282.73a.31.31,0,0,1-.18-.05,11.56,11.56,0,0,1-1.13-.82.34.34,0,0,1,0-.48.32.32,0,0,1,.47,0,11.05,11.05,0,0,0,1.05.75.35.35,0,0,1,.1.47A.34.34,0,0,1,466.07,282.73Z" transform="translate(-316.39 -146.49)"/><path class="cls-42" d="M475.6,285.36h-.27A.35.35,0,0,1,475,285a.36.36,0,0,1,.34-.34h.27c.68,0,1.48,0,2.37-.06a.37.37,0,0,1,.36.33.35.35,0,0,1-.33.35C477.1,285.34,476.29,285.36,475.6,285.36Zm5.93-.29a.34.34,0,0,1,0-.67l2.65-.24a.34.34,0,0,1,.37.3.35.35,0,0,1-.31.37l-2.65.24Zm-9.72-.07h-.07a17.22,17.22,0,0,1-2.6-.73.32.32,0,0,1-.2-.43.33.33,0,0,1,.43-.2,17.43,17.43,0,0,0,2.5.7.34.34,0,0,1,.27.4A.33.33,0,0,1,471.81,285Zm15.9-.57a.34.34,0,0,1-.34-.3.34.34,0,0,1,.29-.37l2.63-.36a.35.35,0,0,1,.39.29.35.35,0,0,1-.29.38l-2.64.36Zm6.14-.92a.34.34,0,0,1-.34-.28.35.35,0,0,1,.28-.39c.87-.15,1.75-.31,2.61-.48a.32.32,0,0,1,.39.26.33.33,0,0,1-.26.4c-.87.17-1.75.34-2.63.49Zm6.08-1.24a.34.34,0,0,1-.33-.26.33.33,0,0,1,.25-.4c.88-.21,1.74-.44,2.56-.67a.34.34,0,1,1,.18.65c-.83.23-1.7.46-2.58.67Zm5.95-1.75a.35.35,0,0,1-.32-.22.35.35,0,0,1,.2-.44c.9-.32,1.71-.67,2.43-1a.33.33,0,0,1,.44.16.32.32,0,0,1-.15.44c-.74.36-1.57.71-2.48,1.05Z" transform="translate(-316.39 -146.49)"/><path class="cls-42" d="M511.28,277.59a.36.36,0,0,1-.25-.11.34.34,0,0,1,0-.48,4.58,4.58,0,0,0,.8-1,.33.33,0,0,1,.46-.11.34.34,0,0,1,.12.46,5.12,5.12,0,0,1-.92,1.1A.32.32,0,0,1,511.28,277.59Z" transform="translate(-316.39 -146.49)"/></g></g></svg>