<svg xmlns="http://www.w3.org/2000/svg" xmlns:xlink="http://www.w3.org/1999/xlink" viewBox="0 0 200 200"><defs><style>.cls-1{isolation:isolate;}.cls-2{fill:none;}.cls-3{fill:url(#Áåçûìÿííûé_ãðàäèåíò_18);}.cls-4{fill:url(#Áåçûìÿííûé_ãðàäèåíò_17);}.cls-5{fill:url(#Áåçûìÿííûé_ãðàäèåíò_16);}.cls-6{fill:#505050;}.cls-7{fill:#757575;mix-blend-mode:screen;}.cls-8{fill:url(#Áåçûìÿííûé_ãðàäèåíò_19);}.cls-9{fill:url(#Áåçûìÿííûé_ãðàäèåíò_15);}.cls-10{fill:#2d2c2e;}.cls-11{fill:url(#Áåçûìÿííûé_ãðàäèåíò_18-2);}.cls-12{fill:url(#Áåçûìÿííûé_ãðàäèåíò_14);}.cls-13{fill:#c0bfbf;}.cls-14{fill:#959596;}.cls-15{fill:url(#Áåçûìÿííûé_ãðàäèåíò_2035);}.cls-16{fill:url(#Áåçûìÿííûé_ãðàäèåíò_45);}.cls-17{fill:#c8c7c6;}</style><linearGradient id="Áåçûìÿííûé_ãðàäèåíò_18" x1="402.87" y1="279.75" x2="439.18" y2="279.75" gradientUnits="userSpaceOnUse"><stop offset="0.04" stop-color="#575858"/><stop offset="0.42" stop-color="#777779"/><stop offset="0.98" stop-color="#d7d8d9"/></linearGradient><linearGradient id="Áåçûìÿííûé_ãðàäèåíò_17" x1="405.99" y1="273.63" x2="436.07" y2="273.63" gradientUnits="userSpaceOnUse"><stop offset="0.04" stop-color="#818181"/><stop offset="0.42" stop-color="#959596"/><stop offset="0.81" stop-color="#b8b6b8"/><stop offset="0.98" stop-color="#acabac"/></linearGradient><linearGradient id="Áåçûìÿííûé_ãðàäèåíò_16" x1="409.64" y1="271.52" x2="432.41" y2="271.52" gradientUnits="userSpaceOnUse"><stop offset="0.04" stop-color="#838383"/><stop offset="0.42" stop-color="#bbb"/><stop offset="0.98" stop-color="#d2d2d2"/></linearGradient><linearGradient id="Áåçûìÿííûé_ãðàäèåíò_19" x1="410.65" y1="270.21" x2="432.09" y2="270.21" gradientUnits="userSpaceOnUse"><stop offset="0.04" stop-color="#343333"/><stop offset="0.42" stop-color="#302f31"/><stop offset="0.98" stop-color="#383739"/></linearGradient><linearGradient id="Áåçûìÿííûé_ãðàäèåíò_15" x1="412.11" y1="267.38" x2="431" y2="267.38" gradientUnits="userSpaceOnUse"><stop offset="0.04" stop-color="#474649"/><stop offset="0.42" stop-color="#3f3e40"/><stop offset="0.98" stop-color="#474649"/></linearGradient><linearGradient id="Áåçûìÿííûé_ãðàäèåíò_18-2" x1="414.72" y1="265.58" x2="428.39" y2="265.58" xlink:href="#Áåçûìÿííûé_ãðàäèåíò_18"/><linearGradient id="Áåçûìÿííûé_ãðàäèåíò_14" x1="416.19" y1="261.15" x2="426.92" y2="261.15" gradientUnits="userSpaceOnUse"><stop offset="0.04" stop-color="#dfdfde"/><stop offset="0.42" stop-color="#bbb"/><stop offset="0.98" stop-color="#dfdfde"/></linearGradient><linearGradient id="Áåçûìÿííûé_ãðàäèåíò_2035" x1="421.5" y1="262.03" x2="421.5" y2="257.42" gradientUnits="userSpaceOnUse"><stop offset="0.42" stop-color="#2c2b2e"/><stop offset="0.98" stop-color="#353336"/></linearGradient><linearGradient id="Áåçûìÿííûé_ãðàäèåíò_45" x1="419.94" y1="244.38" x2="423.34" y2="244.38" gradientUnits="userSpaceOnUse"><stop offset="0" stop-color="#9e9e9e"/><stop offset="0.15" stop-color="#989898"/><stop offset="0.45" stop-color="#bfbfbf"/><stop offset="0.47" stop-color="#c2c2c2"/><stop offset="0.89" stop-color="#d9d9d8"/></linearGradient></defs><title>light_off</title><g class="cls-1"><g id="Layer_1" data-name="Layer 1"><rect class="cls-2" width="200" height="200"/><polygon class="cls-2" points="116.45 76.3 82.8 77.09 68.94 127.96 130.28 127.96 116.45 76.3"/><polygon class="cls-2" points="107.45 76.3 91.75 76.96 87.18 132.6 112.02 132.6 107.45 76.3"/><path class="cls-3" d="M433.9,289.25c-7.06,4.08-18.56,4.06-25.67,0-3.54-2-5.33-4.72-5.36-7.39s1.9-10.83,5.45-12.88c7.07-4.08,25.65.32,25.65.32,5.21,5.87,5.18,9.89,5.21,12.56S437.45,287.2,433.9,289.25Z" transform="translate(-321.37 -208.49)"/><path class="cls-4" d="M431.63,267.51c-5.89-3.4-15.42-3.42-21.27,0s-5.83,8.88.07,12.28,15.41,3.42,21.26,0S437.52,270.91,431.63,267.51Z" transform="translate(-321.37 -208.49)"/><path class="cls-5" d="M429.05,266.89c-4.46-2.58-11.67-2.59-16.1,0s-4.41,6.72.05,9.29,11.67,2.59,16.1,0S433.51,269.46,429.05,266.89Z" transform="translate(-321.37 -208.49)"/><path class="cls-6" d="M421,268.91l-.31,5.24-9.78.39s-2.82-.05-4.26,1.64a22.35,22.35,0,0,0-3.37,7.84,6.29,6.29,0,0,1-.44-2.2,24.69,24.69,0,0,1,2.61-9.55c.34-.37,2.79-3.14,3.21-3.53C412.21,265.44,421,268.91,421,268.91Z" transform="translate(-321.37 -208.49)"/><path class="cls-7" d="M435.17,271.39c-.7-.35-1.29-.54-1.3.24,0,1.31.08,3.91-4.77,6.19-4.49,2.12-3.57,3-.62,3.4a7.88,7.88,0,0,0,7-3.45C436.57,275.82,437.18,272.42,435.17,271.39Z" transform="translate(-321.37 -208.49)"/><path class="cls-8" d="M432.09,271v.34c-.14,1.38-1.16,2.74-3.11,3.8-.2.1-.37.19-.58.28a18.3,18.3,0,0,1-11.58.84,14.34,14.34,0,0,1-2.21-.76c-.27-.12-.53-.25-.79-.39-2.09-1.12-3.14-2.61-3.17-4.08v0a3.57,3.57,0,0,1,0-.46.41.41,0,0,0,0-.15v0a10.05,10.05,0,0,1,1.55-4l0-.06h0a2.57,2.57,0,0,1,.89-.95l.56-.26a12.94,12.94,0,0,1,2.35-.8,23,23,0,0,1,5.74-.63h.38a18.8,18.8,0,0,1,7.15,1.41c.21.08.4.18.59.27a2.09,2.09,0,0,1,.64.59,1.4,1.4,0,0,1,.09.17,0,0,0,0,1,0,0,10.84,10.84,0,0,1,1.33,4.41C432.06,270.66,432.09,270.84,432.09,271Z" transform="translate(-321.37 -208.49)"/><path class="cls-9" d="M428.25,271.29a14.83,14.83,0,0,1-11.36.85,4.51,4.51,0,0,1-.78-.3,8,8,0,0,1-1.22-.58c-2.33-1.36-3.19-3.25-2.6-5h0a5.51,5.51,0,0,1,2.55-2.78,13.8,13.8,0,0,1,7.36-1.57h0a13.52,13.52,0,0,1,6,1.6,5.91,5.91,0,0,1,2.44,2.43s0,0,0,0a.3.3,0,0,1,0,.1,0,0,0,0,1,0,0C431.49,267.9,430.65,269.88,428.25,271.29Z" transform="translate(-321.37 -208.49)"/><path class="cls-10" d="M419.19,269.76c-2.36.62-3,1.91-3.08,2.08a8,8,0,0,1-1.22-.58c-2.33-1.36-3.19-3.25-2.6-5h0a2.57,2.57,0,0,1,.89-.95l.56-.26a12.94,12.94,0,0,1,2.35-.8C417.68,265.71,421.18,269.22,419.19,269.76Z" transform="translate(-321.37 -208.49)"/><path class="cls-11" d="M428.39,266h0a2.51,2.51,0,0,0-.1-.6l-1.38-4.27H416.19l-1.36,4.12a2.45,2.45,0,0,0-.11.76h0a3.46,3.46,0,0,0,2,2.81,10.61,10.61,0,0,0,9.67,0,3.4,3.4,0,0,0,2-2.83Z" transform="translate(-321.37 -208.49)"/><path class="cls-12" d="M425.35,263.37a8.31,8.31,0,0,1-7.58,0,.57.57,0,0,1-.13-.08c-2-1.23-1.93-3.15.11-4.34l.21-.1a8.34,8.34,0,0,1,7.37.12C427.44,260.17,427.45,262.15,425.35,263.37Z" transform="translate(-321.37 -208.49)"/><path class="cls-13" d="M424.68,258.21a6.87,6.87,0,0,0-6.27,0c-1.73,1-1.72,2.64,0,3.65a6.87,6.87,0,0,0,6.27,0C426.43,260.86,426.42,259.22,424.68,258.21Z" transform="translate(-321.37 -208.49)"/><path class="cls-14" d="M421.64,261.15s-2.95-.51-4,2.12c-2-1.23-1.93-3.15.11-4.34l.21-.1a5.13,5.13,0,0,1,2.16-.26C421,258.72,421.64,261.15,421.64,261.15Z" transform="translate(-321.37 -208.49)"/><path class="cls-15" d="M423.58,256.31a3.69,3.69,0,0,1,.7,2,13.15,13.15,0,0,1,.17,1.5s0,1.36-2.9,1.36-3-1.51-3-1.51.34-3,1.57-3.78A2.69,2.69,0,0,1,423.58,256.31Z" transform="translate(-321.37 -208.49)"/><path class="cls-16" d="M423.34,232.46H423a1,1,0,0,0-.2-.15,2.61,2.61,0,0,0-2.4,0,.92.92,0,0,0-.24.17h-.26v23.27h0a.86.86,0,0,0,.49.66,2.66,2.66,0,0,0,2.41,0,.83.83,0,0,0,.49-.73h0Z" transform="translate(-321.37 -208.49)"/><path class="cls-17" d="M422.84,231.76a2.67,2.67,0,0,0-2.4,0,.74.74,0,0,0,0,1.4,2.63,2.63,0,0,0,2.41,0C423.51,232.78,423.5,232.15,422.84,231.76Z" transform="translate(-321.37 -208.49)"/></g></g></svg>