<svg id="Layer_1" data-name="Layer 1" xmlns="http://www.w3.org/2000/svg" viewBox="0 0 694 893.59"><defs><style>.cls-1{fill:#fff;}.cls-2{fill:#3b55a2;}.cls-3{fill:#e82929;}</style></defs><path class="cls-1" d="M427.86,9.47a342.14,342.14,0,1,1-62,9.57,343.41,343.41,0,0,1,62-9.57m-1.61,25.42c-2.43,4.07-1.38,9.09.81,13,2.14,4.5,5.88,8.2,7.21,13.07.74,2.34-1,4.4-3,5.44a21.18,21.18,0,0,0-9.93,12.11c-2.72,9-.89,18.54-2.05,27.75-1.07-5.55-1.27-11.29-3.05-16.69-1.52-4.65-5.85-7.66-10.34-9.12-.26.29-.89.88-1.19,1.14a50.89,50.89,0,0,1-.8,30.17c-2.56,8.33-6.59,16.26-7.22,25a33.34,33.34,0,0,0,3.7,17c4.49,9.1,12.28,16.22,21.12,21A45.87,45.87,0,0,0,420,187.45c-25-4.07-50.78-5.5-75.92-1.51-23.2,3.61-45.75,12.41-64.43,26.74-.3,1.08-.56,2.21-.9,3.31.9,2.18,1.84,4.36,2.75,6.59-3.59,1.86-7.07,4-10.54,6-.36,1.18-.68,2.36-1.1,3.54.77,1.78,1.64,3.57,2.48,5.34-2.39,1.46-5.06,2.57-7.31,4.22a33.7,33.7,0,0,0-1.08,3.6q42.42,82.7,84.85,165.37c1.14.42,2.31.88,3.46,1.31a307.62,307.62,0,0,1,30.83-10.68c25.91-7.53,53.25-10.42,80.11-7.27,29.27,3.32,57.46,12.58,85,22.63,1.16-.46,2.28-.88,3.44-1.28Q594.14,331.21,636.41,247c-.27-1.21-.6-2.38-.88-3.55-2.73-1.9-5.53-3.68-8.3-5.49.73-1.58,1.49-3.15,2.13-4.77.12-1.24-.48-2.44-.72-3.63-3.41-2.52-6.89-4.87-10.46-7.16.44-1.16.92-2.32,1.4-3.48-.36-1.2-.24-2.73-1.24-3.63-16-14.24-35.76-24-56.52-29-28.5-6.95-58.53-5.73-87.16,0a87,87,0,0,0,0-10.95,47.39,47.39,0,0,0,21.85-27.27,27.69,27.69,0,0,0,.34-12.83c-2.21-11.14-7.88-21.1-11.85-31.64-3.24-8.4-5.73-17.71-3.24-26.62a1.84,1.84,0,0,0-2.82-.67c-3.4,1.67-4.15,5.77-4.69,9.1s-.67,7.39-3.8,9.41c-.7-6.36-3.28-12.41-3.45-18.85a38.68,38.68,0,0,1,1.91-12.77c-.36-.32-1.14-.85-1.51-1.14-5.32,4-10.77,8.7-12.68,15.37.78-5,2.14-9.92,1.48-15a17.12,17.12,0,0,0-5.25-10c-4.31-4.05-9.06-7.53-13.29-11.68-1.58-1.58-3.4-3.73-2.66-6.09,1.06-3.31,3.57-5.74,5.67-8.32.82-.72-.35-1.49-.68-2.13-5.25,2.55-10.8,5.43-13.75,10.66M213.46,130.17a333.25,333.25,0,0,0-35.68,45.17,323.28,323.28,0,0,0-21.66,315.75,327.16,327.16,0,0,0,99.39,121.29,322.68,322.68,0,0,0,280.61,52.75c59.17-16.35,113.29-50.19,154.34-95.79a323.28,323.28,0,0,0-6.41-440.44c-2.34-.55-4.79-.14-7.14-.25H612.69a12.41,12.41,0,0,0-.48,1.75,280,280,0,0,1,74.71,82.79,274.57,274.57,0,0,1,3.85,272A278.06,278.06,0,0,1,598.58,584a274.54,274.54,0,0,1-273.66,14.22,277.57,277.57,0,0,1-103.7-91.47,274.64,274.64,0,0,1-21.91-269.8,278.13,278.13,0,0,1,87.32-106.45c-.11-.49-.45-1.4-.6-1.82-23.44,0-46.8,0-70.23,0-1.06-.13-1.66.91-2.34,1.52m47.78,150.12c-23,8.83-46,17.79-69,26.65-4.37,1.52-7.94,6.49-6.13,11.16,1.74,4.26,7.29,5.63,11.33,4C220,313.43,242.52,304.61,265,296c4.9-1.32,9.19-6.65,7-11.74-1.78-4-7-5.34-10.83-3.92m370.93,0a7.12,7.12,0,0,0-4.81,6.62c0,3.93,3,7.36,6.65,8.66q34.28,13.26,68.46,26.52c3.74,1.44,8.66.58,10.91-3,2.72-4.52-.65-10.29-5.21-11.93q-34.27-13.33-68.62-26.6a10.76,10.76,0,0,0-7.38-.25M272.55,303.05c-26.4,9.86-52.8,20-79.18,30-4.26,1.55-7.89,5.75-7.51,10.46.32,3.94,4,6.91,7.77,7.33,4.23.72,8-1.53,11.81-2.84q35.67-13.53,71.42-27.09A13.88,13.88,0,0,0,283,317c2.33-2.65,3.25-6.72,1.47-9.9-2.25-4.07-7.65-5.38-11.92-4m348.2,0c-3.33.94-6.14,4-6.22,7.48-.08,4.56,3.37,8.47,7.5,10q39,14.77,78,29.59c4.29,1.76,9.94,1,12.7-3,2.34-3.17,1.45-7.73-1-10.52-2.65-3.33-7.1-4.12-10.87-5.69q-35.88-13.72-71.92-27.32a12,12,0,0,0-8.16-.54m-341,25.85q-42.43,16-84.91,32.21c-5.17,1.89-9.43,7.92-7.18,13.51,2.28,5.34,9.26,6.89,14.29,4.83l84.27-32c5.16-1.86,9.27-7.65,7.33-13.13s-8.72-7.27-13.8-5.44m332.46,0A8.85,8.85,0,0,0,606,337c0,4.82,3.73,9,8.1,10.57q42,15.9,83.85,31.81a12.41,12.41,0,0,0,11.64-1.2,8.43,8.43,0,0,0,3.36-7.53c-.36-4.36-3.74-8-7.74-9.57q-42-16-83.94-31.87a13.18,13.18,0,0,0-9.05-.34M289.81,354.68c-29.91,11.18-59.68,22.65-89.46,33.89-4.51,1.6-8.31,5.69-8.64,10.6a9.11,9.11,0,0,0,5,8.43,13.32,13.32,0,0,0,11,.41q44.29-16.85,88.6-33.64c5.22-2,9.36-7.84,7.62-13.46s-8.78-7.86-14.08-6.23m313.09,0c-3.68,1-7,4.18-7.17,8.11-.44,5.24,3.41,9.9,8.07,11.67Q648,391.22,692.21,408a13.28,13.28,0,0,0,10.51-.1,9.16,9.16,0,0,0,5.53-8.69c-.25-4.89-4.09-8.94-8.54-10.57-29.22-11.1-58.56-22.24-87.79-33.31a14.09,14.09,0,0,0-9-.65M297.36,381.93q-46,17.42-91.92,34.88c-5.07,1.85-9.38,6.75-9.14,12.41a10.22,10.22,0,0,0,6.9,8.86c2.51,1.14,5.31.59,7.93.85,20.87,8.35,42.2,15.39,63.62,22,24.23,7.46,48.4,15.32,71.85,25,1.1,0,0,1.64-.64.94-8.57-1.91-17-4.39-25.43-6.49-6.58-1.65-13.81-3.15-20.27-.31-4.87,2.34-9.93,5.8-11.72,11.23-2.46,7.17-3,14.79-4,22.29-1.88,17.31-3.78,34.71-5.62,52,30.79,21.17,63.77,40,99.86,50.26,6.51-34.95,12.73-70,16.81-105.25,1.58-14.73,3-29.51,2.32-44.29-.38-5.95-.92-12.17-3.93-17.44-3.2-5.77-8.13-10.39-13.44-14.23-7.42-5.43-15.78-9.52-24.24-13-14.35-5.87-29.36-10-44.46-13.65-1-.15-2-.7-3-.26-19.85,6.43-39.92,12.27-60.05,17.82a9.33,9.33,0,0,1-.48-.88c20.46-7.81,40.93-15.5,61.28-23.34,5.31-2.08,9.64-7.75,8.4-13.66-.94-4.88-5.87-8.05-10.62-8.16-3.55-.28-6.75,1.18-10,2.4m290.87-1.38a9.94,9.94,0,0,0-6.41,9.34c.08,5.41,4.25,10,9.22,11.75,20.2,7.71,40.49,15.34,60.69,23.05-.17.22-.41.68-.56.88-20.37-5.65-40.65-11.59-60.77-18-9.22,2-18.36,4.48-27.35,7.24-13.18,4.13-26.29,9-38.15,16.22-7.3,4.53-14.35,10.1-18.73,17.62-2.6,4.26-3.35,9.28-3.85,14.11a162.65,162.65,0,0,0,0,25.07c.94,15.31,2.83,30.47,4.92,45.7,4,27.58,8.79,55,13.87,82.38a362.13,362.13,0,0,0,49.29-20,434.4,434.4,0,0,0,49.63-29.27c-1.52-13.32-2.92-26.7-4.25-40.05-1.28-11.38-1.68-22.92-4.41-34.07-1.44-6.32-7-10.53-12.74-12.76-7.18-2.56-14.84-.37-21.89,1.39-7.81,2.05-15.63,4.26-23.57,6-.13-.24-.24-.67-.36-.89,22.13-9.2,44.77-16.76,67.66-23.77s45.59-14.34,67.71-23.32c1.12-.59,2.44-.21,3.68-.23a11.92,11.92,0,0,0,10-4.68,10,10,0,0,0,1.33-8.5,14.38,14.38,0,0,0-8.78-8.93Q646.71,398.7,599,380.55a14.75,14.75,0,0,0-10.74,0M444.73,85.08c.4-.16,1.28-.42,1.74-.56,4.83,8,11.49,15.52,12.93,25.09.83,4.44-2.14,8.15-3,12.35a33.83,33.83,0,0,0-.12,12.49c-2.42-3.83-5.88-7.08-7.33-11.44-.42-.24-1.35-.69-1.7-.93-1.18.39-2.31.75-3.45,1l-1.3,1.14a8.26,8.26,0,0,1,.06,3.21A83.87,83.87,0,0,1,437.15,143c-2.64-5.38-4.35-11.59-3-17.56,1.76-7.79,5.95-14.69,8.29-22.26a45,45,0,0,0,2.25-18.13M409.49,108c.5.15,1.45.46,1.92.59-1.1,6-1.79,12.23-.41,18.22,1.16,4.93,4.13,9.23,5.07,14.17,1.25,6.26.18,12.6-1.11,18.7-.46,0-1.47-.06-2-.06-.31-4.45-.62-9-2.38-13.13-.72-1.54-2-3.31-3.93-3.26-.84-.16-2.25.22-2.61-.87-1.56-4.73-1.21-9.86-.5-14.74A86.2,86.2,0,0,1,409.49,108m41.8,28.89c5.85,8.22,12,16.62,15.35,26.33,3.12,9.27,3.12,19.4,1.77,29a38.76,38.76,0,0,1-16.48,26.39,186.91,186.91,0,0,0,4.26-47.45,195.49,195.49,0,0,0-4.9-34.26m-15.11,20a117.89,117.89,0,0,0,9.39-19.75,195.69,195.69,0,0,1,4.19,24.07,273.62,273.62,0,0,1-1.31,44.07A122.27,122.27,0,0,1,446,219.61c-7.38-4.33-15-9.74-18.11-18-2.57-6.95-2.75-14.69-1.67-22,1.42-8.23,5.91-15.48,10-22.67m37.9,35.18c26.41-5.41,53.95-7.06,80.49-1.68,21.64,4.3,42.48,13.65,59.08,28.26q-37.93,92.87-75.88,185.79c-30.86-12-63.56-20.24-96.74-20.38a203.49,203.49,0,0,0-80.51,16.28q-37.81-92.31-75.73-184.6c19.39-14.21,42.71-22.43,66.48-25.21,23-2.79,46.3-1.16,69,2.59a34.21,34.21,0,0,0,12.55,24.2c-1.36.2-3.26-.6-3.94,1-.05,4,.34,8,.37,12a66.31,66.31,0,0,0-21.42,11c-2.88-3.13-5.67-6.24-8.57-9.34a10.85,10.85,0,0,0-1.43.13c-3.39,3.15-6.92,6.21-10.23,9.41,0,.32,0,1,0,1.32,3,3.24,6,6.51,8.93,9.73a65,65,0,0,0-13.08,31.44c-4.16-.07-8.37-.42-12.57-.37a5.29,5.29,0,0,0-.91.71c-.48,4.39-.42,8.9-.66,13.32a1.58,1.58,0,0,0,1.68,1.81c4.17.22,8.3.26,12.46.48a64.62,64.62,0,0,0,13.08,31.44c-3,3-6.24,5.74-9.16,8.76,0,.31-.12.89-.16,1.15,2.81,3.45,6,6.48,9,9.74a1.55,1.55,0,0,0,2.46.16c3-2.81,6.05-5.68,9.12-8.54a64.42,64.42,0,0,0,26.09,12.21c.37,8.07.55,16.13,1,24.19.08,1.23,1.53,1.19,2.46,1.19,6.88-.05,13.81.09,20.65-.05,1.32,0,1.4-1.5,1.44-2.42.34-7.68.75-15.3,1.09-22.95a64.82,64.82,0,0,0,26-12.15c2.93,2.93,5.73,5.95,8.62,8.79.8.89,2.14.3,2.72-.47,2.86-2.9,5.89-5.65,8.7-8.58,1-.89.08-2-.62-2.67-2.71-2.77-5.46-5.52-8.11-8.32A64.55,64.55,0,0,0,511,300c4.27,0,8.6.24,12.9,0,.25-.22.69-.7.89-.9.08-4.78.32-9.54,0-14.31a10.24,10.24,0,0,0-1-.55c-4.27-.25-8.56-.09-12.83-.17a64.86,64.86,0,0,0-13.05-31.47c2.92-3,6-5.91,8.88-9a8,8,0,0,0,.36-1.19c-2.47-3.1-5.54-5.56-8.15-8.46-1-.78-2.05-2.61-3.39-1.5-3.12,2.83-6,5.95-9,8.84a70.87,70.87,0,0,0-20.07-10.63c.21-4.15.54-8.27.54-12.36-1.07-1.79-3.41-.74-5.09-1,6.7-6.77,10.69-15.85,12.06-25.25m-198,40c2.56-1.45,5-2.92,7.59-4.35q29.33,71.38,58.64,142.77c2.31,6.05,5.13,11.95,7.2,18.09C325.07,336.36,300.4,284.28,276,232.09M616,227.74c2.57,1.59,5.06,3.25,7.54,5q-39.69,87.36-79.37,174.73l-1.29-.54c24.3-59.79,48.84-119.48,73.12-179.21M270.1,245.1c1.56-.88,3.13-1.72,4.65-2.54Q304.84,306.63,335,370.73c1,2.33,2.24,4.57,3.1,7-22.48-44.26-45.34-88.37-68-132.63m354.78-2c1.83,1.17,3.68,2.35,5.44,3.57q-35.24,70.23-70.7,140.45c10.81-24.42,22.12-48.64,33-73q16.13-35.55,32.24-71M401.36,282.73a47.1,47.1,0,0,1,28.54-34.12q1.69,44.06,3.34,88.12a47.58,47.58,0,0,1-26-20.37,46.55,46.55,0,0,1-5.91-33.63m64.38-33.59a47.33,47.33,0,0,1,23.06,21.58,46.78,46.78,0,0,1-27.3,65.88c1.34-29.16,2.83-58.32,4.24-87.46Z" transform="translate(-103 -6)"/><path class="cls-2" d="M444.83,6h9.44a354.93,354.93,0,0,1,57.45,5.61,343.84,343.84,0,0,1,137,57.48A346.34,346.34,0,1,1,127.44,480.28c-23.62-58.92-30.17-124.4-19.43-187A346.47,346.47,0,0,1,444.83,6m-17,3.47A343.59,343.59,0,0,0,255.92,636.35,340.45,340.45,0,0,0,380.3,688.94a345.54,345.54,0,0,0,142.92-1A343.57,343.57,0,0,0,718.86,139.19a343.36,343.36,0,0,0-291-129.72m16,113.63c1.14-.27,2.27-.63,3.45-1,.35.24,1.28.69,1.7.93,1.45,4.36,4.91,7.61,7.33,11.44,9,12,17.65,25.45,18.36,40.92a87,87,0,0,1,0,10.95c-.13,1.92-.39,3.88-.58,5.79-1.37,9.4-5.36,18.48-12.06,25.25,1.68.27,4-.78,5.09,1,0,4.09-.33,8.21-.54,12.36a70.87,70.87,0,0,1,20.07,10.63c3-2.89,5.84-6,9-8.84,1.34-1.11,2.42.72,3.39,1.5,2.61,2.9,5.68,5.36,8.15,8.46a8,8,0,0,1-.36,1.19c-2.85,3.08-6,6-8.88,9A64.86,64.86,0,0,1,511,284.13c4.27.08,8.56-.08,12.83.17a10.24,10.24,0,0,1,1,.55c.32,4.77.08,9.53,0,14.31-.2.2-.64.68-.89.9-4.3.2-8.63-.06-12.9,0a64.55,64.55,0,0,1-13.08,31.46c2.65,2.8,5.4,5.55,8.11,8.32.7.66,1.62,1.78.62,2.67-2.81,2.93-5.84,5.68-8.7,8.58-.58.77-1.92,1.36-2.72.47-2.89-2.84-5.69-5.86-8.62-8.79a64.82,64.82,0,0,1-26,12.15c-.34,7.65-.75,15.27-1.09,22.95,0,.92-.12,2.42-1.44,2.42-6.84.14-13.77,0-20.65.05-.93,0-2.38,0-2.46-1.19-.48-8.06-.66-16.12-1-24.19a64.42,64.42,0,0,1-26.09-12.21c-3.07,2.86-6.08,5.73-9.12,8.54a1.55,1.55,0,0,1-2.46-.16c-3-3.26-6.21-6.29-9-9.74,0-.26.13-.84.16-1.15,2.92-3,6.13-5.78,9.16-8.76A64.62,64.62,0,0,1,383.45,300c-4.16-.22-8.29-.26-12.46-.48a1.58,1.58,0,0,1-1.68-1.81c.24-4.42.18-8.93.66-13.32a5.29,5.29,0,0,1,.91-.71c4.2-.05,8.41.3,12.57.37a65,65,0,0,1,13.08-31.44c-2.93-3.22-5.94-6.49-8.93-9.73,0-.32,0-1,0-1.32,3.31-3.2,6.84-6.26,10.23-9.41a10.85,10.85,0,0,1,1.43-.13c2.9,3.1,5.69,6.21,8.57,9.34a66.31,66.31,0,0,1,21.42-11c0-4-.42-8-.37-12,.68-1.61,2.58-.81,3.94-1a34.21,34.21,0,0,1-12.55-24.2c-.13-1.91-.21-3.81-.24-5.71a45.87,45.87,0,0,1,1.53-12.69c3.21-11.48,10.8-21,15.61-31.73a83.87,83.87,0,0,0,5.44-15.58,8.26,8.26,0,0,0-.06-3.21l1.3-1.14m7.46,13.79a195.49,195.49,0,0,1,4.9,34.26,186.91,186.91,0,0,1-4.26,47.45,38.76,38.76,0,0,0,16.48-26.39c1.35-9.59,1.35-19.72-1.77-29-3.33-9.71-9.5-18.11-15.35-26.33m-15.11,20c-4.08,7.19-8.57,14.44-10,22.67-1.08,7.28-.9,15,1.67,22,3.16,8.3,10.73,13.71,18.11,18a122.27,122.27,0,0,0,2.48-14.29,273.62,273.62,0,0,0,1.31-44.07,195.69,195.69,0,0,0-4.19-24.07,117.89,117.89,0,0,1-9.39,19.75m-34.82,125.8a46.55,46.55,0,0,0,5.91,33.63,47.58,47.58,0,0,0,26,20.37q-1.68-44.06-3.34-88.12a47.1,47.1,0,0,0-28.54,34.12m64.38-33.59c-1.41,29.14-2.9,58.3-4.24,87.46a46.77,46.77,0,0,0,4.24-87.46m-252.28-119c.68-.61,1.28-1.65,2.34-1.52,23.43,0,46.79,0,70.23,0,.15.42.49,1.33.6,1.82a278.13,278.13,0,0,0-87.32,106.45,274.64,274.64,0,0,0,21.91,269.8,277.57,277.57,0,0,0,103.7,91.47A274.54,274.54,0,0,0,598.58,584a278.06,278.06,0,0,0,92.19-98.78,274.57,274.57,0,0,0-3.85-272,280,280,0,0,0-74.71-82.79,12.41,12.41,0,0,1,.48-1.75h64.22c2.35.11,4.8-.3,7.14.25a323.52,323.52,0,0,1,6.41,440.44c-41.05,45.6-95.17,79.44-154.34,95.79A324.2,324.2,0,0,1,177.78,175.34a333.25,333.25,0,0,1,35.68-45.17m31.77,642.15c11.42-6.49,25.06-7.69,37.83-6.18,10.88,1.29,21.69,6,28.87,14.36,7.78,8.9,10.84,21,10.82,32.55H289.49c-.19-5.45-.83-11.07-3.34-16-1.6-3-4.1-5.78-7.46-6.82-4.58-1.52-10.1-.64-13.59,2.85-3.68,3.65-5.29,8.86-6.28,13.78-1.75,9.1-2,18.41-2,27.71.13,8.25.25,16.59,1.61,24.69.83,4.73,2.44,9.7,6.18,13,4.15,3.62,10.16,4.1,15.35,2.89a13.19,13.19,0,0,0,9.19-7.77c2.3-5.62,2.5-11.75,2.61-17.72q15.49,1.26,30.95,2.56c.14,12.43-3.81,25.37-12.89,34.24-8.67,9-21.38,12.74-33.57,13.18H271.1a61.9,61.9,0,0,1-20.68-4,44.68,44.68,0,0,1-21.85-18.77c-6.91-11.38-9.45-24.8-10-37.91-.58-14.2.59-28.78,6.05-42,4.13-10,11.19-19.08,20.65-24.53m-141.1-4.21h35.72v50H168v-50H203.7v129H168c0-17.64,0-35.24,0-52.88-9.38,0-18.81,0-28.16,0v52.92c-12,0-23.81,0-35.72,0v-129m232.09,0c16.68,0,33.37,0,50.08,0,5.14,24.1,10.23,48.23,15.43,72.36q9.18-36.19,18.22-72.36h48.81c0,43-.08,85.9,0,128.88-11.91.16-23.81,0-35.78.08-.06-31.67.18-63.41-.11-95.09-8.11,31.71-16.6,63.35-24.82,95-7.2,0-14.34,0-21.47,0-7.49-32.87-15.1-65.61-22.56-98.44-.28,32.83-.3,65.57-.38,98.36-9.14.08-18.3,0-27.44.08q0-64.52,0-129m150.38,0h35.71v85.74c0,5.06-.19,10.47,2.35,15.08a13.14,13.14,0,0,0,10,6.58c4.89.64,10.58-.21,13.79-4.26,3.37-4.24,3.93-10,4-15.31V768.11h29.76v87.83c.11,11.5-2.82,23.81-11.48,31.83-9.14,8.62-22.09,11.38-34.22,11.82H529.4c-10.95-.68-22.65-3.09-30.91-10.86-8.57-7.94-11.8-20-11.89-31.31q-.06-44.67,0-89.31m104,0h99.57c0,8.34,0,16.64,0,24.94-10.64.12-21.21,0-31.79.07v104c-12,0-23.81,0-35.68,0V793.12H590.56v-25m117.05,0H797v25H743.29c.07,8.7-.09,17.41.07,26.1,11.91-.07,23.77,0,35.64,0v25H743.29V871H797v26.1H707.61v-129Z" transform="translate(-103 -6)"/><path class="cls-3" d="M426.25,34.89c2.95-5.23,8.5-8.11,13.75-10.66.33.64,1.5,1.41.68,2.13-2.1,2.58-4.61,5-5.67,8.32-.74,2.36,1.08,4.51,2.66,6.09,4.23,4.15,9,7.63,13.29,11.68a17.12,17.12,0,0,1,5.25,10c.66,5.05-.7,10-1.48,15,1.91-6.67,7.36-11.34,12.68-15.37.37.29,1.15.82,1.51,1.14A38.68,38.68,0,0,0,467,76c.17,6.44,2.75,12.49,3.45,18.85,3.13-2,3.21-6.12,3.8-9.41s1.29-7.43,4.69-9.1a1.84,1.84,0,0,1,2.82.67c-2.49,8.91,0,18.22,3.24,26.62,4,10.54,9.64,20.5,11.85,31.64a27.69,27.69,0,0,1-.34,12.83,47.39,47.39,0,0,1-21.85,27.27c-.71-15.47-9.32-28.89-18.36-40.92a33.83,33.83,0,0,1,.12-12.49c.83-4.2,3.8-7.91,3-12.35C458,100,451.3,92.54,446.47,84.52c-.46.14-1.34.4-1.74.56a45,45,0,0,1-2.25,18.13c-2.34,7.57-6.53,14.47-8.29,22.26-1.39,6,.32,12.18,3,17.56-4.81,10.74-12.4,20.25-15.61,31.73-8.84-4.79-16.63-11.91-21.12-21a33.34,33.34,0,0,1-3.7-17c.63-8.77,4.66-16.7,7.22-25a50.89,50.89,0,0,0,.8-30.17c.3-.26.93-.85,1.19-1.14,4.49,1.46,8.82,4.47,10.34,9.12,1.78,5.4,2,11.14,3.05,16.69,1.16-9.21-.67-18.73,2.05-27.75A21.18,21.18,0,0,1,431.3,66.4c2-1,3.71-3.1,3-5.44-1.33-4.87-5.07-8.57-7.21-13.07-2.19-3.91-3.24-8.93-.81-13M409.49,108a86.2,86.2,0,0,0-5.93,19.62c-.71,4.88-1.06,10,.5,14.74.36,1.09,1.77.71,2.61.87,1.94,0,3.21,1.72,3.93,3.26,1.76,4.15,2.07,8.68,2.38,13.13.51,0,1.52,0,2,.06,1.29-6.1,2.36-12.44,1.11-18.7-.94-4.94-3.91-9.24-5.07-14.17-1.38-6-.69-12.22.41-18.22-.47-.13-1.42-.44-1.92-.59m65.17,78.32c28.63-5.73,58.66-6.95,87.16,0,20.76,5,40.55,14.76,56.52,29,1,.9.88,2.43,1.24,3.63-.48,1.16-1,2.32-1.4,3.48,3.57,2.29,7.05,4.64,10.46,7.16.24,1.19.84,2.39.72,3.63-.64,1.62-1.4,3.19-2.13,4.77,2.77,1.81,5.57,3.59,8.3,5.49.28,1.17.61,2.34.88,3.55Q594,331.21,551.67,415.39c-1.16.4-2.28.82-3.44,1.28-27.56-10.05-55.75-19.31-85-22.63-26.86-3.15-54.2-.26-80.11,7.27A307.62,307.62,0,0,0,352.27,412c-1.15-.43-2.32-.89-3.46-1.31Q306.33,328,264,245.31a33.7,33.7,0,0,1,1.08-3.6c2.25-1.65,4.92-2.76,7.31-4.22-.84-1.77-1.71-3.56-2.48-5.34.42-1.18.74-2.36,1.1-3.54,3.47-2.07,6.95-4.17,10.54-6-.91-2.23-1.85-4.41-2.75-6.59.34-1.1.6-2.23.9-3.31,18.68-14.33,41.23-23.13,64.43-26.74,25.14-4,50.92-2.56,75.92,1.51,0,1.9.11,3.8.24,5.71-22.68-3.75-46-5.38-69-2.59-23.77,2.78-47.09,11-66.48,25.21q37.8,92.32,75.73,184.6A203.49,203.49,0,0,1,441,384.1c33.18.14,65.88,8.36,96.74,20.38q37.92-92.91,75.88-185.79c-16.6-14.61-37.44-24-59.08-28.26-26.54-5.38-54.08-3.73-80.49,1.68.19-1.91.45-3.87.58-5.79M276,232.09c24.37,52.19,49,104.27,73.43,156.51-2.07-6.14-4.89-12-7.2-18.09q-29.34-71.34-58.64-142.77c-2.58,1.43-5,2.9-7.59,4.35M616,227.74C591.69,287.47,567.15,347.16,542.85,407l1.29.54q39.68-87.36,79.37-174.73c-2.48-1.77-5-3.43-7.54-5M270.1,245.1c22.62,44.26,45.48,88.37,68,132.63-.86-2.43-2.08-4.67-3.1-7q-30.16-64.12-60.21-128.17c-1.52.82-3.09,1.66-4.65,2.54m354.78-2q-16.12,35.5-32.24,71c-10.9,24.34-22.21,48.56-33,73q35.34-70.28,70.7-140.45c-1.76-1.22-3.61-2.4-5.44-3.57M261.24,280.29c3.86-1.42,9.05-.07,10.83,3.92,2.16,5.09-2.13,10.42-7,11.74-22.52,8.66-45.07,17.48-67.63,26.18-4,1.6-9.59.23-11.33-4-1.81-4.67,1.76-9.64,6.13-11.16,23-8.86,46-17.82,69-26.65m370.93,0a10.76,10.76,0,0,1,7.38.25q34.4,13.32,68.62,26.6c4.56,1.64,7.93,7.41,5.21,11.93-2.25,3.6-7.17,4.46-10.91,3Q668.21,308.86,634,295.57c-3.6-1.3-6.69-4.73-6.65-8.66a7.12,7.12,0,0,1,4.81-6.62M272.55,303.05c4.27-1.35,9.67,0,11.92,4,1.78,3.18.86,7.25-1.47,9.9a13.88,13.88,0,0,1-6.14,3.91Q241.08,334.41,205.44,348c-3.83,1.31-7.58,3.56-11.81,2.84-3.76-.42-7.45-3.39-7.77-7.33-.38-4.71,3.25-8.91,7.51-10.46,26.38-10,52.78-20.12,79.18-30m348.2,0a12,12,0,0,1,8.16.54q36,13.65,71.92,27.32c3.77,1.57,8.22,2.36,10.87,5.69,2.48,2.79,3.37,7.35,1,10.52-2.76,4-8.41,4.74-12.7,3q-39-14.79-78-29.59c-4.13-1.51-7.58-5.42-7.5-10,.08-3.5,2.89-6.54,6.22-7.48m-341,25.85c5.08-1.83,11.85,0,13.8,5.44s-2.17,11.27-7.33,13.13l-84.27,32c-5,2.06-12,.51-14.29-4.83-2.25-5.59,2-11.62,7.18-13.51q42.51-16.14,84.91-32.21m332.46,0a13.18,13.18,0,0,1,9.05.34q42,16,83.94,31.87c4,1.55,7.38,5.21,7.74,9.57a8.43,8.43,0,0,1-3.36,7.53,12.41,12.41,0,0,1-11.64,1.2Q656,363.44,614.05,347.56c-4.37-1.59-8.14-5.75-8.1-10.57a8.85,8.85,0,0,1,6.22-8.13M289.81,354.68c5.3-1.63,12.32.54,14.08,6.23s-2.4,11.48-7.62,13.46Q252,391.22,207.67,408a13.32,13.32,0,0,1-11-.41,9.11,9.11,0,0,1-5-8.43c.33-4.91,4.13-9,8.64-10.6,29.78-11.24,59.55-22.71,89.46-33.89m313.09,0a14.09,14.09,0,0,1,9,.65c29.23,11.07,58.57,22.21,87.79,33.31,4.45,1.63,8.29,5.68,8.54,10.57a9.16,9.16,0,0,1-5.53,8.69,13.28,13.28,0,0,1-10.51.1Q648,391.19,603.8,374.42c-4.66-1.77-8.51-6.43-8.07-11.67.2-3.93,3.49-7.11,7.17-8.11M297.36,381.93c3.21-1.22,6.41-2.68,10-2.4,4.75.11,9.68,3.28,10.62,8.16,1.24,5.91-3.09,11.58-8.4,13.66-20.35,7.84-40.82,15.53-61.28,23.34a9.33,9.33,0,0,0,.48.88c20.13-5.55,40.2-11.39,60.05-17.82,1-.44,2.08.11,3,.26,15.1,3.61,30.11,7.78,44.46,13.65,8.46,3.51,16.82,7.6,24.24,13,5.31,3.84,10.24,8.46,13.44,14.23,3,5.27,3.55,11.49,3.93,17.44.7,14.78-.74,29.56-2.32,44.29-4.08,35.27-10.3,70.3-16.81,105.25-36.09-10.25-69.07-29.09-99.86-50.26,1.84-17.31,3.74-34.71,5.62-52,1-7.5,1.54-15.12,4-22.29,1.79-5.43,6.85-8.89,11.72-11.23,6.46-2.84,13.69-1.34,20.27.31,8.46,2.1,16.86,4.58,25.43,6.49.68.7,1.74-.9.64-.94-23.45-9.72-47.62-17.58-71.85-25-21.42-6.6-42.75-13.64-63.62-22-2.62-.26-5.42.29-7.93-.85a10.22,10.22,0,0,1-6.9-8.86c-.24-5.66,4.07-10.56,9.14-12.41q46-17.44,91.92-34.88m290.87-1.38a14.75,14.75,0,0,1,10.74,0q47.74,18.1,95.49,36.22a14.38,14.38,0,0,1,8.78,8.93,10,10,0,0,1-1.33,8.5,11.92,11.92,0,0,1-10,4.68c-1.24,0-2.56-.36-3.68.23-22.12,9-44.94,16.22-67.71,23.32S575,477,552.84,486.2c.12.22.23.65.36.89,7.94-1.75,15.76-4,23.57-6,7.05-1.76,14.71-3.95,21.89-1.39,5.69,2.23,11.3,6.44,12.74,12.76,2.73,11.15,3.13,22.69,4.41,34.07,1.33,13.35,2.73,26.73,4.25,40.05a434.4,434.4,0,0,1-49.63,29.27,362.13,362.13,0,0,1-49.29,20c-5.08-27.38-9.91-54.8-13.87-82.38-2.09-15.23-4-30.39-4.92-45.7a162.65,162.65,0,0,1,0-25.07c.5-4.83,1.25-9.85,3.85-14.11,4.38-7.52,11.43-13.09,18.73-17.62,11.86-7.2,25-12.09,38.15-16.22,9-2.76,18.13-5.25,27.35-7.24,20.12,6.44,40.4,12.38,60.77,18,.15-.2.39-.66.56-.88-20.2-7.71-40.49-15.34-60.69-23.05-5-1.77-9.14-6.34-9.22-11.75a9.94,9.94,0,0,1,6.41-9.34Z" transform="translate(-103 -6)"/></svg>