<svg xmlns="http://www.w3.org/2000/svg" xmlns:xlink="http://www.w3.org/1999/xlink" viewBox="0 0 200 200"><defs><style>.cls-1{isolation:isolate;}.cls-2{fill:none;}.cls-3{fill:#d6d4d4;}.cls-4{fill:url(#Áåçûìÿííûé_ãðàäèåíò_20);}.cls-5{fill:#3e3e3e;}.cls-6{fill:url(#Áåçûìÿííûé_ãðàäèåíò_20-2);}.cls-7{fill:#242424;}.cls-8{fill:#3d3d3d;}.cls-9{fill:#686969;}.cls-10{fill:url(#Áåçûìÿííûé_ãðàäèåíò_31);}.cls-11{fill:#b7b7b8;}.cls-11,.cls-27,.cls-34,.cls-37{mix-blend-mode:multiply;}.cls-12{fill:url(#Áåçûìÿííûé_ãðàäèåíò_29);}.cls-13{fill:#848484;}.cls-14{fill:url(#Áåçûìÿííûé_ãðàäèåíò_30);}.cls-15{fill:#ae842d;}.cls-16{fill:url(#Áåçûìÿííûé_ãðàäèåíò_29-2);}.cls-17{fill:url(#Áåçûìÿííûé_ãðàäèåíò_25);}.cls-18{fill:#484848;}.cls-19{fill:url(#Áåçûìÿííûé_ãðàäèåíò_2285);}.cls-20{fill:#525252;}.cls-21{fill:#383938;}.cls-22{fill:#151319;}.cls-23{fill:url(#Áåçûìÿííûé_ãðàäèåíò_11);}.cls-24{fill:url(#Áåçûìÿííûé_ãðàäèåíò_1159);}.cls-25{fill:#bdbdbd;}.cls-26{fill:url(#Áåçûìÿííûé_ãðàäèåíò_3467);}.cls-27{fill:#a7a6a6;}.cls-28{fill:#fff;}.cls-29{fill:url(#Безымянный_градиент_231);}.cls-30{fill:url(#Безымянный_градиент_163);}.cls-31{fill:url(#Безымянный_градиент_251);}.cls-32{fill:url(#Безымянный_градиент_251-2);}.cls-33{fill:url(#Безымянный_градиент_240);}.cls-34{opacity:0.6;}.cls-35{fill:#509fd7;}.cls-36{fill:url(#Безымянный_градиент_163-2);}.cls-37{opacity:0.3;}.cls-38{fill:url(#Безымянный_градиент_44);}.cls-39,.cls-40,.cls-41,.cls-42,.cls-43{opacity:0.63;}.cls-39{fill:url(#Безымянный_градиент_118);}.cls-40{fill:url(#Безымянный_градиент_118-2);}.cls-41{fill:url(#Безымянный_градиент_118-3);}.cls-42{fill:url(#Безымянный_градиент_118-4);}.cls-43{fill:url(#Безымянный_градиент_118-5);}</style><linearGradient id="Áåçûìÿííûé_ãðàäèåíò_20" x1="673.82" y1="209.63" x2="682.55" y2="224.76" gradientTransform="matrix(0.5, 0.87, 0.87, -0.5, -138.01, -163.85)" gradientUnits="userSpaceOnUse"><stop offset="0" stop-color="#161616"/><stop offset="0.13" stop-color="#1b1b1b"/><stop offset="0.21" stop-color="#222"/><stop offset="0.22" stop-color="#383838"/><stop offset="0.22" stop-color="#424242"/><stop offset="0.62" stop-color="#484848"/><stop offset="0.63" stop-color="#606161"/><stop offset="0.66" stop-color="#666767"/><stop offset="0.76" stop-color="#777"/><stop offset="0.84" stop-color="#7d7d7d"/><stop offset="0.98" stop-color="#7d7c7c"/><stop offset="0.99" stop-color="#696969"/><stop offset="0.99" stop-color="#636363"/></linearGradient><linearGradient id="Áåçûìÿííûé_ãðàäèåíò_20-2" x1="700.56" y1="225.3" x2="709.29" y2="240.43" xlink:href="#Áåçûìÿííûé_ãðàäèåíò_20"/><linearGradient id="Áåçûìÿííûé_ãðàäèåíò_31" x1="815.91" y1="274.85" x2="832.72" y2="303.98" gradientTransform="matrix(-1, 0, 0, 1, 1215.39, 0)" gradientUnits="userSpaceOnUse"><stop offset="0.01" stop-color="#cfcfce"/><stop offset="0.02" stop-color="#d2d2d2"/><stop offset="0.04" stop-color="#d2d2d2"/><stop offset="0.16" stop-color="#d2d2d2"/><stop offset="0.37" stop-color="#ccc"/><stop offset="0.37" stop-color="#ccc"/><stop offset="0.38" stop-color="#b5b5b5"/><stop offset="0.78" stop-color="#afafae"/><stop offset="0.78" stop-color="#acaaa5"/><stop offset="0.79" stop-color="#a49c8f"/><stop offset="0.84" stop-color="#968e82"/><stop offset="0.93" stop-color="#888076"/><stop offset="1" stop-color="#837b72"/></linearGradient><linearGradient id="Áåçûìÿííûé_ãðàäèåíò_29" x1="814.28" y1="271.04" x2="834.52" y2="306.11" gradientTransform="matrix(-1, 0, 0, 1, 1215.39, 0)" gradientUnits="userSpaceOnUse"><stop offset="0.01" stop-color="#cfcfce"/><stop offset="0.02" stop-color="#cfcfce"/><stop offset="0.04" stop-color="#cfcfce"/><stop offset="0.16" stop-color="#cfcfce"/><stop offset="0.37" stop-color="#cfcfce"/><stop offset="0.38" stop-color="#c0bfbf"/><stop offset="0.78" stop-color="#bababa"/><stop offset="0.79" stop-color="#b2afa8"/><stop offset="0.8" stop-color="#afaba4"/><stop offset="0.87" stop-color="#9c968d"/><stop offset="0.94" stop-color="#90887f"/><stop offset="1" stop-color="#8c847a"/></linearGradient><linearGradient id="Áåçûìÿííûé_ãðàäèåíò_30" x1="803.6" y1="277.88" x2="823.32" y2="312.05" gradientTransform="matrix(-1, 0, 0, 1, 1215.39, 0)" gradientUnits="userSpaceOnUse"><stop offset="0.01" stop-color="#cbcbcb"/><stop offset="0.02" stop-color="#cfcfce"/><stop offset="0.04" stop-color="#cfcfce"/><stop offset="0.16" stop-color="#cfcfce"/><stop offset="0.37" stop-color="#c9c9c9"/><stop offset="0.37" stop-color="#c9c9c9"/><stop offset="0.38" stop-color="#b0b1b1"/><stop offset="0.78" stop-color="#acabab"/><stop offset="0.78" stop-color="#a8a6a0"/><stop offset="0.79" stop-color="#a09a8a"/><stop offset="0.85" stop-color="#908a7d"/><stop offset="0.93" stop-color="#827c71"/><stop offset="1" stop-color="#7d776d"/></linearGradient><linearGradient id="Áåçûìÿííûé_ãðàäèåíò_29-2" x1="795.99" y1="281.29" x2="816.61" y2="316.99" xlink:href="#Áåçûìÿííûé_ãðàäèåíò_29"/><linearGradient id="Áåçûìÿííûé_ãðàäèåíò_25" x1="794.12" y1="282.47" x2="814.48" y2="317.75" gradientTransform="matrix(-1, 0, 0, 1, 1215.39, 0)" gradientUnits="userSpaceOnUse"><stop offset="0.01" stop-color="#939393"/><stop offset="0.01" stop-color="#999"/><stop offset="0.02" stop-color="#adadad"/><stop offset="0.16" stop-color="#aeaeae"/><stop offset="0.24" stop-color="#a8a8a8"/><stop offset="0.34" stop-color="#979797"/><stop offset="0.37" stop-color="#919191"/><stop offset="0.38" stop-color="#797979"/><stop offset="0.78" stop-color="#737374"/><stop offset="0.78" stop-color="#696a6a"/><stop offset="0.79" stop-color="#535454"/><stop offset="0.88" stop-color="#4a4b4b"/><stop offset="1" stop-color="#464646"/></linearGradient><linearGradient id="Áåçûìÿííûé_ãðàäèåíò_2285" x1="784.99" y1="288.58" x2="804.67" y2="322.65" gradientTransform="matrix(-1, 0, 0, 1, 1215.39, 0)" gradientUnits="userSpaceOnUse"><stop offset="0.01" stop-color="#6b6b6b"/><stop offset="0.02" stop-color="#787878"/><stop offset="0.16" stop-color="#676767"/><stop offset="0.2" stop-color="#616161"/><stop offset="0.22" stop-color="#595959"/><stop offset="0.24" stop-color="#4e4e4e"/><stop offset="0.77" stop-color="#424242"/><stop offset="0.78" stop-color="#3e3e3e"/><stop offset="0.81" stop-color="#373737"/><stop offset="0.91" stop-color="#292929"/><stop offset="1" stop-color="#242424"/></linearGradient><linearGradient id="Áåçûìÿííûé_ãðàäèåíò_11" x1="323.37" y1="611.84" x2="327.88" y2="619.65" gradientTransform="matrix(-0.5, 0.86, -0.86, -0.5, 1105.6, 302.22)" gradientUnits="userSpaceOnUse"><stop offset="0.01" stop-color="#cececd"/><stop offset="0.01" stop-color="#d2d2d1"/><stop offset="0.02" stop-color="#e6e6e5"/><stop offset="0.03" stop-color="#e7e7e6"/><stop offset="0.16" stop-color="#e9e8e8"/><stop offset="0.23" stop-color="#e3e2e2"/><stop offset="0.34" stop-color="#d2d2d2"/><stop offset="0.37" stop-color="#cbcbcb"/><stop offset="0.38" stop-color="#b4b4b4"/><stop offset="0.78" stop-color="#adadad"/><stop offset="0.78" stop-color="#a4a3a3"/><stop offset="0.79" stop-color="#8e8d8d"/><stop offset="0.88" stop-color="#868585"/><stop offset="1" stop-color="#818181"/></linearGradient><linearGradient id="Áåçûìÿííûé_ãðàäèåíò_1159" x1="644.92" y1="255.54" x2="650.48" y2="265.17" gradientTransform="matrix(0.5, 0.87, 0.87, -0.5, -138.01, -163.85)" gradientUnits="userSpaceOnUse"><stop offset="0" stop-color="#959494"/><stop offset="0.12" stop-color="#999998"/><stop offset="0.21" stop-color="#a2a2a1"/><stop offset="0.22" stop-color="#b8b8b7"/><stop offset="0.22" stop-color="#c2c1c1"/><stop offset="0.62" stop-color="#c8c7c6"/><stop offset="0.63" stop-color="#e0e1e0"/><stop offset="0.67" stop-color="#e8e9e8"/><stop offset="0.77" stop-color="#f7f8f9"/><stop offset="0.84" stop-color="#fdfeff"/><stop offset="0.97" stop-color="#fcfdfd"/><stop offset="0.98" stop-color="#fbfcfc"/><stop offset="0.99" stop-color="#e8e8e8"/><stop offset="0.99" stop-color="#e2e2e2"/></linearGradient><linearGradient id="Áåçûìÿííûé_ãðàäèåíò_3467" x1="646.08" y1="265.18" x2="642.76" y2="258.99" gradientTransform="matrix(0.5, 0.87, 0.87, -0.5, -138.01, -163.85)" gradientUnits="userSpaceOnUse"><stop offset="0" stop-color="#818181"/><stop offset="0.12" stop-color="#868585"/><stop offset="0.21" stop-color="#8e8d8d"/><stop offset="0.22" stop-color="#a4a3a3"/><stop offset="0.22" stop-color="#adadad"/><stop offset="0.62" stop-color="#b4b4b4"/><stop offset="0.63" stop-color="#cbcbcb"/><stop offset="0.66" stop-color="#d2d2d2"/><stop offset="0.77" stop-color="#e3e2e2"/><stop offset="0.84" stop-color="#e9e8e8"/><stop offset="0.97" stop-color="#e7e7e6"/><stop offset="0.98" stop-color="#e6e6e5"/><stop offset="0.99" stop-color="#d2d2d1"/><stop offset="0.99" stop-color="#cececd"/></linearGradient><radialGradient id="Безымянный_градиент_231" cx="411.04" cy="229.01" r="27.5" gradientTransform="translate(0 52.51) scale(1 0.78)" gradientUnits="userSpaceOnUse"><stop offset="0.25" stop-color="#7aced2"/><stop offset="0.26" stop-color="#77ccd1"/><stop offset="0.5" stop-color="#47afbe"/><stop offset="0.71" stop-color="#249ab0"/><stop offset="0.89" stop-color="#0f8da7"/><stop offset="1" stop-color="#0788a4"/></radialGradient><linearGradient id="Безымянный_градиент_163" x1="386.34" y1="223.59" x2="386.34" y2="215.67" gradientUnits="userSpaceOnUse"><stop offset="0.25" stop-color="#4fc9f5"/><stop offset="0.51" stop-color="#7dd7f8"/><stop offset="1" stop-color="#e2f4fd"/></linearGradient><linearGradient id="Безымянный_градиент_251" x1="399.44" y1="221.18" x2="399.44" y2="213.25" gradientUnits="userSpaceOnUse"><stop offset="0.25" stop-color="#94d8ee"/><stop offset="0.71" stop-color="#c2e9f7"/><stop offset="1" stop-color="#e2f4fd"/></linearGradient><linearGradient id="Безымянный_градиент_251-2" x1="422.25" y1="220" x2="422.25" y2="208.23" xlink:href="#Безымянный_градиент_251"/><linearGradient id="Безымянный_градиент_240" x1="416.43" y1="311.87" x2="416.43" y2="246.93" gradientTransform="matrix(1, 0.05, -0.04, 0.8, 7.79, -2.39)" gradientUnits="userSpaceOnUse"><stop offset="0" stop-color="#70c9c0"/><stop offset="0.09" stop-color="#6cc8c0"/><stop offset="0.18" stop-color="#5fc6c1"/><stop offset="0.27" stop-color="#4bc3c2"/><stop offset="0.32" stop-color="#3cc0c3"/><stop offset="0.83" stop-color="#10a3c4"/><stop offset="1" stop-color="#0199c5"/></linearGradient><linearGradient id="Безымянный_градиент_163-2" x1="384.98" y1="226.39" x2="384.98" y2="224.53" xlink:href="#Безымянный_градиент_163"/><radialGradient id="Безымянный_градиент_44" cx="414.72" cy="222.26" r="21.08" gradientTransform="translate(0 -36.9) scale(1 1.17)" gradientUnits="userSpaceOnUse"><stop offset="0" stop-color="#fff"/><stop offset="0.2" stop-color="#fbfdfe"/><stop offset="0.4" stop-color="#eef9fb"/><stop offset="0.61" stop-color="#daf1f5"/><stop offset="0.82" stop-color="#bde6ee"/><stop offset="1" stop-color="#9edae6"/></radialGradient><radialGradient id="Безымянный_градиент_118" cx="404.64" cy="243.06" r="12" gradientTransform="translate(0 -36.9) scale(1 1.17)" gradientUnits="userSpaceOnUse"><stop offset="0" stop-color="#9edae6"/><stop offset="0.08" stop-color="#b1e1eb"/><stop offset="0.22" stop-color="#cdecf2"/><stop offset="0.37" stop-color="#e3f4f8"/><stop offset="0.54" stop-color="#f3fafc"/><stop offset="0.73" stop-color="#fcfefe"/><stop offset="1" stop-color="#fff"/></radialGradient><radialGradient id="Безымянный_градиент_118-2" cx="411.1" cy="245.82" r="10.41" xlink:href="#Безымянный_градиент_118"/><radialGradient id="Безымянный_градиент_118-3" cx="421.96" cy="228.99" r="8.79" xlink:href="#Безымянный_градиент_118"/><radialGradient id="Безымянный_градиент_118-4" cx="410.35" cy="222.68" r="4.52" xlink:href="#Безымянный_градиент_118"/><radialGradient id="Безымянный_градиент_118-5" cx="397.19" cy="220.58" r="4.68" xlink:href="#Безымянный_градиент_118"/></defs><title>water_on</title><g class="cls-1"><g id="Layer_2" data-name="Layer 2"><rect class="cls-2" width="200" height="200"/></g><g id="Layer_1" data-name="Layer 1"><path class="cls-3" d="M383.93,298.08s-20.81,8.39-22.81,11.21-5.18,6.87,0,11.71,26.29,15.75,26.29,15.75H391s11.32,6.27,13.47,7.2,5.52,1.72,19.51-2,15.4-10.63,15.4-10.63Z" transform="translate(-304.43 -182.57)"/><path class="cls-4" d="M393.94,318.12a14.4,14.4,0,0,1-13.05-.06c-1.8-1.05-2.71-2.42-2.71-3.79h0l.06-1,18.4.7v.38C396.66,315.69,395.77,317.07,393.94,318.12Z" transform="translate(-304.43 -182.57)"/><path class="cls-5" d="M394,317.17c3.6-2.07,3.59-5.44,0-7.53a14.41,14.41,0,0,0-13-.07c-3.6,2.07-3.59,5.44,0,7.53A14.41,14.41,0,0,0,394,317.17Z" transform="translate(-304.43 -182.57)"/><path class="cls-6" d="M420.83,333.53a14.41,14.41,0,0,1-13-.07c-1.81-1-2.71-2.42-2.71-3.78h0l.05-1.06,18.41.7,0,.38C423.55,331.09,422.66,332.48,420.83,333.53Z" transform="translate(-304.43 -182.57)"/><path class="cls-5" d="M420.88,332.57c3.6-2.06,3.59-5.43,0-7.53a14.4,14.4,0,0,0-13.05-.06c-3.59,2.06-3.59,5.43,0,7.53A14.44,14.44,0,0,0,420.88,332.57Z" transform="translate(-304.43 -182.57)"/><polygon class="cls-7" points="73.39 123.89 116.41 148.73 138.41 136.03 95.39 111.19 95.39 111.19 73.39 123.89"/><polygon class="cls-8" points="116.41 150.41 73.39 125.57 73.39 123.89 116.41 148.73 116.41 150.41"/><polygon class="cls-9" points="138.41 136.03 138.41 137.71 116.41 150.41 116.41 148.73 138.41 136.03"/><path class="cls-10" d="M375.5,294.27c0-8,5.63-17.67,12.57-21.67,3.47-2,6.62-2.21,8.9-.9h0l15.45,8.79-18.11,30.33-15-8.42C377,301.14,375.5,298.32,375.5,294.27Z" transform="translate(-304.43 -182.57)"/><path class="cls-11" d="M409.46,278.91l-12.1-7c-.54.25-1.06.6-1.65.85-12.06,5.14-19,18-16.65,28.72a3.9,3.9,0,0,1,0,.76c.08,0,.14.1.22.14l12,6.88Z" transform="translate(-304.43 -182.57)"/><path class="cls-12" d="M380.79,299.24c0-9.61,6.8-21.33,15.18-26.17,4.2-2.43,7.54-2.84,10.29-1.26h0l1.94,1.13-22.65,36.22-.62-.27C382.1,307.36,380.79,304.14,380.79,299.24Z" transform="translate(-304.43 -182.57)"/><path class="cls-13" d="M382.07,300.08c0,9.62,6.8,13.49,15.18,8.65s15.17-16.56,15.17-26.17-6.79-13.49-15.17-8.65S382.07,290.46,382.07,300.08Z" transform="translate(-304.43 -182.57)"/><path class="cls-14" d="M382.91,300.22c0-9.34,6.6-20.73,14.74-25.43,4.09-2.36,7.78-2.59,10.45-1.05h0l19.63,11.19-21.26,35.6-19.1-10.76C384.62,308.28,382.91,305,382.91,300.22Z" transform="translate(-304.43 -182.57)"/><path class="cls-15" d="M403.1,311.71c0,9.34,6.6,13.1,14.74,8.4s14.75-16.09,14.75-25.43-6.6-13.11-14.75-8.41S403.1,302.36,403.1,311.71Z" transform="translate(-304.43 -182.57)"/><path class="cls-16" d="M398.75,310.12c0-9.79,6.92-21.73,15.45-26.65,4.28-2.47,8.15-2.71,10.94-1.1h0l1.35.87-23.06,36.88h0C400.54,318.56,398.75,315.1,398.75,310.12Z" transform="translate(-304.43 -182.57)"/><path class="cls-13" d="M399.89,310.87c0,9.79,6.92,13.74,15.45,8.81s15.45-16.86,15.45-26.65-6.92-13.73-15.45-8.81S399.89,301.08,399.89,310.87Z" transform="translate(-304.43 -182.57)"/><path class="cls-17" d="M400.87,311c0-9.67,6.84-21.46,15.27-26.33,4.22-2.44,8.05-2.68,10.81-1.09h0l1.33.87-22.79,36.43h0C402.65,319.3,400.87,315.87,400.87,311Z" transform="translate(-304.43 -182.57)"/><path class="cls-18" d="M402,311.7c0,9.67,6.84,13.57,15.27,8.7s15.26-16.65,15.26-26.33-6.83-13.57-15.26-8.7S402,302,402,311.7Z" transform="translate(-304.43 -182.57)"/><path class="cls-19" d="M403.1,311.71c0-9.35,6.6-20.74,14.74-25.44,4.09-2.35,7.78-2.58,10.45-1h0l16.5,9.55-21.26,35.6-16-9.12C404.81,319.77,403.1,316.46,403.1,311.71Z" transform="translate(-304.43 -182.57)"/><path class="cls-20" d="M449.65,304.53v.3a22.76,22.76,0,0,1-.17,2.45v0a.12.12,0,0,0-.07.07c-.06.07-.13.14-.18.21l-.25.26-.51.58.71.6c-.16.8-.36,1.57-.58,2.36v0c-2.19,7.49-7.49,15-13.71,18.54a16,16,0,0,1-3.86,1.64,9,9,0,0,1-5.52-.09,7.75,7.75,0,0,1-1-.44,7.41,7.41,0,0,1-.9-.6,7.95,7.95,0,0,1-2.38-3.14c-.08-.19-.17-.4-.24-.6a4.92,4.92,0,0,1-.23-.65,6.55,6.55,0,0,1-.19-.67.06.06,0,0,1,0-.05,13.7,13.7,0,0,1-.27-1.39v-.07h0a19.35,19.35,0,0,1-.15-2.35,28.85,28.85,0,0,1,3.3-12.58c.49-1,1-1.94,1.6-2.87h0a29.13,29.13,0,0,1,9.8-10c3.8-2.2,7.24-2.53,9.85-1.28l-.37.45a.11.11,0,0,0-.06.08l1.29.4,1.18.42a4.1,4.1,0,0,1,.83,1,3.72,3.72,0,0,1,.33.51l-.86,1a1.15,1.15,0,0,1,.23.21l.39.26,1.18.44a2.52,2.52,0,0,1,.12.39,1,1,0,0,1,0,.13.45.45,0,0,0,0,.12c.06.19.13.39.18.58s.11.42.14.64l-.14.15v0a5.85,5.85,0,0,1-.44.49s0,0,0,0l-.54.62L448,303l.65.46,1,.71C449.65,304.28,449.65,304.41,449.65,304.53Z" transform="translate(-304.43 -182.57)"/><path class="cls-21" d="M449.37,301.45l-.14.15v0a5.85,5.85,0,0,1-.44.49c0-.47.07-.88.09-1.23v0a.94.94,0,0,1-.14-.26l0-.05a1.8,1.8,0,0,1-.28-.41c0-.37.35-.46.44-.53l0,0a2.52,2.52,0,0,1,.12.39,1,1,0,0,1,0,.13,5.89,5.89,0,0,1,.19.7C449.28,301,449.34,301.23,449.37,301.45Z" transform="translate(-304.43 -182.57)"/><path class="cls-21" d="M449.92,309.66h0a23.45,23.45,0,0,1-.67,3c-.09.37-.22.74-.34,1.11a3.25,3.25,0,0,1-.26.78c-.09.28-.2.56-.32.84a2.92,2.92,0,0,1-.19.49c-.15.37-.3.74-.46,1.1,0,.09-.09.17-.13.26a12.89,12.89,0,0,1-.58,1.18,32.39,32.39,0,0,1-2.2,3.67c-.34.49-.71,1-1.08,1.44s-.72.92-1.12,1.36c-.2.23-.41.44-.6.65l-.6.62a5.18,5.18,0,0,1-.64.61c-.38.37-.79.73-1.19,1.06a.34.34,0,0,1-.11.07c-.21.18-.42.34-.63.5a16.43,16.43,0,0,1-2,1.35,12.46,12.46,0,0,1-5.78,1.82,9,9,0,0,1-5.52-.09,7.75,7.75,0,0,1-1-.44,7.41,7.41,0,0,1-.9-.6,7.95,7.95,0,0,1-2.38-3.14c-.08-.19-.17-.4-.24-.6a4.92,4.92,0,0,1-.23-.65,6.55,6.55,0,0,1-.19-.67.06.06,0,0,1,0-.05,13.7,13.7,0,0,1-.27-1.39.2.2,0,0,1,0-.07h0l3.63,2.18s7.67,4.69,16.16-2.06c3-2.4,5-6.11,6.29-10h0a41.53,41.53,0,0,0,1.32-4.76v0c.22-1,.41-2,.55-3s.3-1.95.39-2.8l1,.71.35.24v0h0v.11a11.06,11.06,0,0,1,.14,1.67,2.35,2.35,0,0,1,0,.26l-.68.8v0a.12.12,0,0,0-.07.07c-.06.07-.13.14-.18.21l-.25.26-.51.58.71.6Z" transform="translate(-304.43 -182.57)"/><path class="cls-22" d="M413.4,317.76a7.36,7.36,0,0,0,.34,2.42l17,9.8-.61-3.73-16.67-9.88C413.42,316.83,413.4,317.3,413.4,317.76Z" transform="translate(-304.43 -182.57)"/><path class="cls-22" d="M413.89,314.41,430.54,324v-3.56l-15.85-9.16A25.25,25.25,0,0,0,413.89,314.41Z" transform="translate(-304.43 -182.57)"/><path class="cls-22" d="M415.73,308l7.26,4.19,2.24,1.32,2.73,1.55,2.58,1.5V313l-1.39-.81-2.77-1.6L424,309.21l-.52-.31L417,305.22A29,29,0,0,0,415.73,308Z" transform="translate(-304.43 -182.57)"/><path class="cls-22" d="M418.54,302l6.88,4,2.77,1.63,2.35,1.34v-3.54l-1.45-.83-8.79-5.07C419.68,300.29,419.09,301.14,418.54,302Z" transform="translate(-304.43 -182.57)"/><path class="cls-18" d="M449.18,309l.74.64a.11.11,0,0,1,0,.07,22.73,22.73,0,0,1-.63,2.94c-.09.37-.22.74-.34,1.11a3.25,3.25,0,0,1-.26.78c-.09.28-.2.56-.32.84a2.92,2.92,0,0,1-.19.49c-.15.37-.3.74-.46,1.1,0,.09-.09.17-.13.26a12.89,12.89,0,0,1-.58,1.18,32.39,32.39,0,0,1-2.2,3.67c-.34.49-.69,1-1.08,1.44s-.72.92-1.12,1.36c-.2.23-.41.44-.6.65l-.6.62a5.18,5.18,0,0,1-.64.61c-.38.37-.79.73-1.19,1.06a.34.34,0,0,1-.11.07c-.21.18-.42.34-.63.5a16.43,16.43,0,0,1-2,1.35,12.46,12.46,0,0,1-5.78,1.82c-3.4.09-6-1.87-7.09-5.52a14.66,14.66,0,0,1-.51-3.79v-.14a15.83,15.83,0,0,1,.14-2.15h0a20.12,20.12,0,0,1,.67-3.53,24.33,24.33,0,0,1,1-3,25.32,25.32,0,0,1,1.31-2.92,28,28,0,0,1,10.29-11.49c4.12-2.38,7.82-2.37,10.27-.39a1.15,1.15,0,0,1,.23.21,6.06,6.06,0,0,1,1.11,1.25,3,3,0,0,1,.28.41l0,.05a.94.94,0,0,0,.14.26v0c.12.23.24.48.35.72v0a5.85,5.85,0,0,1-.44.49s0,0,0,0l-.54.62L448,303l.65.46,1,.71.35.24v0a.06.06,0,0,1,0,.05v0c.07.52.12,1.09.14,1.67a2.35,2.35,0,0,1,0,.26l-.68.8v0a.12.12,0,0,0-.07.07c-.06.07-.13.14-.18.21l-.25.26-.51.58Z" transform="translate(-304.43 -182.57)"/><path class="cls-22" d="M449.94,309.67l0,.06c-.18.24-.67.86-1.3,1.65v0c-.64.78-1.41,1.71-2.21,2.63h0a29.46,29.46,0,0,1-3.36,3.41c-4.14,3.2-19.09,8.61-19.09,8.61a4.18,4.18,0,0,1-.51-3.79,55.6,55.6,0,0,0,17.85-7c1.66-1,4.62-4.09,6.43-6v0c.29-.32.55-.58.76-.83l.71.6.74.64Z" transform="translate(-304.43 -182.57)"/><path class="cls-22" d="M450,304.44l0,0c-.11.12-.21.24-.34.37-.4.42-.86.91-1.39,1.44a62.73,62.73,0,0,1-5.5,5.18c-4.05,3.16-18.73,8.37-19.19,8.52h0a2.77,2.77,0,0,1-.39-3.15l1.07-.39c3.51-1.29,14.63-5.44,18.12-8.14A55.71,55.71,0,0,0,448,303l.65.46,1,.71.35.24v-.05Z" transform="translate(-304.43 -182.57)"/><path class="cls-22" d="M448.88,299.59a7.06,7.06,0,0,1-.46.55,44.86,44.86,0,0,1-5.66,5.55c-2.46,1.94-8.91,4.65-13.62,6.52-1.44.58-3,.94-3.91,1.29l0,0-2.22-1.3a.87.87,0,0,1,.18-.41s1.3-.44,3.2-1.16l.15-.05c4.67-1.77,12.49-4.94,15.4-7.19a46,46,0,0,0,5.13-4.66l0,0a1.15,1.15,0,0,1,.23.21l.39.26Z" transform="translate(-304.43 -182.57)"/><path class="cls-22" d="M446.78,296.19a35.33,35.33,0,0,1-5.3,5c-2.24,1.75-6.42,3.63-11,5.46-.82.34-1.6.66-2.34.94L425.42,306c1-.37,2.28-.87,3.67-1.41a58.73,58.73,0,0,0,12.3-6.07,20.36,20.36,0,0,0,2.91-3.11h0l1.29.4Z" transform="translate(-304.43 -182.57)"/><path class="cls-11" d="M397.65,283.12c-.87,1.61-.36,2.5,1.93,3a10,10,0,0,0,3.55-.56h0a27.12,27.12,0,0,1,8.47-2.7L406.47,279S399.33,280,397.65,283.12Z" transform="translate(-304.43 -182.57)"/><path class="cls-23" d="M406.42,282.31a7.44,7.44,0,0,0,6.72,0,2.41,2.41,0,0,0,1.41-1.95h0v-15l-9.48.11,0,14.82A2.33,2.33,0,0,0,406.42,282.31Z" transform="translate(-304.43 -182.57)"/><path class="cls-15" d="M413.19,267.23c1.86-1.06,1.85-2.8,0-3.88a7.4,7.4,0,0,0-6.72,0c-1.85,1.06-1.85,2.8,0,3.88A7.44,7.44,0,0,0,413.19,267.23Z" transform="translate(-304.43 -182.57)"/><path class="cls-24" d="M414,271.38a9.21,9.21,0,0,1-8.31,0,3,3,0,0,1-1.73-2.42h0l0-4.22,11.73.45,0,3.79A2.85,2.85,0,0,1,414,271.38Z" transform="translate(-304.43 -182.57)"/><path class="cls-25" d="M414,267.21c2.3-1.31,2.29-3.46,0-4.79a9.18,9.18,0,0,0-8.31-.05c-2.29,1.32-2.29,3.47,0,4.8A9.15,9.15,0,0,0,414,267.21Z" transform="translate(-304.43 -182.57)"/><path class="cls-26" d="M413.83,264.35a2.48,2.48,0,0,0-.91-.83,7,7,0,0,0-6.18,0c-.43.25-1.4.93-.89,1.81a2.42,2.42,0,0,0,.91.84,7,7,0,0,0,6.18,0C413.38,265.92,414.34,265.24,413.83,264.35Z" transform="translate(-304.43 -182.57)"/><path class="cls-27" d="M413.65,265.61a7.11,7.11,0,0,0-5.22.33,2.71,2.71,0,0,0-.74.6,7.06,7.06,0,0,0,5.25-.37A3.19,3.19,0,0,0,413.65,265.61Z" transform="translate(-304.43 -182.57)"/><path class="cls-28" d="M444.3,295.37l.07-.08a.11.11,0,0,0-.06.08Z" transform="translate(-304.43 -182.57)"/><path class="cls-28" d="M447.31,298.89l-.26-.18,0,0A1.15,1.15,0,0,1,447.31,298.89Z" transform="translate(-304.43 -182.57)"/><path class="cls-28" d="M449,307.84l.43-.47c-.06.07-.13.14-.18.21Z" transform="translate(-304.43 -182.57)"/><path class="cls-28" d="M449.41,307.37l.07-.09v0A.12.12,0,0,0,449.41,307.37Z" transform="translate(-304.43 -182.57)"/><path class="cls-28" d="M448.79,302.11l.44-.49c-.14.16-.28.34-.46.53l-.54.62Z" transform="translate(-304.43 -182.57)"/><polygon class="cls-28" points="145.58 121.87 145.56 121.87 145.56 121.8 145.58 121.87"/><path class="cls-9" d="M418.54,302l1.76-.37,7.86,4.34s7.07-2.18,10-4a29.25,29.25,0,0,0,6.87-5.68l-.71-.9,2.47.82S443,303,428.19,307.58Z" transform="translate(-304.43 -182.57)"/><path class="cls-9" d="M415.73,308l1.6-.45,7.87,4.35s6.69-2.16,9-3.18c9.67-4.34,13.54-9.56,13.54-9.56l1.18.44a21.89,21.89,0,0,1-6.46,6.36c-4,2.75-10.38,5.43-17.19,7.55Z" transform="translate(-304.43 -182.57)"/><path class="cls-9" d="M413.89,314.41l1.58-.47,8.47,4.55s12-4.26,17.46-8a31.35,31.35,0,0,0,7.25-7l1.34,1s-5.51,7-11.4,9.61-15,5.92-15,5.92Z" transform="translate(-304.43 -182.57)"/><path class="cls-9" d="M413.74,320.18l2-.73,8.21,4.76s12.86-4.65,17.05-7.51a44.62,44.62,0,0,0,8-7.84l.94.8s-4.33,6.66-8.82,9.09c-7.21,3.9-17,7.22-17,7.31S413.74,320.18,413.74,320.18Z" transform="translate(-304.43 -182.57)"/><path class="cls-29" d="M441.21,212.51a2.74,2.74,0,0,1-.68.56,4.67,4.67,0,0,1-1,.22c-.41.08-.83.13-1.25.2-2.56.76-7.37,1.69-6.57,5.43.4.93,2,1.87,3.2,2.8-4.8.47-10-.46-13.79,4.4a20.05,20.05,0,0,1-1,2.41c-4.12,7.95-11.4,6.72-18,1.39a7.1,7.1,0,0,1-2.14-.79c-1.44-.85-2.82-1.9-4.31-2.64a7.93,7.93,0,0,0-1.91-.63,8.22,8.22,0,0,0-2-.14,3,3,0,0,0-1.56.09c-2.17.12-5.37,3.86-6.17.12,2,0,2.8-1.87,1.6-3.74-1.2-1.4-4-2.34-2.81-4.21,2-4.2,7.21-.93,10.79-3.94a11.73,11.73,0,0,1,1.27-.53,4.16,4.16,0,0,1,2-.22,4.5,4.5,0,0,1,2.28.74,12.25,12.25,0,0,1,1.55,1.73,5.57,5.57,0,0,1,.83,1.39,14.46,14.46,0,0,0,.44,1.63c.22.43.39.82.84.94a6.84,6.84,0,0,0,1.2,0c.52,0,1,.23,1.55.26.3,0,.77.09,1-.12a1.21,1.21,0,0,0,.31-.78.59.59,0,0,0,0-.19.79.79,0,0,0-.06-.22,6,6,0,0,0-.55-1,4.46,4.46,0,0,1-.74-1.59c0-.3,0-.61,0-.91a3.78,3.78,0,0,0-.54-1.47,13.82,13.82,0,0,1-1.68-2.77,3.15,3.15,0,0,1,0-2.32c.49-.93,1.73-.2,2.14.48a5.12,5.12,0,0,1,.75,1.85,7.19,7.19,0,0,1,0,1.91,14.69,14.69,0,0,0-.19,1.85,6.82,6.82,0,0,0,0,1,3.42,3.42,0,0,0,.22.61,3.07,3.07,0,0,0,.24.62c.2.26.37.21.62.34a2,2,0,0,1,.64.44c.21.25.32.6.53.84a1.48,1.48,0,0,0,.87.51c1.5.24,2.55-1.36,3.84-1.88a4.91,4.91,0,0,1,3.5,0c.7.22,1.27.81,2,1.07,4.11-.77,7.71-1.71,12.12-1.71,2,0,4.4-2.8,6.93-4.06a10.78,10.78,0,0,1,1.89-.88,2.16,2.16,0,0,1,2,.1C441.66,212,441.5,212.25,441.21,212.51Z" transform="translate(-304.43 -182.57)"/><path class="cls-30" d="M389.71,215.78c.29-.13.29.34.29.34-3.2,0-4.8.46-6.4,3.27-.81,1.87,2.8,1.87,2.4,4.2-.8-2.33-4-2.8-3.21-5.61.4-1.86,2.81-2.8,4.78-2A10.85,10.85,0,0,0,389.71,215.78Z" transform="translate(-304.43 -182.57)"/><path class="cls-31" d="M407.66,219.63a.77.77,0,0,1-.08.52c-.07.11-.2.13-.32.18a1.24,1.24,0,0,0-.39.34.38.38,0,0,1-.44.12,1.25,1.25,0,0,1-.53-.23,1.37,1.37,0,0,0-.44-.16,1.8,1.8,0,0,0-.46,0,.51.51,0,0,0-.27.09c-.17.12-.23.35-.38.49a.87.87,0,0,1-1.05-.06,1.5,1.5,0,0,1-.23-.33.9.9,0,0,0-.17-.26,1.06,1.06,0,0,0-.3-.1c-.15,0-.3,0-.45,0a.61.61,0,0,1-.33-.25c-.15-.19,0-.45,0-.68a3.25,3.25,0,0,0,0-.54.41.41,0,0,0-.15-.28c-.09,0-.21,0-.31,0a2,2,0,0,1-.25-.13l-.34-.15a.85.85,0,0,1-.36-.24.45.45,0,0,1,.06-.54c.09-.14.24-.34.19-.53a1,1,0,0,0-.15-.24c-.08-.09-.2-.12-.28-.2a.61.61,0,0,1-.19-.33c-.06-.18-.12-.34-.29-.4a1.16,1.16,0,0,0-.51-.12c-.47.07-.34.67-.35,1.07a.64.64,0,0,1-.76.68,3.38,3.38,0,0,1-.51-.24l-.2-.11a.63.63,0,0,0-.3-.05,1.33,1.33,0,0,1-1.22-.74,1.26,1.26,0,0,1,0-.61.81.81,0,0,0,0-.31c-.1-.33-.57-.23-.8-.23a1.06,1.06,0,0,1-.56-.16.63.63,0,0,0-.3-.14,2.72,2.72,0,0,0-.57,0c-.83.39-1.63.86-2.43.39.8-.47,1.6-.47,2.37-1.14a11.73,11.73,0,0,1,1.27-.53,4.16,4.16,0,0,1,2-.22,4.5,4.5,0,0,1,2.28.74,12.25,12.25,0,0,1,1.55,1.73,5.57,5.57,0,0,1,.83,1.39,14.46,14.46,0,0,0,.44,1.63c.22.43.39.82.84.94a6.84,6.84,0,0,0,1.2,0c.52,0,1,.23,1.55.26.3,0,.77.09,1-.12a1.21,1.21,0,0,0,.31-.78l.2.11a.83.83,0,0,0,.18.07C407.44,219.35,407.6,219.39,407.66,219.63Z" transform="translate(-304.43 -182.57)"/><path class="cls-32" d="M441.21,212.51a2.74,2.74,0,0,1-.68.56,4.67,4.67,0,0,1-1,.22c-.41.08-.83.13-1.25.2-2.56.76-5.37,3.09-7,3.56-4.41.93-8.81.47-13.06,2.12a1.56,1.56,0,0,1-.27-.3.92.92,0,0,0-.22-.17c-.53-.35-1,.56-1.53.28a.64.64,0,0,1-.37-.47c0-.18.05-.26-.14-.36s-.53-.2-.66-.48c0-.1,0-.21-.11-.29s-.4-.06-.56-.06c-.32,0-.64.05-1,.06a.71.71,0,0,0-.59.41,2.83,2.83,0,0,1-.43.48.49.49,0,0,0-.16.55,1.29,1.29,0,0,1,0,.8c-1.39.23-2.19.7-3.43,0-.22-.31-.56-.22-.82-.45a.85.85,0,0,1-.21-.37.78.78,0,0,0-.42-.36.37.37,0,0,0-.47.09.63.63,0,0,0-.07.12,6,6,0,0,0-.55-1,4.46,4.46,0,0,1-.74-1.59c0-.3,0-.61,0-.91a3.78,3.78,0,0,0-.54-1.47,13.82,13.82,0,0,1-1.68-2.77,3.15,3.15,0,0,1,0-2.32c.49-.93,1.73-.2,2.14.48a5.12,5.12,0,0,1,.75,1.85,7.19,7.19,0,0,1,0,1.91,14.69,14.69,0,0,0-.19,1.85,6.82,6.82,0,0,0,0,1,3.42,3.42,0,0,0,.22.61,3.07,3.07,0,0,0,.24.62c.2.26.37.21.62.34a2,2,0,0,1,.64.44c.21.25.32.6.53.84a1.48,1.48,0,0,0,.87.51c1.5.24,2.55-1.36,3.84-1.88a4.91,4.91,0,0,1,3.5,0c.7.22,1.27.81,2,1.07,4.11-.77,7.71-1.71,12.12-1.71,2,0,4.4-2.8,6.93-4.06a10.78,10.78,0,0,1,1.89-.88,2.16,2.16,0,0,1,2,.1C441.66,212,441.5,212.25,441.21,212.51Z" transform="translate(-304.43 -182.57)"/><path class="cls-33" d="M414.46,266c-.25-5.67-.09-4.59.23-10.25a4.9,4.9,0,0,0,.15-1.15c0-.39,0-.79,0-1.18s.16-.49.18-.81c.05-.67,0-1.34.06-2a9.86,9.86,0,0,1,.2-1.23,14.73,14.73,0,0,1,.11-1.48c.16-.66.34-1.3.49-1.94,1.33-5.52,3.33-11.59,7-16.44a14.93,14.93,0,0,1,1.72-1.93c3.42-4,9-3,12.92-6.13.6-.38,1.29-.7,1.86-1.11.27-.19.46-.53.74-.71s.74-.07.87-.62a2,2,0,0,0-1.26,0,4.45,4.45,0,0,0-1.23.62c-1.27.74-2.07,2.14-3.28,2.14-2,0-2-2.8-3.2-4.2-4.41-5.61-8.81,1.87-13.44,2.75a11,11,0,0,0-1.69.9c-2.89,1-.49,3.82-1.29,5.69-2.4,5.61-8.41,3.74-11.53,0a6.53,6.53,0,0,0-2,.32c-.92.25-2.26.79-3.22.53a4.83,4.83,0,0,1-1.61-1c-.31-.29-.57-.64-.88-.94s-.43-.53-.6-.67a4.17,4.17,0,0,0-2.14-.64,10,10,0,0,0-2.26.07,10.74,10.74,0,0,1-2.32.86c-1.07.06-1.47,1-1.87,1.93a3.88,3.88,0,0,1,2.21-.45,4.05,4.05,0,0,0,2.29-.38,3.57,3.57,0,0,1,1.48.28,2.94,2.94,0,0,1,.59,0c.35.11,1.48,1.5,1.93,1.38,1,1.38,1.93,2.67,2.88,4s1.64,3.22,2.53,4.73a16.78,16.78,0,0,1,1.94,5.61c.37,1.88,1,3.66,1.26,5.52a37,37,0,0,1,.78,5c0,.53.06,1.07.11,1.6s.12,1.07.19,1.59c.57,6.49-2.75,11.59,7.78,10.29A9.79,9.79,0,0,0,414.46,266Z" transform="translate(-304.43 -182.57)"/><g class="cls-34"><path class="cls-35" d="M415.66,238c.78-.83.38-1.76,0-1.76-4.81-.47-6.81,5.6-5.52,10.18.06.52.12,1,.21,1.52a10.13,10.13,0,0,0,.37,1.49,6.29,6.29,0,0,0,.81,2c.52.63,1.1.14,1.53-.39a7.61,7.61,0,0,0,1-2.75c.12-.5.21-1,.28-1.51.52-2.56.52-4.9,1.23-6.71A9.23,9.23,0,0,0,415.66,238Z" transform="translate(-304.43 -182.57)"/><path class="cls-35" d="M418.44,232.22c-1.6,1.65-2,4-2.4,6.32,3.2,0,1.6-3.74,3-5A1.37,1.37,0,0,0,418.44,232.22Z" transform="translate(-304.43 -182.57)"/><path class="cls-35" d="M409.34,241.07c-.11-3.93-3.71-3.93-6-3.76a1.4,1.4,0,0,0-.62.69,2.56,2.56,0,0,0-.14,1.4c.06.56.12,1.13.2,1.69a23,23,0,0,0,1,4.14c.16.48.36.92.56,1.38s.26.88.43,1.3a9.81,9.81,0,0,1,.6,3c.06,1,.24,1.92.38,2.88a12.45,12.45,0,0,0,.29,2,2.73,2.73,0,0,0,.56,1.1,1.1,1.1,0,0,0,1.4-.22,4.8,4.8,0,0,0,.51-.59,7.8,7.8,0,0,0,.35-.71,3.21,3.21,0,0,0,.36-.59c.09-.26.16-.55.23-.82a7,7,0,0,0,.08-2,5.81,5.81,0,0,1-.11-.71c0-.23,0-.47,0-.71,0-.59-.07-1.15-.1-1.74s-.28-1.26-.31-1.9a22.34,22.34,0,0,1-.06-4A4.46,4.46,0,0,1,409.34,241.07Z" transform="translate(-304.43 -182.57)"/><path class="cls-35" d="M414,253a2.35,2.35,0,0,0-.83-.11c0,.16-.16.12-.26.21a1.4,1.4,0,0,0-.27.53,13.06,13.06,0,0,0-.46,2.06c-.12.64-.15,1.31-.22,2a14.86,14.86,0,0,0-.18,2,19.35,19.35,0,0,0,.12,2,9,9,0,0,0,.31,1.81c.09.3.25.77.59.71s.46-.57.6-.84a6.92,6.92,0,0,0,.71-2.55c.08-.95-.09-1.93,0-2.88,0-.42.19-.84.21-1.27s0-.75,0-1.12v-1.07A7.37,7.37,0,0,0,414,253Z" transform="translate(-304.43 -182.57)"/><path class="cls-35" d="M427.47,223.39c-.22-1.2-1-3.07-2.62-2.6a26.94,26.94,0,0,0-3.65,4.43,5.74,5.74,0,0,0-.84,1.7c-.57,1.78-.42,3.8-.72,5.55,1.61-.47,1.61-2.34,2.71-3.51a9.67,9.67,0,0,1,1.41-1.38c1.09-.72,2.29-2.59,3.41-3.66C427.36,223.65,427.32,223.43,427.47,223.39Z" transform="translate(-304.43 -182.57)"/><path class="cls-35" d="M400.18,219.27a24.63,24.63,0,0,0,.68,3.74,10.71,10.71,0,0,0,.57,1.53,2.9,2.9,0,0,0,.51.79,2.21,2.21,0,0,0,.5.38,1.39,1.39,0,0,0,.43.12c.13,0,.25.14.41.06a.68.68,0,0,0,.24-.42,1.22,1.22,0,0,0,0-.82c0-.19-.07-.38-.12-.57a2.72,2.72,0,0,0-.24-.58c-.29-.61-.44-1.28-.7-1.9a5.81,5.81,0,0,0-.38-.84c-.2-.35-.39-.69-.61-1a3.45,3.45,0,0,0-.53-.55c-.11-.11-.13-.21-.3-.17S400.35,219.23,400.18,219.27Z" transform="translate(-304.43 -182.57)"/><path class="cls-35" d="M403.9,223.61a7.24,7.24,0,0,0,.3,2.12,27.2,27.2,0,0,0,3,3.47c.4-2.34-1.2-3.27-2.19-5.15C404.71,223.73,404.38,223.74,403.9,223.61Z" transform="translate(-304.43 -182.57)"/><path class="cls-35" d="M396.24,228.65a1.67,1.67,0,0,0,.38.68,2.25,2.25,0,0,0,.46.24,3.65,3.65,0,0,1,.64.35c.26.19.51.39.78.57s.55.5.83.73.71.35,1,.58a3.92,3.92,0,0,1,1,.76,2.17,2.17,0,0,1,.36,1.44v1.66a10.17,10.17,0,0,0,.13,1.47c0,.12,0,.22,0,.33s.08.2.08.31c0,.29-.17.29-.31.13a4.71,4.71,0,0,1-.45-.68,7.1,7.1,0,0,1-.55-1.06,9.14,9.14,0,0,0-.82-1.86c-.14-.22-.24-.47-.37-.69s-.29-.65-.5-.94-.46-.62-.72-.92a4.7,4.7,0,0,1-.34-.44c-.05-.07-.11-.13-.16-.19a2.1,2.1,0,0,1-.13-.26c-.16-.28-.41-.52-.59-.79-.08-.12-.14-.25-.22-.37S396.55,229.14,396.24,228.65Z" transform="translate(-304.43 -182.57)"/></g><path class="cls-36" d="M386.37,224.53c-.37,1.86-1.57,1.4-2.77,1.86a2,2,0,0,1,2.12-1.32A1.19,1.19,0,0,0,386.37,224.53Z" transform="translate(-304.43 -182.57)"/><g class="cls-37"><path class="cls-35" d="M413.74,261.94a20.91,20.91,0,0,0,0-5,24.85,24.85,0,0,1-.18-2.59c0-.91-.18-1.85-.28-2.74-.12-1.05-.24-2.1-.34-3.14,0-.52-.09-1.05-.12-1.57-.77-5.09,1.24-9.76,4.44-13.5.4,4.67-3.2,8.41-2.91,13-.05.58-.08,1.16-.12,1.74s-.08,1.17-.14,1.75,0,.92-.05,1.38a11.6,11.6,0,0,0-.08,1.77v7.09Z" transform="translate(-304.43 -182.57)"/><path class="cls-35" d="M416.2,242c.91-4.62,1.94-9.49,4.23-13.47a19,19,0,0,1,1.05-1.64c1.37-1.85,5-5.58,6.17-2.78.41,1.4-2.4,2.33-3.61,3.67-.44.43-.85.9-1.3,1.31-3.5,3-3.5,8.57-5.79,12.29C416.79,241.5,416.47,241.6,416.2,242Z" transform="translate(-304.43 -182.57)"/><path class="cls-35" d="M420.23,219.36a3.69,3.69,0,0,0-1.43,1.5,4.35,4.35,0,0,0-.43.83c-1.13,1.9.07,3.3.47,5.17,0,.7.4.59.91.18a17,17,0,0,0,1.53-1.53c.77-1.92,3.17-1.92,4-4.25.8-3.28-2-2.81-3.48-2.63A3.12,3.12,0,0,0,420.23,219.36Z" transform="translate(-304.43 -182.57)"/><path class="cls-35" d="M414.91,234.35c-1.67,4.19-3.28,7.93-3.21,12.42a4.46,4.46,0,0,1-.55,1.42,1.62,1.62,0,0,1-1.61.58,3.28,3.28,0,0,1-2-2,7.4,7.4,0,0,1-.52-1.61c-.19-5.26-3-11.33.21-14.13,1.2-1.4,6.81-2.34,7.47,2.23C414.71,233.83,414.54,234.31,414.91,234.35Z" transform="translate(-304.43 -182.57)"/><path class="cls-35" d="M412.93,255.56a7.12,7.12,0,0,0,.05-2.06,6.64,6.64,0,0,1-.05-.77c0-.36-.09-.71-.1-1.07a5.09,5.09,0,0,0-.28-1.33,3.38,3.38,0,0,0-.46-1c-.38-.47-.8.19-1,.51a4.46,4.46,0,0,0-.58,1.77c-.06.36-.2.67-.26,1-.09.53-.13,1.08-.2,1.62-.1.85-.15,1.7-.25,2.55a21.11,21.11,0,0,0-.08,2.64c0,1.48,0,3,0,4.44,0,.8.49,1.72,1.24,1.71s1.44,0,1.75-.88a7.43,7.43,0,0,0,.25-2.21c0-.78.2-1.56.21-2.34s0-1.52,0-2.27A12,12,0,0,0,412.93,255.56Z" transform="translate(-304.43 -182.57)"/><path class="cls-35" d="M409.59,250.37c-.11,1-.09,1.95-.18,2.93-.06.68-.07,1.51-.63,1.89-.36.24-.72,0-1-.32a3.28,3.28,0,0,1-.52-.84,5.29,5.29,0,0,1-.13-1.13c0-.74-.09-1.44-.09-2.18a1.47,1.47,0,0,1,.46-1.24,1.36,1.36,0,0,1,.81-.42C408.64,249.08,408.88,249.51,409.59,250.37Z" transform="translate(-304.43 -182.57)"/><path class="cls-35" d="M404.24,227.73A49.91,49.91,0,0,1,406,244.24c-.51.54-1.37-.54-1.63-1a9.58,9.58,0,0,1-.64-2.46,19.46,19.46,0,0,0-1.13-2.89,4.93,4.93,0,0,0-.58-1.09,7.09,7.09,0,0,1-.58-1c-.15-.26-.35-.48-.5-.74s-.32-.72-.54-1a10.23,10.23,0,0,1-1.09-2,9.38,9.38,0,0,0-.53-1.25c-.19-.3-.41-.58-.58-.9-.42-.77-1-2.35.28-2.39a8.78,8.78,0,0,0,3-.2,7.53,7.53,0,0,1,1.34-.51c.2,0,.34.06.51.15A3,3,0,0,1,404.24,227.73Z" transform="translate(-304.43 -182.57)"/><path class="cls-35" d="M406.35,246.47c0-.24-.06-2-.64-1.76-.36.14-.46,1.22-.47,1.56,0,.71-.06,1.95.5,2.42.31.26.48,0,.62-.32a5.42,5.42,0,0,0,0-2.37Z" transform="translate(-304.43 -182.57)"/><path class="cls-35" d="M409.9,266.3a19.69,19.69,0,0,1-.71-4.6,19.25,19.25,0,0,0,0-2c0-.32-.08-.6-.09-.93s-.11-.59-.1-.91a2.35,2.35,0,0,0-.66-1.76,6.23,6.23,0,0,0-.68-.5c-.16-.1-.26-.07-.39-.26a3.58,3.58,0,0,1-.3-.79,10.64,10.64,0,0,1-.28-1.69,14.74,14.74,0,0,0-.25-1.75c-.07-.28-.26-.51-.46-.23,0,0,0,.15,0,.2s-.12.17-.16.27a4.46,4.46,0,0,0-.2.91,8.76,8.76,0,0,0,.08,2.23c0,.36.1.68.1,1.05s.08,1,.1,1.47c.09,1.69-.14,3.36-.2,5a6,6,0,0,0-.08,1.2,3.1,3.1,0,0,0,.49,1.34,3.66,3.66,0,0,0,1.11,1.17,4,4,0,0,0,1.11.65C408.71,266.55,408.93,266.61,409.9,266.3Z" transform="translate(-304.43 -182.57)"/><path class="cls-35" d="M417,220.42c0-.7.06-1.67-.53-2.11a.86.86,0,0,0-.57-.2,2.14,2.14,0,0,0-.34.09,2.09,2.09,0,0,1-.79,0c-.4-.09-.78-.24-1.18-.36-.17-.05-.24-.07-.39.06a4,4,0,0,0-.64.66,7.25,7.25,0,0,0-1.11,2.1c-.57,2.5-1,5.77.23,6.71,2.41.93,4-1.87,4-4.49C415.87,221.81,416.76,221.3,417,220.42Z" transform="translate(-304.43 -182.57)"/><path class="cls-35" d="M411,219.27c-.93,2.45-.13,5.26-1.33,7.59-1.2,1.87-2.8-1.87-3.2-3.27a1.91,1.91,0,0,1,.67-2.33,3.17,3.17,0,0,1,1.43-1.32,5.77,5.77,0,0,1,1.09-.4A10.92,10.92,0,0,1,411,219.27Z" transform="translate(-304.43 -182.57)"/><path class="cls-35" d="M407.28,227.78c.35-.92-.45-1.85-.85-2.79-.4.47-1.21-.93-1.21,0,0,1.4,1.21,1.87,2,2.67Z" transform="translate(-304.43 -182.57)"/><path class="cls-35" d="M402.91,225.91a7.9,7.9,0,0,0-.12-1.09,12,12,0,0,0-.34-1.17c-.25-.76-.56-1.51-.86-2.25a16.5,16.5,0,0,1-.65-1.87c-.21-.81-.33-1.68-.6-2.47-.36-1-1-2.29-2.15-2.13-.86.12-1.35,1.38-1.92,2a4.17,4.17,0,0,0-.8.92,2.65,2.65,0,0,0,0,1.8,6.37,6.37,0,0,0,1.18,2.1c.49.65.9,1.34,1.33,2,.14.23.32.45.45.69s.18.49.31.73c.22.39.32.86.57,1.24a1.18,1.18,0,0,0,.63.42,2.31,2.31,0,0,0,.68.2c.45.06.81-.3,1.16-.62.16-.15.23-.39.45-.45s.18,0,.26,0S402.71,225.69,402.91,225.91Z" transform="translate(-304.43 -182.57)"/><path class="cls-35" d="M395.1,215a2.39,2.39,0,0,1-.3.89,4.51,4.51,0,0,0-.32.79,3.86,3.86,0,0,0,0,1.69,3.68,3.68,0,0,0,.37.94c.13.3.26.61.4.89a9.21,9.21,0,0,0,.72,1.08,6.14,6.14,0,0,1,.65.95c.08.22.21.6.07.83s-.48.18-.7.18-.56-.32-.83-.54-.53-.38-.78-.58a3.35,3.35,0,0,0-.53-.4c-.24-.11-.5-.16-.74-.26a3.19,3.19,0,0,1-2.73-2.56c0-2.34,1.61-3.27,3.25-4A3.78,3.78,0,0,1,395.1,215Z" transform="translate(-304.43 -182.57)"/><path class="cls-35" d="M393.43,223.43a2.92,2.92,0,0,0-.18-.72c0-.07-.12-.16-.16-.24a2.17,2.17,0,0,0-.3-.41,1.19,1.19,0,0,0-.78-.49c-.8.15-2-.31-2.41.62,0,.47-.8,1.4,1.58,1.24a5.4,5.4,0,0,1,1.05.2C392.49,223.7,393.33,223.78,393.43,223.43Z" transform="translate(-304.43 -182.57)"/><path class="cls-35" d="M389.57,216.34c-.37,1.64,2,3.51.43,4.92a3.27,3.27,0,0,1-4.8,0c-3.21-2.81,0-5.61,2.61-5.39C388.35,216,388.93,216.17,389.57,216.34Z" transform="translate(-304.43 -182.57)"/></g><path class="cls-38" d="M383.27,225.77c2.33,3,5.13-1.71,8.49-1.93a3.48,3.48,0,0,1,1.33-.09,6,6,0,0,1,1.83.27c.14,0,.27.18.4.21a2.17,2.17,0,0,0,.51,0c.33,0,.53.2.8.38a2.83,2.83,0,0,1,.71.75,2.84,2.84,0,0,0,.69.9,3.57,3.57,0,0,0,1.65.68,1.58,1.58,0,0,1,.51.12c.11,0,.21.17.32.21s.19,0,.28,0,.09.1.16.11a.86.86,0,0,0,.55-.05.44.44,0,0,0,.28-.32c0-.16,0-.39,0-.54s.24-.14.39-.14a2.93,2.93,0,0,0,.71-.12,2.27,2.27,0,0,1,.52,0c1-1.25,1.38,1.09,2.19.15,2,4.21,9.61,3.28,10-.93,0-1.4-.8-4.2,1.15-4.65a5.87,5.87,0,0,1,1.41-.72c4.65-3,12.66-8.65,16.26.23.4.94,2,.94,3.39-.13a4.08,4.08,0,0,1,1.27-1.28c.52-.28,1-.69,1.64-.56a1.73,1.73,0,0,1,.67.32,1.84,1.84,0,0,0,.39.25,4,4,0,0,0,.58.11,5.43,5.43,0,0,0,.58.13,4.86,4.86,0,0,0,1-.16c.18,0,.24-.08.43,0a1.8,1.8,0,0,1,.67.28.43.43,0,0,1,0,.6.73.73,0,0,1-.87.12,16.73,16.73,0,0,0-2.51-.62c-.44-.12-.74-.29-1.16-.12a2.9,2.9,0,0,1-.48.14c-.1,0-.17.09-.26.11s-.29,0-.43,0a2.18,2.18,0,0,0-.52.45,4,4,0,0,1-.71.44c-3.67,3.17-7.27.37-11.28-.57.4-1.87-1.2-2.8-2-2.33-2,.46-4.41.93-6.46,2.93a2.63,2.63,0,0,0-1.64.67c-1,1-.31,3.06-.31,4.81a1.35,1.35,0,0,1,1.2.46c1.6,3.74-2.4,7-5.21,6.08-.8,0-1.2-1.87-2-1.87-3.2,1.4-4.8-.47-6.91-3.31a2.39,2.39,0,0,0-1.16-.11c-.29,0-.42-.06-.61.23a2.62,2.62,0,0,1-.43.6.48.48,0,0,1-.43.11,6.86,6.86,0,0,1-1.08-.21c-.34-.07-.53.16-.89.12a15.86,15.86,0,0,1-1.89-.39c-.54-.13-.89-.86-1.27-1.27a.91.91,0,0,0-1.41-.15,6.18,6.18,0,0,1-1.25.77c-.49.27-1,.58-1.47.89-2.69,2.27-6.48,3.62-9.05,1.3a6.34,6.34,0,0,1-1.4-1.86,6.11,6.11,0,0,0,.66-1A3.11,3.11,0,0,1,383.27,225.77Z" transform="translate(-304.43 -182.57)"/><path class="cls-28" d="M383.18,226.13a3.06,3.06,0,0,0-2.48.33c-.52.63-.91,1.57-1.51,2.27,0,.47.8.94,1.2.47a1.92,1.92,0,0,0,.4-1.4,2.49,2.49,0,0,1-.4,2.39c-.4.64-.8,1.11-.4,1.34,3.61,2.34,8.41-.46,11.23-3.74a4.92,4.92,0,0,0,2.23-.31,1.36,1.36,0,0,0,.66-.37c.18-.17.28-.4.46-.56s.87-.07,1.09.29a2.06,2.06,0,0,0,.79.86,1.51,1.51,0,0,0,.87.24,1,1,0,0,1,.68.27.65.65,0,0,0,.59.18c.32-.07.56-.28.91-.27a1.42,1.42,0,0,1,.46,0,.53.53,0,0,0,.37.06,2,2,0,0,1,.35-.08.94.94,0,0,0,.29,0c.1,0,.33-.19.34-.33s-.1,0-.17.06a1.54,1.54,0,0,1-.43,0,3,3,0,0,0-.84.05,3.54,3.54,0,0,1-1,.14,1.22,1.22,0,0,1-1.11-.63,1.73,1.73,0,0,0-1-.78c-.16,0-.29.09-.45.07a1.2,1.2,0,0,1-.51-.36c-.27-.35-.31-.9-.57-1.27a1,1,0,0,0-1.31-.3,3.39,3.39,0,0,0-.91.9c-.25.3-.65.36-.89.68-2.5.51-4.5,2.38-6.9,2.85,0-.47,0-1.4-.41-1.4a2.64,2.64,0,0,1-2.38.16C382.39,227.4,383,227,383.18,226.13Z" transform="translate(-304.43 -182.57)"/><path class="cls-28" d="M404.67,228.09c1,3,4.16,2.51,6.16,2a1.82,1.82,0,0,0,1.6,1.87c2,0,6.81-2.8,4.41-6.07,1.2-.47,1.2.93,1.2,1.4,1.2,2.8-1.6,5.14-3.6,6.07-1.61,1.4-4,.47-3.61-2.33-2,1.4-5.61,1.4-6.08-2.14A4.16,4.16,0,0,1,404.67,228.09Z" transform="translate(-304.43 -182.57)"/><path class="cls-39" d="M400.18,228.12c.29,0,.45,0,.63.17a4.05,4.05,0,0,1,.21.35,8.79,8.79,0,0,1,.37,1.36,9.58,9.58,0,0,0,.39.93c.12.32.19.67.3,1a11.18,11.18,0,0,1,.48,1.62c1.06,1.73-.14,4.07.74,5.73,0,.25-.14.59-.38.52s-.36-.39-.46-.53-.24-.54-.4-.78a7.44,7.44,0,0,0-.44-.78c0-.06-.11-.11-.15-.17l-.13-.23c-.07-.12-.27-.21-.25-.38,0,.13.1.27.15.37s.18.38.29.57c.23.38.33.84.53,1.24s.23.58.34.88.18.46.25.71.12.65.27.63,0-.12.07-.19a2.26,2.26,0,0,1,.11-.22c.09-.13.17-.26.25-.4s.38-.39.53-.61c.14-1.36-1.46-2.29-.26-3.69a9.41,9.41,0,0,1,1.44,6.14,6.64,6.64,0,0,0-.06,1.78c.05.59.15,1.18.25,1.76.12.8.35,1.62.54,2.4s.36,1.56.5,2.35c.08.42.11.83.16,1.25a15.26,15.26,0,0,1,.19,1.64c0,1.75-.35,3.49-.18,5.24a24.77,24.77,0,0,1,.25,3,1.4,1.4,0,0,1-.44,1.15c-.24.23-.65.56-.7.93a2.07,2.07,0,0,0,.08.7s.05,0,.06.07,0,.15,0,.21a.76.76,0,0,0,.08.21,1.15,1.15,0,0,0,.32.34c.1.09.22.34.35.37.1-.24-.26-.71-.35-.91a2.43,2.43,0,0,1-.16-.37.93.93,0,0,1-.09-.4c0-.62.69-.86.9-1.42a3,3,0,0,0,.09-.95v-1.28c0-.5,0-1-.07-1.49,0-.26-.08-.5-.08-.77s0-.72.07-1.09a16.31,16.31,0,0,0,.38-1.76c0-.2,0-.41,0-.62a5.28,5.28,0,0,1,.14-1,2.8,2.8,0,0,0-.15-2c-.09-.13-.21-.22-.29-.36a2.2,2.2,0,0,1-.25-.76,2.37,2.37,0,0,1,0-.92.59.59,0,0,0-.08-.44,8.45,8.45,0,0,1-.36-1.76c-.08-.38-.13-.75-.23-1.13a7.58,7.58,0,0,0-.3-1.27c-.11-.24-.32-.33-.37-.61a2.24,2.24,0,0,1,0-.73,18.08,18.08,0,0,1,3.15-6.63c.8-.93.8-3.74.4-6.07-.4,3.27.4,7.94-2.8,7.94-2.41,0-2.41-4.67-3.49-6.82a2.42,2.42,0,0,1-.31-.57,8.62,8.62,0,0,0-.37-1.37,1.91,1.91,0,0,1-.39-1.14,5.32,5.32,0,0,1,.14-.89c0-.15.14-.41.08-.55s-.2-.16-.32-.09a2.27,2.27,0,0,0-.35.26A4.9,4.9,0,0,1,400.18,228.12Z" transform="translate(-304.43 -182.57)"/><path class="cls-40" d="M412.88,233c2.76,5.31-2.85,9-1.16,13.83,0,.21-.07.4-.08.61a3.1,3.1,0,0,1,0,.43c-.05.36-.06.72-.11,1.08a4.71,4.71,0,0,0,0,.65c0,.32,0,.63-.07,1-.05.54.17,1.1,0,1.6s-.89.78-1.29,1c-.13.07-.24,0-.38.08a1.82,1.82,0,0,0-.53.33,1.63,1.63,0,0,0-.3.51,2.59,2.59,0,0,0-.14.29c-.06.23-.17.46-.23.69s-.06.49-.1.72,0,.57-.08.85a10.94,10.94,0,0,0-.21,1.71c0,1.16.24,2.31.23,3.47a16.79,16.79,0,0,1,.06,1.88,4,4,0,0,0-.05,1c.05.32.15.63.2.94a1.19,1.19,0,0,1,0,.53c0,.05-.09.08-.12.12a2.09,2.09,0,0,0-.08.23c.07,0,.11.07.16.09s.12,0,.17,0,.18.11.32.07.23-.12.24-.18-.17-.25-.2-.33c-.11-.32-.16-.65-.24-1a4.74,4.74,0,0,1-.24-1,2.13,2.13,0,0,1,0-.44c0-.15.05-.3.08-.45a3.78,3.78,0,0,0,0-1.34,10,10,0,0,1-.07-1.22,2.42,2.42,0,0,0-.06-.47,3.26,3.26,0,0,1,0-.7,19.06,19.06,0,0,1-.13-2.73,2.05,2.05,0,0,1,.37-.87,10.63,10.63,0,0,0,.54-1.46,2.23,2.23,0,0,1,1-.92,3.81,3.81,0,0,0,.52-.29l.59-.53c.33-.32.5-1,.91-1.18s.45.44.47.75a16.87,16.87,0,0,0,.29,1.73,10.24,10.24,0,0,1-.29,3.07,5.83,5.83,0,0,0-.15,1.09c0,.41.06.8.08,1.2a5.16,5.16,0,0,1-.4,2.79,11.51,11.51,0,0,0-.73,1.17,2.86,2.86,0,0,0-.24,1.26,7.69,7.69,0,0,0,0,1c0,.12.08.21.09.33a2.81,2.81,0,0,0,0,.29,1.08,1.08,0,0,0,.13.29c.12.13.17,0,.27,0s.27,0,.37-.06a.16.16,0,0,0,.06-.12,1.42,1.42,0,0,1-.14-.36l-.12-.41a5.11,5.11,0,0,1-.34-1.29,1.66,1.66,0,0,1,.17-.73,5.08,5.08,0,0,1,.33-.66c.11-.2.26-.36.35-.57a2.83,2.83,0,0,0,.31-.79c.08-.41.07-.82.15-1.23a4,4,0,0,0,.13-1c0-.49-.08-1-.08-1.45a6.34,6.34,0,0,1,.14-1.15c.08-.43.06-.83.1-1.26a10.19,10.19,0,0,0,.23-3c-.14-.67-.7-1.07-.85-1.73a3.43,3.43,0,0,0-.12-.8.79.79,0,0,0-.14-.17,2,2,0,0,1-.33-.9,8.93,8.93,0,0,1,0-2.13c.4-1.41,1.21-2.81-.4-4.21,1.61-2.8,2.81-6.07,2.31-9.13A1.51,1.51,0,0,1,412.88,233Z" transform="translate(-304.43 -182.57)"/><path class="cls-41" d="M426.73,217.22c-1.08,2.89-4.68,5-4.69,8.33a5.24,5.24,0,0,0-.8,1.27c-1,2.3-.93,5.41-3.6,6.58a9.73,9.73,0,0,1-.8-3.27c2,4.67,0,7.94-.4,13.08a47.3,47.3,0,0,1,4.68-15c.34-.68.69-1.36,1.05-2,.68-2.58.94-6,5.3-6.17a5,5,0,0,0-.6-1.12C426.73,218.72,427,217.27,426.73,217.22Z" transform="translate(-304.43 -182.57)"/><path class="cls-42" d="M406.4,220a5.45,5.45,0,0,1,.37.72.79.79,0,0,0,.15.27c2.31,1.69.71,5.42,2.71,7.76-.8-1.87-.8-3.74-1.2-5.61,2,1.41,4,.94,5.21-1.4.4-.46,0-1.4,0-2.54,0-.26.1-.52.14-.78a3.14,3.14,0,0,1,.08-.46c.05-.17.12-.16.22-.28a2.27,2.27,0,0,0,.23-.5c-.15,0-.21-.19-.36-.18a5,5,0,0,0-.22.58,4.79,4.79,0,0,0-.29,1,4.57,4.57,0,0,0,0,.83c.66,2.33-1.75,3.73-2.95,4.2-1.6.47-2.4-1.87-3.16-2.85a1.21,1.21,0,0,1-.33-.55C406.88,220,406.8,219.87,406.4,220Z" transform="translate(-304.43 -182.57)"/><path class="cls-43" d="M393.35,214.58a1.73,1.73,0,0,1,.82.62,4.42,4.42,0,0,1,.32.61,3,3,0,0,1,.31,1c0,.35,0,.7,0,1.06a8.71,8.71,0,0,0,2.1,4.25,5.8,5.8,0,0,1,1.11,2.08,6.58,6.58,0,0,1,0,1.33,1.62,1.62,0,0,1,0,.22c0,.08-.05.14-.06.2a.54.54,0,0,0,.07.37,1,1,0,0,0,.51.39c0-.12-.17-.21-.2-.34a2.14,2.14,0,0,1,0-.62,6.86,6.86,0,0,1,0-1.11,2.41,2.41,0,0,0,.08-.48,1.17,1.17,0,0,0-.07-.5,4.25,4.25,0,0,0-.21-.43c-.07-.14-.25-.28-.26-.44,0-.41.44-.61.68-.69s.44-.1.66-.15.2,0,.31,0a2.46,2.46,0,0,1,.39-.09,1.14,1.14,0,0,0,.55-.06.92.92,0,0,0,.4-.62,8.37,8.37,0,0,0,.13-2.24c0-.21,0-.42,0-.63s-.07-.34-.08-.52a3.48,3.48,0,0,1,0-.79c0-.26.12-.34,0-.59a2.05,2.05,0,0,0-.24-.36c0,.27,0,.54,0,.81a7.79,7.79,0,0,0,0,1.28,5.36,5.36,0,0,1,.12,1v1a1.64,1.64,0,0,1-.09.73,3.59,3.59,0,0,1-.35.64.85.85,0,0,1-.47.33c-.27,0-.58-.19-.84-.26-.44-.12-1-.27-1.21.34-.13.38-.19.27-.45.05a3,3,0,0,1-.88-1.11,1.72,1.72,0,0,0-.32-.46c-.12-.15-.18-.31-.34-.4s-.22-.08-.32-.24a3.42,3.42,0,0,1-.26-.4,3.07,3.07,0,0,1-.09-1,1.22,1.22,0,0,0-.13-.53,1.38,1.38,0,0,1-.18-.39,2.71,2.71,0,0,1,.16-.78,1.53,1.53,0,0,1,.3-.58c.24-.29.58-.57.39-1a2,2,0,0,0-.69-.89C394.59,214,394.1,214.28,393.35,214.58Z" transform="translate(-304.43 -182.57)"/><path class="cls-28" d="M409.5,231.39a.88.88,0,0,1,.64,0,1.57,1.57,0,0,1,.33.19,1.37,1.37,0,0,1,.24.29c.1.14.22.25.32.39a3.47,3.47,0,0,1,.26.37.74.74,0,0,1,.07.21c0,.17-.07.28-.09.45a4.62,4.62,0,0,0,0,.65,1.22,1.22,0,0,0,.22.61c.23.38.4.77.85.81s.54-.35.56-.74.47-.37.74-.47.31-.66.1-.92c-.09-.11-.2-.21-.3-.32a1.13,1.13,0,0,0-.57-.25,2.11,2.11,0,0,1-.51-.23c-.17-.13-.23-.42-.33-.62a2.42,2.42,0,0,0-1-1,1.09,1.09,0,0,0-.44-.2C410.32,230.62,410.18,230.78,409.5,231.39Z" transform="translate(-304.43 -182.57)"/><path class="cls-28" d="M415,234a1.08,1.08,0,0,0-.14.63c0,.16.08.25.24.24a2,2,0,0,0,.76-.26.41.41,0,0,0,.14-.53c-.11-.33-.32-.44-.61-.31Z" transform="translate(-304.43 -182.57)"/><path class="cls-28" d="M436.07,223.11a1.72,1.72,0,0,1,1.79,0,.54.54,0,0,1,.28.31,1.53,1.53,0,0,1,0,.37,2.14,2.14,0,0,0,.33.88,1.07,1.07,0,0,1,.14.78,1.06,1.06,0,0,1-.72.58,2.19,2.19,0,0,1-1.29-.45,1.44,1.44,0,0,1-.75-.94,2.9,2.9,0,0,1,0-.51A1.43,1.43,0,0,1,436.07,223.11Z" transform="translate(-304.43 -182.57)"/><path class="cls-28" d="M437.65,222.36c.09-.21.09-.35.24-.42a.5.5,0,0,1,.27,0,.49.49,0,0,1,.38.23.47.47,0,0,1,0,.35c-.09.25-.49.09-.63.05Z" transform="translate(-304.43 -182.57)"/><path class="cls-28" d="M387.36,231.56a1.79,1.79,0,0,0-.63.75,3.57,3.57,0,0,0-.41,1.16,5,5,0,0,0-.1.87,1.52,1.52,0,0,0,.09.67c.13.31.34.24.59.18a.43.43,0,0,0,.31-.19,1,1,0,0,0,.15-.44,1.77,1.77,0,0,0-.09-.52,5.86,5.86,0,0,1-.1-.58,1.55,1.55,0,0,1,.31-1,3.93,3.93,0,0,0,.37-.87c0-.09.07-.16,0-.23S387.49,231.48,387.36,231.56Z" transform="translate(-304.43 -182.57)"/><path class="cls-28" d="M383.46,237.66c0,.11-.26.85-.1,1s.47-.26.58-.41a4.56,4.56,0,0,0,.26-.73c0-.33-.25-.29-.44-.29Z" transform="translate(-304.43 -182.57)"/><path class="cls-28" d="M378.78,230.87a2.2,2.2,0,0,0-.44-.12,2.17,2.17,0,0,0-.35.07,3,3,0,0,0-.71.16.69.69,0,0,0-.38.5c0,.18,0,.35.19.38a1,1,0,0,0,.53-.07,6.16,6.16,0,0,0,.71-.4c.13-.08.27-.12.39-.21A.22.22,0,0,0,378.78,230.87Z" transform="translate(-304.43 -182.57)"/><path class="cls-28" d="M381.93,224.83a2,2,0,0,1-.58-.18,1.81,1.81,0,0,1-.5-.29,1.13,1.13,0,0,1-.15-.21c0-.16.16-.3.24-.36a.67.67,0,0,1,1,.58Z" transform="translate(-304.43 -182.57)"/><path class="cls-28" d="M403.87,206.26a4.79,4.79,0,0,1-1-1.09,1.64,1.64,0,0,1-.23-.64c0-.36.55-.42.76-.29a1.35,1.35,0,0,1,.56.78c.06.17.39,1.17.07,1.24Z" transform="translate(-304.43 -182.57)"/><path class="cls-28" d="M422.41,215c.31-.36.53-.75,1-.81a.34.34,0,0,1,.39.14c.18.35-.45.68-.67.67Z" transform="translate(-304.43 -182.57)"/><path class="cls-28" d="M413.05,217.18a2.69,2.69,0,0,0,1,.09,2.23,2.23,0,0,1,1.29,0c.25.08.49.06.74.16a2.45,2.45,0,0,1,.52.24,3.63,3.63,0,0,0,1,.66c.24,0,.34-.06.53-.12a3.29,3.29,0,0,1,.7,0,2.26,2.26,0,0,0,1.28-.2,1.3,1.3,0,0,1,.69-.14c.1,0,.15-.08.22-.09s.25,0,.37,0,.25-.21.39-.25.25,0,.38,0,.11-.07.21-.09.24,0,.35,0,.18-.07.27-.09.37-.18.54-.14a2.84,2.84,0,0,0-.77,0c-.18,0-.37.2-.58.24s-.27,0-.4,0-.13.07-.21.09c-.28.09-.59,0-.87,0-.58.12-1.12.46-1.7.59-.35.08-1.14-.05-1.34-.49s.38-1.32,0-1.82c-.22-.29-.59-.22-.88-.23s-.68.11-1,.12a3.5,3.5,0,0,0-.56,0c-.2,0-.29.12-.49.07s-.69-.33-1-.18S413.31,216.68,413.05,217.18Z" transform="translate(-304.43 -182.57)"/><path class="cls-28" d="M406,213.5a17.63,17.63,0,0,1-.22,2.2,2.13,2.13,0,0,0,0,1.2,2.25,2.25,0,0,0,.78.89.75.75,0,0,1,.33.43c.05.16.11.3.17.46.16.41.15.74.54,1a1,1,0,0,0,1,0,6.17,6.17,0,0,0,1-.51,2.39,2.39,0,0,1,.43-.14.66.66,0,0,1,.41-.12c-.14,0-.18.06-.29.09a1.14,1.14,0,0,1-.37,0h-.45a1.94,1.94,0,0,1-.49-.11c-.13,0-.27,0-.39,0a1.21,1.21,0,0,1-.35-.29,3,3,0,0,1-.52-.86c-.14-.3-.17-.46-.44-.6s-.43-.1-.62-.2a1.83,1.83,0,0,1-.69-1.61Z" transform="translate(-304.43 -182.57)"/><path class="cls-28" d="M423.2,217a10.38,10.38,0,0,1,2.32-.58,3.22,3.22,0,0,1,1.87,0,1,1,0,0,1,.55.68,2.91,2.91,0,0,0,.39,1.27c.31.37,1,.36,1.38.49s1.28.23,1.64-.26c.19-.27.1-.49.06-.79s0-.19.17-.28a.83.83,0,0,1,1,.37,7.82,7.82,0,0,1,.43.87.83.83,0,0,1,.14.52,3.57,3.57,0,0,1-.16.46c-.05.19,0,.15.08.31a.9.9,0,0,0,.45.41,2.88,2.88,0,0,1,.78.45c.19.19.27.4.52.44a1.61,1.61,0,0,0,.49,0c.08,0,.13-.07.2-.09s.2,0,.3,0,.08-.1.15-.11a1.93,1.93,0,0,1,.24,0,.93.93,0,0,0,.29-.12c.12-.06.25-.07.38-.14s.2-.18.31-.21.29.05.47-.14a2.52,2.52,0,0,1,.3-.22,6.88,6.88,0,0,0,.54-.67,2.77,2.77,0,0,1,.64-.6c.16-.09.6-.28.61-.53-.11-.07-.46.16-.56.24a7.57,7.57,0,0,0-.66.61l-.54.55c-.2.2-.42.49-.69.54s-.67-.07-1,0a5.74,5.74,0,0,1-.89.21c-.26,0-.36.15-.59,0a1.78,1.78,0,0,1-.5-.52,2.35,2.35,0,0,1-.29-.69,5.34,5.34,0,0,0-.22-1.07c-.16-.36-.53-.54-.77-.83a2.22,2.22,0,0,0-.25-.35,1.75,1.75,0,0,0-.53-.22,2.51,2.51,0,0,1-1-.93,3.52,3.52,0,0,0-1-1.13A1.51,1.51,0,0,0,429,215l-1.19.35c-.15,0-.3,0-.46.05s-.41.14-.62.18a5.08,5.08,0,0,0-1,.17A9.84,9.84,0,0,0,423.2,217Z" transform="translate(-304.43 -182.57)"/></g></g></svg>